<svg width="360" height="640" viewBox="0 0 360 640" fill="none" xmlns="http://www.w3.org/2000/svg">
<g clip-path="url(#clip0_281_1628)">
<g style="mix-blend-mode:lighten">
<path d="M84.3172 664.005C85.2165 661.859 86.7793 659.985 88.2941 658.119C89.5399 656.591 90.7747 655.075 91.298 653.256C92.0315 650.724 91.5929 647.915 91.0916 645.092C90.513 641.83 89.82 638.532 90.1038 635.521C90.3434 632.93 91.4676 630.603 92.8018 628.354C93.9481 626.425 95.2529 624.555 96.049 622.545C97.8292 618.062 98.5516 613.409 100.103 608.892C100.162 608.679 101.04 606.919 101.637 605.708C101.106 605.506 100.549 605.289 100.022 605.075C98.6622 604.424 97.7702 603.459 97.6154 602.193C97.4275 600.662 98.6696 592.122 100.055 587.866C102.201 581.266 104.316 576.308 106.159 569.763C106.405 568.658 106.493 567.524 106.421 566.395C106.346 564.97 106.386 563.543 106.539 562.125C107.206 557.66 109.579 553.15 109.616 548.648C109.694 539.972 107.25 531.064 107.773 522.458C107.818 521.725 108.186 520.481 108.776 518.953C109.911 516.001 111.868 511.716 112.679 508.216C112.949 507.248 113.053 506.241 112.985 505.238C112.983 504.971 112.893 504.712 112.727 504.502C112.501 504.342 112.225 504.27 111.949 504.299C111.667 504.284 111.386 504.344 111.134 504.474C110.883 504.603 110.671 504.797 110.519 505.035C110.126 505.627 109.769 506.242 109.45 506.876C108.581 508.418 107.523 509.847 105.632 510.583C103.354 511.44 100.494 510.999 97.715 510.704C95.9716 510.516 94.2356 510.325 92.9235 511.326C92.9235 512.063 92.905 514.209 92.8276 515.744C92.7429 517.429 92.4443 518.998 91.8472 520.006C90.9921 521.457 89.6136 522.281 88.1025 522.892C87.4427 523.161 86.7645 523.389 86.1416 523.669C85.5851 523.908 85.0875 524.14 84.8479 524.677C83.1377 528.561 83.6648 533.409 83.005 537.528C81.6413 546.153 79.0171 560.965 75.8067 568.684C71.0263 580.199 62.0367 586.353 53.5594 594.801C56.7034 604.968 62.0957 616.151 65.5493 626.09C68.2693 633.909 69.0986 642.338 71.8151 650.278C73.8828 656.326 75.5088 658.326 76.9131 664.584" stroke="#282948" stroke-miterlimit="10"/>
</g>
<path d="M255.856 102.751V86.2955C256.098 83.7143 258.058 78.5519 263.963 78.5519C269.867 78.5519 271.908 83.7143 272.19 86.2955V102.751" stroke="#313049" stroke-width="1.5" stroke-linecap="round" stroke-linejoin="round"/>
<path d="M243.757 47.7807C243.757 39.1032 247.287 27.6135 265.013 27.6135C280.297 27.6135 285.621 40.5494 285.621 48.1824" stroke="#313049" stroke-width="1.5"/>
<path d="M264.568 27.6135L264.568 19.6279" stroke="#313049" stroke-width="1.5" stroke-linecap="round"/>
<path d="M291.188 48.4666L314.955 64.3501C315.224 64.5298 315.385 64.8317 315.385 65.1549V101.662C315.385 102.196 314.952 102.63 314.417 102.63H213.992C213.458 102.63 213.024 102.196 213.024 101.662V65.1605C213.024 64.8342 213.189 64.5298 213.462 64.351L237.707 48.4618C237.865 48.3585 238.049 48.3035 238.238 48.3035H290.651C290.842 48.3035 291.029 48.3603 291.188 48.4666Z" stroke="#313049" stroke-width="1.5" stroke-linecap="round" stroke-linejoin="round"/>
<path d="M236.739 49.2716V102.63" stroke="#313049" stroke-width="1.5" stroke-linecap="round" stroke-linejoin="round"/>
<path d="M291.186 49.2716V102.63" stroke="#313049" stroke-width="1.5" stroke-linecap="round" stroke-linejoin="round"/>
<path d="M213.024 79.6407L236.623 64.0684C236.778 63.966 236.959 63.9105 237.145 63.9084L290.643 63.31C290.839 63.3078 291.031 63.3651 291.194 63.4743L315.264 79.6407" stroke="#313049" stroke-width="1.5" stroke-linecap="round" stroke-linejoin="round"/>
<path d="M178.586 22.4186C179.058 22.3968 179.457 22.2152 179.784 21.8739C180.111 21.5326 180.278 21.1259 180.278 20.6538C180.278 21.1259 180.438 21.5326 180.765 21.8739C181.091 22.2152 181.491 22.3968 181.963 22.4186C181.491 22.4404 181.091 22.6219 180.765 22.9633C180.607 23.1242 180.482 23.3149 180.399 23.5244C180.315 23.7339 180.274 23.9579 180.278 24.1834C180.278 23.7113 180.118 23.3046 179.784 22.9633C179.457 22.6219 179.058 22.4404 178.586 22.4186ZM180.278 17.1896C181.193 17.146 181.97 16.7901 182.609 16.122C183.248 15.4538 183.568 14.6622 183.568 13.7399C183.568 14.6622 183.887 15.4538 184.527 16.122C185.166 16.7901 185.943 17.1387 186.865 17.1896C186.262 17.2186 185.71 17.3857 185.202 17.7052C184.701 18.0175 184.301 18.4387 184.004 18.9616C183.713 19.4845 183.568 20.0437 183.568 20.6538C183.568 19.7315 183.248 18.9326 182.609 18.2644C181.97 17.589 181.193 17.2331 180.278 17.1896ZM182.689 25.0113C183.379 24.9823 183.967 24.7136 184.447 24.2124C184.926 23.7113 185.166 23.1158 185.166 22.4186C185.166 23.1158 185.405 23.7113 185.885 24.2124C186.364 24.7136 186.945 24.9823 187.635 25.0113C186.945 25.0404 186.364 25.3091 185.885 25.8102C185.405 26.3113 185.166 26.9068 185.166 27.604C185.166 26.9068 184.926 26.3113 184.447 25.8102C183.989 25.3233 183.357 25.0363 182.689 25.0113ZM187.635 21.5689C188.325 21.5398 188.906 21.2711 189.385 20.77C189.865 20.2689 190.097 19.6734 190.097 18.9689C190.097 19.6661 190.337 20.2616 190.816 20.7627C191.295 21.2638 191.884 21.5326 192.573 21.5616C191.884 21.5907 191.295 21.8594 190.816 22.3605C190.337 22.8616 190.097 23.4571 190.097 24.1543C190.097 23.4571 189.857 22.8616 189.385 22.3605C188.906 21.8666 188.325 21.5979 187.635 21.5689Z" fill="#313049"/>
<path d="M249.202 37.319C249.674 37.2972 250.073 37.1157 250.4 36.7743C250.727 36.433 250.894 36.0263 250.894 35.5542C250.894 36.0263 251.054 36.433 251.38 36.7743C251.707 37.1157 252.107 37.2972 252.579 37.319C252.107 37.3408 251.707 37.5224 251.38 37.8637C251.222 38.0246 251.098 38.2154 251.014 38.4248C250.931 38.6343 250.89 38.8583 250.894 39.0838C250.894 38.6117 250.734 38.205 250.4 37.8637C250.073 37.5224 249.674 37.3408 249.202 37.319ZM250.894 32.09C251.809 32.0464 252.586 31.6906 253.225 31.0224C253.864 30.3542 254.184 29.5626 254.184 28.6403C254.184 29.5626 254.503 30.3542 255.142 31.0224C255.781 31.6906 256.559 32.0392 257.481 32.09C256.878 32.119 256.326 32.2861 255.818 32.6056C255.317 32.9179 254.917 33.3391 254.619 33.862C254.329 34.385 254.184 34.9442 254.184 35.5542C254.184 34.6319 253.864 33.833 253.225 33.1648C252.586 32.4894 251.809 32.1336 250.894 32.09ZM253.305 39.9117C253.995 39.8827 254.583 39.614 255.062 39.1129C255.542 38.6117 255.781 38.0162 255.781 37.319C255.781 38.0162 256.021 38.6117 256.5 39.1129C256.98 39.614 257.561 39.8827 258.251 39.9117C257.561 39.9408 256.98 40.2095 256.5 40.7106C256.021 41.2117 255.781 41.8073 255.781 42.5045C255.781 41.8073 255.542 41.2117 255.062 40.7106C254.604 40.2237 253.973 39.9368 253.305 39.9117ZM258.251 36.4693C258.941 36.4402 259.522 36.1715 260.001 35.6704C260.48 35.1693 260.713 34.5738 260.713 33.8693C260.713 34.5665 260.952 35.162 261.432 35.6632C261.911 36.1643 262.499 36.433 263.189 36.462C262.499 36.4911 261.911 36.7598 261.432 37.2609C260.952 37.762 260.713 38.3576 260.713 39.0548C260.713 38.3576 260.473 37.762 260.001 37.2609C259.522 36.7671 258.941 36.4983 258.251 36.4693Z" fill="#313049"/>
<path d="M252.279 331.121C246.033 322.278 241.884 299.331 275.254 278.285C293.619 270.4 330.662 262.279 331.911 292.876C331.54 301.276 324.149 318.255 297.56 318.962C288.266 317.636 274.362 310.562 287.745 295.971C291.193 292.213 302.378 288.189 310.051 294.202C311.538 296.192 312.996 301.144 306.929 305.035M302.244 304.593C302.913 302.75 303.583 299.287 298.675 299.287C295.478 299.729 290.199 304.593 295.552 308.793C303.654 315.15 323.658 303.487 320.089 291.549C319.866 289.781 319.108 286.288 310.721 283.812C309.115 283.458 304.847 283.001 303.806 283.149C290.199 283.812 264.502 291.682 270.57 317.857C273.915 325.816 288.102 338.903 318.082 327.584C328.64 323.384 350.113 309.854 351.541 289.339C352.21 285.065 352.656 275.013 349.087 269" stroke="#242340" stroke-width="1.5" stroke-linecap="round" stroke-linejoin="round"/>
<path d="M95.917 159.541C95.917 179.867 79.5881 196.333 59.4596 196.333C39.3311 196.333 23.0023 179.867 23.0023 159.541C23.0023 139.216 39.3311 122.75 59.4596 122.75C79.5881 122.75 95.917 139.216 95.917 159.541Z" stroke="#2A2846" stroke-width="1.5"/>
<path d="M28.6307 179.921C24.7328 183.854 17.7874 193.007 21.1892 198.155C23.6697 199.943 36.2847 197.726 66.901 174.558C82.1383 161.686 110.912 134.442 104.108 128.436C103.4 127.006 96.6669 126.934 83.9101 133.799" stroke="#2A2846" stroke-width="1.5"/>
<path d="M45.8276 535.498C45.7049 548.88 37.3604 561.281 24.5981 565.823C11.5904 570.489 -3.25811 565.701 -11.48 554.774C-19.211 544.583 -20.07 530.219 -13.6888 519.169C-6.57139 506.892 7.9089 500.63 21.6529 504.313C35.8878 507.874 45.5822 521.011 45.8276 535.498C45.8276 535.621 46.8093 535.498 46.8093 535.252C46.6866 521.011 37.3604 508.365 23.7391 504.191C11.2222 500.385 -2.88993 504.559 -11.3572 514.504C-20.5608 525.308 -21.5425 541.391 -13.8115 553.3C-6.32593 564.718 7.54081 570.12 20.794 567.297C35.7651 563.982 46.5639 550.599 46.6867 535.375C46.8094 535.13 45.8276 535.252 45.8276 535.498Z" fill="#282948"/>
<path d="M-5.5896 509.224C-11.7253 505.541 -18.4746 502.103 -25.8375 502.226C-28.1691 502.226 -32.2186 502.595 -34.0593 504.191C-36.0228 505.909 -35.5319 507.137 -34.9184 509.838C-31.3596 525.799 -17.3702 538.936 -5.9578 549.617C6.06821 560.912 20.0577 570.734 36.0105 575.154C39.5692 576.136 47.0548 579.083 48.6501 573.804C50.6135 567.542 42.8825 559.194 39.9374 554.528C39.8147 554.283 39.0784 554.528 39.3238 554.896C41.1645 557.843 43.1279 560.79 44.9687 563.736C45.8277 565.209 46.8094 566.683 47.4229 568.279C48.6501 571.471 48.6501 572.208 45.5822 574.295C42.5144 576.382 41.41 575.891 38.0967 575.031C36.5014 574.663 34.9061 574.172 33.3108 573.681C30.6111 572.822 28.0341 571.839 25.4571 570.612C13.4311 565.209 2.87764 557.106 -6.57137 548.021C-14.7932 540.164 -23.1378 531.692 -29.0281 521.87C-32.4641 516.223 -39.0906 503.822 -27.5555 502.717C-19.8245 501.981 -12.5843 505.664 -6.20317 509.47C-5.83502 509.838 -5.22145 509.47 -5.5896 509.224Z" fill="#282948"/>
<path d="M26.0706 575.768C29.0158 577.61 32.5745 577.978 35.8878 576.873C36.3786 576.75 36.1331 576.136 35.765 576.382C32.6971 577.487 29.5066 577.119 26.6842 575.4C26.316 575.154 25.7025 575.522 26.0706 575.768Z" fill="#282948"/>
<path d="M47.0548 558.702C48.1593 559.807 49.0182 561.158 49.2637 562.631C49.2637 562.877 50 562.631 50 562.386C49.6319 560.79 48.8955 559.439 47.6684 558.334C47.5457 558.211 46.9321 558.58 47.0548 558.702Z" fill="#282948"/>
<path d="M39.0783 562.631C40.5509 563.736 41.5326 565.455 41.778 567.297C41.778 567.542 42.5143 567.297 42.5143 567.051C42.2689 565.087 41.2872 563.491 39.8146 562.263C39.5692 562.263 38.9556 562.508 39.0783 562.631Z" fill="#282948"/>
<path d="M10.3632 503.331C10.8541 508.61 15.1491 510.82 19.0759 513.399C22.0211 515.363 24.2299 517.45 24.7207 521.011C25.2116 523.834 24.4753 526.781 24.7207 529.605C25.0889 534.639 28.034 536.603 31.47 539.55C34.047 541.76 35.3969 544.461 37.2376 547.162C37.3603 547.407 41.2872 551.213 41.2872 550.722C41.2872 550.354 40.5509 550.599 40.5509 550.968C40.5509 551.09 40.5509 551.09 40.5509 551.213C40.5509 551.336 40.7963 551.336 40.9191 551.336C41.0418 551.336 41.1645 551.336 41.2872 551.336C41.4099 551.336 41.6554 551.213 41.6554 551.09C41.6554 550.477 41.2872 550.599 41.1645 550.231C41.0418 549.372 37.8512 546.793 37.1149 545.688C36.5014 544.706 35.8878 543.724 35.2742 542.742C31.4701 537.34 25.3343 535.621 25.3343 528.009C25.3343 523.712 26.1933 519.415 23.1255 515.854C19.0759 511.189 11.4676 510.206 10.9768 502.963C11.0995 502.84 10.3632 502.963 10.3632 503.331Z" fill="#282948"/>
<path d="M-4.36255 509.347C1.28231 511.68 2.50942 517.45 4.35014 522.607C6.06814 527.395 8.64513 530.341 13.3083 532.551C15.3944 533.534 17.726 534.393 19.6894 535.744C22.2664 537.462 23.6163 539.918 25.3343 542.496C26.316 543.969 27.2977 545.32 29.0157 546.179C32.2063 547.653 36.0105 546.057 38.5875 549.372C38.7102 549.494 39.3237 549.249 39.3237 549.126C38.0966 547.53 36.7468 547.039 34.906 546.671C30.7338 545.811 28.7703 546.057 26.1933 542.251C22.88 537.585 20.9165 535.375 15.5171 532.92C9.50411 530.219 6.68173 526.535 4.59558 520.274C3.0003 515.609 1.2823 511.066 -3.38085 509.102C-3.87171 508.979 -4.36255 509.224 -4.36255 509.347Z" fill="#282948"/>
<path d="M-16.3886 524.203C-7.92129 523.957 -4.85337 532.183 -0.681078 537.954C2.38678 542.251 6.43635 545.197 11.5904 546.425C17.3579 547.653 22.021 547.162 26.1933 552.073C27.175 553.178 28.034 554.283 29.5066 554.774C32.2063 555.756 34.9061 553.791 37.3604 556.247C37.4831 556.37 38.2193 556.124 38.0966 556.001C36.9922 554.896 36.1332 554.774 34.6606 554.528C32.2064 554.037 30.1202 554.651 27.7886 552.686C26.8069 551.827 26.3161 550.599 25.4571 549.74C21.1621 545.688 15.149 547.284 9.99501 545.32C2.75486 542.619 -0.0675373 536.849 -4.23982 530.955C-7.18497 526.904 -10.8664 523.712 -16.0204 523.834C-16.3885 523.834 -16.8794 524.203 -16.3886 524.203Z" fill="#282948"/>
<path d="M-16.8794 539.55C-10.0074 540.286 -6.32604 545.934 -1.41747 549.985C1.89582 552.686 5.20914 553.791 9.50414 553.791C13.9219 553.791 17.6032 553.669 21.6528 556.001C23.8617 557.352 25.9478 559.071 28.2794 560.421C29.6293 561.158 31.5927 562.631 32.6971 561.035C32.9425 560.667 32.329 560.544 32.0835 560.79C30.9791 562.263 21.6528 555.142 20.303 554.528C15.5171 552.318 10.6086 554.16 5.57727 552.932C-3.38088 550.722 -7.185 540.164 -16.634 539.059C-17.0021 539.059 -17.3703 539.55 -16.8794 539.55Z" fill="#282948"/>
<path d="M-11.48 555.756C-3.74901 553.055 2.01861 561.403 8.89061 562.508C9.99504 562.631 10.854 562.508 11.9585 562.386C14.4128 562.14 17.6033 561.649 19.9349 562.14C22.021 562.508 24.2299 563.982 26.0706 564.964C26.1933 565.087 26.8069 564.718 26.8069 564.718C23.8617 563.122 20.7939 561.281 17.3579 561.281C15.6399 561.281 15.7626 561.526 14.1673 561.649C9.13602 562.14 8.39974 561.895 4.35016 559.93C-0.681123 557.352 -5.8351 553.546 -11.7254 555.51C-12.2162 555.756 -11.7254 555.879 -11.48 555.756Z" fill="#282948"/>
<path d="M24.9661 505.664C27.5431 508.488 30.611 511.803 32.0836 515.363C33.4334 518.432 32.5744 521.87 34.1697 524.939C35.3969 527.149 37.2376 528.745 38.8328 530.587C41.4098 533.534 43.3733 536.726 44.9686 540.163C45.0913 540.409 45.8276 540.163 45.7049 539.918C44.355 537.094 42.8824 534.393 40.919 531.938C38.7101 529.114 35.3969 526.781 34.2925 523.343C33.0653 520.028 33.9243 516.836 32.0836 513.644C30.3656 510.575 27.9113 507.874 25.7025 505.296C25.457 505.173 24.7207 505.418 24.9661 505.664Z" fill="#282948"/>
<path d="M32.0836 528.009C31.9608 528.868 32.0836 529.728 32.5745 530.464C32.6972 530.71 33.3107 530.342 33.3107 530.219C32.8198 529.482 32.6972 528.623 32.8199 527.763C32.8199 527.64 32.2063 527.763 32.0836 528.009Z" fill="#282948"/>
<path d="M20.6712 523.589C21.0393 524.203 21.1621 524.817 21.1621 525.431C21.1621 525.676 21.8983 525.553 21.8983 525.308C21.8983 524.571 21.7757 523.834 21.4075 523.221C21.1621 523.098 20.5485 523.343 20.6712 523.589Z" fill="#282948"/>
<path d="M9.25878 510.575C9.74964 511.066 10.2405 511.557 10.7314 512.048C10.9768 512.294 11.5904 511.925 11.3449 511.68C10.8541 511.189 10.3632 510.698 9.87235 510.206C9.74964 510.084 9.01335 510.329 9.25878 510.575Z" fill="#282948"/>
<path d="M-1.66285 517.819C-1.2947 518.187 -1.04922 518.678 -0.681073 519.046C-0.558359 519.169 0.177897 518.924 0.0551829 518.801C-0.31296 518.432 -0.558374 517.941 -0.926517 517.573C-1.17195 517.45 -1.78556 517.696 -1.66285 517.819Z" fill="#282948"/>
<path d="M8.76791 549.494C9.99505 550.354 11.5904 550.477 12.9402 549.985C13.4311 549.74 12.9402 549.74 12.6948 549.863C11.5904 550.354 10.3632 549.985 9.38148 549.372C9.25876 549.126 8.64519 549.372 8.76791 549.494Z" fill="#282948"/>
<path d="M19.0759 545.443C19.444 545.32 19.6895 545.443 19.9349 545.688C20.0576 545.811 20.6712 545.566 20.6712 545.443C20.1803 545.074 19.5668 545.074 19.0759 545.197C18.585 545.32 18.585 545.566 19.0759 545.443Z" fill="#282948"/>
<path d="M29.1384 550.108C29.2611 550.968 30.1201 551.336 30.8564 551.213C31.2245 551.213 31.47 550.722 30.9791 550.722C30.3656 550.845 29.9974 550.354 29.8747 549.863C29.8747 549.617 29.1384 549.863 29.1384 550.108Z" fill="#282948"/>
<path d="M12.3266 557.352C12.8174 557.229 13.3083 557.106 13.7991 556.861C14.1673 556.738 14.1673 556.492 13.7991 556.615C13.3083 556.738 12.8174 556.861 12.3266 557.106C11.8357 557.229 11.9584 557.475 12.3266 557.352Z" fill="#282948"/>
<path d="M38.5875 508.856C39.6919 509.961 40.7963 511.189 41.9007 512.294C42.1462 512.539 42.7597 512.294 42.5143 511.925C41.4099 510.82 40.3055 509.593 39.2011 508.488C39.0784 508.365 38.3421 508.61 38.5875 508.856Z" fill="#282948"/>
<path d="M40.4282 508.365C41.1645 509.224 41.9008 510.207 42.6371 511.066C42.7598 511.311 43.4961 511.066 43.2506 510.82C42.5143 509.961 41.7781 508.979 41.0418 508.119C40.9191 507.874 40.1828 508.119 40.4282 508.365Z" fill="#282948"/>
<g clip-path="url(#clip1_281_1628)">
<g opacity="0.12" clip-path="url(#clip2_281_1628)">
<mask id="mask0_281_1628" style="mask-type:luminance" maskUnits="userSpaceOnUse" x="-840" y="-52" width="1217" height="812">
<path d="M376.66 -51.7972H-839.086V759.097H376.66V-51.7972Z" fill="white"/>
</mask>
<g mask="url(#mask0_281_1628)">
<path d="M280.697 335.486C275.348 339.054 269.188 340.676 263.352 343.433C257.679 346.028 253.14 350.082 248.763 354.461C243.738 359.488 239.037 364.516 233.526 369.219C228.501 373.436 223.476 377.49 219.91 383.004C207.266 402.141 219.586 424.847 235.633 437.334C235.958 437.496 236.444 436.686 236.12 436.523C216.019 420.954 206.78 394.195 228.015 374.895C232.067 371.327 236.282 368.084 240.334 364.354C244.387 360.461 247.953 356.245 252.005 352.353C260.435 344.406 271.457 342.784 280.859 336.459C281.021 336.135 281.183 335.162 280.697 335.486Z" fill="white"/>
<path d="M234.012 391.275C231.257 406.196 240.496 416.413 250.709 426.306C251.033 426.63 251.681 425.82 251.357 425.495C241.469 415.927 232.229 405.872 234.823 391.113C234.985 390.465 234.174 390.789 234.012 391.275Z" fill="white"/>
<path d="M255.085 407.656C252.33 398.087 253.627 387.87 258.652 379.274C264.001 370.354 272.106 366.949 280.373 361.435C280.859 361.11 280.697 360.299 280.049 360.624C270.485 366.786 261.569 370.841 256.382 381.707C252.33 389.978 251.681 399.384 254.113 408.142C254.437 408.791 255.085 408.142 255.085 407.656Z" fill="white"/>
<path d="M276.32 422.252C281.67 427.766 288.478 430.361 295.934 431.982C304.364 433.766 312.793 435.875 321.222 437.821C335.811 441.064 349.914 436.523 363.692 431.82C364.178 431.658 364.178 430.685 363.53 431.009C349.914 435.712 335.973 440.253 321.384 437.01C314.252 435.388 307.281 433.442 299.987 431.982C291.396 430.361 282.966 428.252 276.807 421.603C276.645 421.116 275.996 421.927 276.32 422.252Z" fill="white"/>
<path d="M246.818 451.282C252.005 456.147 258.652 457.769 265.136 460.202C272.268 462.796 278.103 467.662 285.074 470.257C297.555 474.798 311.172 469.446 323.978 470.743C324.464 470.743 324.788 469.932 324.302 469.77C312.144 468.473 299.663 473.176 287.829 469.932C280.697 467.986 275.024 462.959 268.378 460.202C261.083 457.282 253.464 455.823 247.467 450.471C246.98 450.146 246.494 450.957 246.818 451.282Z" fill="white"/>
<path d="M313.927 461.175C323.491 461.823 333.217 462.472 342.781 463.121C350.886 463.607 357.856 464.418 365.475 461.175C381.523 454.363 397.571 447.227 412.16 437.496C412.322 437.334 412.646 436.361 412.322 436.686C397.733 446.254 381.685 453.552 365.799 460.202C357.532 463.607 349.751 462.472 340.998 461.985C332.083 461.337 323.329 460.688 314.414 460.202C314.09 460.202 313.765 461.175 313.927 461.175Z" fill="white"/>
<path d="M293.665 447.714C309.713 444.957 325.112 450.471 341.16 450.633C355.911 450.795 370.176 446.416 382.495 438.632C382.82 438.47 382.982 437.496 382.495 437.821C368.717 446.578 352.507 450.795 336.135 449.498C322.032 448.362 308.092 444.308 293.827 446.741C293.341 446.903 293.179 447.876 293.665 447.714Z" fill="white"/>
<path d="M203.376 411.223C203.051 417.062 203.862 422.738 206.131 428.09C208.887 434.253 213.912 438.47 217.316 444.146C221.369 450.795 224.935 454.363 231.905 457.931C238.065 461.012 244.225 463.607 251.033 463.932C251.519 463.932 251.843 462.959 251.357 462.959C239.362 462.472 224.935 455.498 218.937 445.119C216.019 440.091 211.805 436.199 208.725 431.334C204.997 425.171 203.538 418.359 204.024 411.223C204.024 410.413 203.376 410.737 203.376 411.223Z" fill="white"/>
<path d="M227.366 467.5C249.574 480.312 275.186 485.988 300.797 483.88C301.122 483.88 301.446 482.907 301.122 482.907C275.51 485.015 250.06 479.339 227.853 466.526C227.69 466.526 227.204 467.337 227.366 467.5Z" fill="white"/>
<path d="M290.261 412.197C275.024 407.656 271.944 388.194 282.156 377.004C282.318 376.842 282.642 375.868 282.156 376.355C271.782 387.708 273.403 408.142 289.775 413.007C290.099 413.17 290.423 412.359 290.261 412.197Z" fill="white"/>
<path d="M401.299 178.497C400.489 217.582 366.286 249.693 326.247 242.395C295.286 236.881 272.43 208.986 272.43 177.686C272.43 138.439 308.254 106.652 347.482 113.787C378.767 119.302 400.489 147.034 401.299 178.497C401.299 178.983 404.379 178.497 404.379 177.686C403.73 147.034 383.144 120.112 352.831 113.139C328.678 107.625 302.256 116.058 285.884 134.708C265.784 157.414 263.839 191.958 281.345 216.771C297.069 238.99 325.274 249.207 351.697 243.206C382.333 236.07 403.73 209.311 404.379 177.848C404.379 177.199 401.299 177.524 401.299 178.497Z" fill="white"/>
<path d="M278.428 148.332C281.183 151.899 283.777 153.035 287.667 154.819C295.448 158.062 299.501 158.387 298.204 167.306C297.717 170.388 296.583 173.469 295.934 176.551C294.8 183.038 298.042 188.228 286.857 188.552C285.236 188.552 283.939 187.417 282.318 187.579C280.211 187.579 273.403 191.147 272.754 188.552C272.592 188.065 271.133 188.552 271.133 189.038C272.268 193.579 275.51 190.336 278.103 189.849C283.777 188.876 285.884 190.822 290.585 190.336C292.368 190.174 293.827 189.687 295.124 188.39C297.718 185.633 297.069 181.416 297.555 178.01C298.204 173.145 300.473 167.955 300.149 163.09C299.825 159.198 298.528 156.927 294.962 155.467C289.126 153.197 284.425 153.197 280.049 147.845C279.562 147.358 278.104 148.007 278.428 148.332Z" fill="white"/>
<path d="M325.112 151.413C322.681 156.927 319.763 163.09 322.681 168.604C324.788 169.739 325.923 171.361 325.761 173.794C326.247 175.415 326.409 177.037 326.247 178.821C326.571 180.767 326.085 181.254 326.895 183.038C327.706 184.822 329.003 185.633 330.624 186.768C334.19 189.038 340.026 190.822 344.24 188.876C346.023 188.065 346.023 187.092 347.482 186.119C350.238 183.038 353.642 181.254 357.37 180.929C357.856 180.929 358.181 180.767 358.667 180.767C359.64 179.794 360.288 178.983 360.774 177.686C362.071 174.929 362.233 171.685 361.747 168.604C361.423 166.496 360.45 164.712 359.964 162.603C359.153 159.36 359.964 156.603 359.964 153.359C359.964 148.007 356.235 143.466 350.886 142.655C348.455 142.331 346.672 142.817 344.402 143.466C338.405 145.088 348.617 144.439 334.676 145.412C334.19 145.412 333.704 145.088 333.217 145.088C327.706 145.574 325.437 148.169 323.329 153.521C323.005 154.332 324.626 154.332 324.788 153.683C326.247 150.115 332.083 148.169 335.811 147.521C337.432 147.196 337.432 148.494 338.405 148.332C338.891 148.332 339.539 147.683 339.863 147.845C342.781 148.007 354.614 145.899 356.884 148.007C358.991 149.953 357.856 160.333 358.829 164.063C359.64 166.82 360.774 169.577 360.288 172.496C360.288 175.415 358.991 177.686 356.236 179.632C355.425 179.632 354.615 179.794 353.804 179.956C351.697 181.254 349.589 182.389 347.482 183.686C338.891 189.201 330.624 189.525 327.868 177.362C327.22 174.604 327.868 172.821 326.733 170.063C324.302 164.225 325.112 178.983 323.167 163.414C322.681 159.522 325.437 154.819 326.895 151.413C327.058 150.764 325.437 150.764 325.112 151.413Z" fill="white"/>
<path d="M327.22 201.526C324.14 202.824 320.411 204.445 319.925 208.013C319.439 211.257 321.222 212.392 323.816 213.365C327.058 214.501 328.516 215.798 330.624 218.068C331.434 218.879 332.245 219.528 333.379 219.852C337.432 221.15 341.16 218.231 344.402 216.122C346.185 214.987 348.779 213.852 348.779 211.257C348.779 207.04 342.133 206.554 339.701 204.932C335.973 202.499 329.327 195.688 325.599 202.337C325.112 203.148 326.733 203.148 327.058 202.499C330.3 196.661 337.432 205.581 340.35 206.878C342.133 207.689 349.751 208.662 345.537 213.69C344.726 214.663 341.971 216.122 340.674 216.609C338.242 218.555 335.325 218.555 331.921 216.933C331.434 216.284 330.948 215.474 330.462 214.825C329.813 214.014 329.489 213.527 328.516 212.879C327.382 212.23 326.733 212.554 325.761 212.068C317.494 207.365 323.167 203.959 327.706 202.175C329.003 202.013 328.03 201.04 327.22 201.526Z" fill="white"/>
<path d="M282.642 217.095C288.154 216.447 295.286 214.663 299.176 219.528C300.797 221.636 301.77 223.096 304.039 224.556C306.147 225.853 308.578 226.177 309.551 228.934C310.037 230.232 309.713 231.854 309.875 233.313C310.523 236.395 311.982 238.341 314.738 240.125C315.224 240.449 316.521 239.8 316.197 239.476C313.603 237.854 312.144 235.908 311.496 232.827C311.01 230.556 311.658 228.123 310.199 226.177C309.875 225.691 309.064 225.204 308.74 224.88C307.606 224.393 306.471 223.907 305.336 223.583C303.229 222.609 301.608 220.988 300.797 218.717C296.421 212.717 289.45 215.149 282.804 215.96C282.156 216.284 281.67 217.095 282.642 217.095Z" fill="white"/>
<path d="M320.574 115.734C325.599 119.626 324.95 125.626 331.596 127.897C335 129.032 338.08 128.546 341.322 127.41C343.754 126.6 345.699 125.14 348.131 124.167C352.831 122.221 354.452 123.194 358.181 121.896C360.774 121.085 361.909 119.464 362.719 117.031C362.882 116.382 361.423 116.544 361.098 117.193C359.964 120.275 347.644 123.68 344.078 124.978C340.35 126.437 332.245 127.248 329.003 124.653C326.895 123.032 326.409 120.923 324.788 118.653C323.653 117.031 323.329 116.058 321.546 114.76C321.384 114.598 319.925 115.247 320.574 115.734Z" fill="white"/>
<path d="M308.902 141.358C307.444 142.007 306.957 143.628 307.606 145.088C308.416 147.034 310.848 147.521 312.631 147.845C312.955 147.845 314.09 147.845 314.09 147.358C313.928 145.899 316.035 145.412 316.845 144.277C317.818 142.817 316.683 141.52 315.386 140.547C314.09 139.574 312.469 138.925 310.848 139.412C309.713 139.736 308.578 140.709 308.902 142.007C309.065 142.493 310.523 142.007 310.523 141.52C310.037 139.898 312.144 140.06 313.117 140.547C313.603 140.871 314.252 141.196 314.738 141.682C315.711 142.655 316.035 143.79 314.9 144.764C313.928 145.574 312.469 146.061 312.631 147.521C313.117 147.358 313.603 147.196 314.09 147.034C312.631 146.71 311.01 146.385 309.875 145.25C308.902 144.277 308.578 142.169 310.037 141.358C310.686 141.196 309.389 141.196 308.902 141.358Z" fill="white"/>
<path d="M358.667 220.988C357.694 221.474 357.208 222.285 357.532 223.258C357.856 224.393 359.315 224.718 360.288 224.88C362.395 225.042 365.475 224.393 366.286 222.285C367.258 219.528 363.368 216.933 361.098 217.095C358.829 217.258 356.56 219.366 357.856 221.636C358.181 222.123 359.64 221.636 359.315 220.988C358.343 219.204 360.288 217.582 362.071 218.231C363.368 218.717 365.313 220.339 364.989 221.961C364.827 223.258 363.206 223.745 362.071 223.907C361.423 223.907 360.612 223.907 359.964 223.745C359.477 223.582 358.343 222.123 359.315 221.799C360.288 221.312 359.315 220.663 358.667 220.988Z" fill="white"/>
<path d="M290.423 161.955C292.53 163.739 293.341 166.496 292.692 169.253C292.53 170.064 294.151 169.901 294.313 169.09C294.962 166.009 293.989 163.09 291.558 160.982C291.071 160.657 289.775 161.306 290.423 161.955Z" fill="white"/>
<path d="M287.992 164.063C288.154 164.712 288.316 165.522 288.64 166.171C288.802 166.496 290.261 166.009 290.261 165.685C290.099 165.036 289.937 164.225 289.613 163.576C289.45 163.252 287.829 163.739 287.992 164.063Z" fill="white"/>
<path d="M292.368 195.85C293.665 197.31 296.259 196.823 297.069 195.201C297.393 194.553 295.934 194.552 295.61 195.039C295.124 195.85 294.313 195.85 293.827 195.201C293.503 194.715 291.882 195.363 292.368 195.85Z" fill="white"/>
<path d="M312.144 226.34C313.603 227.637 314.414 229.583 313.927 231.529C313.927 231.854 315.386 231.691 315.548 231.205C316.035 229.097 315.386 227.15 313.765 225.691C313.279 225.529 311.982 226.015 312.144 226.34Z" fill="white"/>
<path d="M318.142 227.15C318.304 228.124 318.466 228.934 318.79 229.907C318.953 230.394 320.411 229.907 320.411 229.421C320.249 228.448 320.087 227.637 319.763 226.664C319.601 226.34 318.142 226.664 318.142 227.15Z" fill="white"/>
<path d="M320.736 200.715C318.953 201.04 317.494 202.013 317.007 203.959C316.845 204.445 318.466 204.283 318.628 203.797C318.79 202.824 319.439 201.851 320.411 201.688C320.573 201.688 321.222 201.526 321.384 201.202C321.384 200.715 320.898 200.715 320.736 200.715Z" fill="white"/>
<path d="M316.683 198.283C315.224 198.607 314.252 199.742 314.576 201.202C314.738 201.851 316.197 201.526 316.197 200.715C316.197 200.067 316.359 199.418 317.169 199.256C317.818 199.093 317.656 198.12 316.683 198.283Z" fill="white"/>
<path d="M350.886 132.762C353.48 134.546 357.208 133.735 358.829 131.141C359.315 130.492 357.694 130.492 357.37 130.978C356.235 132.762 353.804 133.087 352.021 131.951C351.534 131.465 350.076 132.276 350.886 132.762Z" fill="white"/>
<path d="M358.991 137.466C360.936 136.979 362.395 135.357 362.233 133.249C362.233 132.925 360.612 133.249 360.612 133.735C360.774 135.033 360.126 136.655 358.829 136.979C357.856 137.303 358.019 137.79 358.991 137.466Z" fill="white"/>
<path d="M306.309 127.573C303.877 127.248 301.284 129.519 302.094 132.114C302.256 132.762 303.877 132.276 303.715 131.627C303.391 130.33 304.202 128.384 305.823 128.546C306.471 128.708 307.281 127.735 306.309 127.573Z" fill="white"/>
<path d="M305.985 132.6C304.85 133.411 304.364 134.546 304.688 135.844C304.85 136.655 306.471 136.168 306.309 135.357C306.147 134.546 306.309 133.735 307.119 133.249C307.93 132.762 306.633 132.114 305.985 132.6Z" fill="white"/>
<path d="M265.622 202.824C265.784 207.202 267.405 211.257 270.161 214.663C270.485 214.987 271.782 214.338 271.782 214.176C269.026 210.77 267.567 206.716 267.243 202.337C267.243 202.175 265.622 202.499 265.622 202.824Z" fill="white"/>
<path d="M261.894 202.013C260.921 204.77 261.245 207.527 262.542 210.122C262.866 210.77 264.325 210.122 264.001 209.473C262.866 207.202 262.542 204.77 263.515 202.337C263.839 201.364 262.218 201.202 261.894 202.013Z" fill="white"/>
<path d="M212.778 -7.03587C212.291 31.7249 188.463 67.0799 151.828 80.5407C114.383 94.1638 71.4267 81.8382 46.7876 50.5376C23.4453 20.8589 20.3653 -21.1454 39.1689 -53.7434C58.945 -88.1253 99.4699 -106.289 138.374 -98.3426C181.654 -89.5849 212.291 -50.8242 212.778 -7.03587C212.778 -5.73843 215.047 -6.0628 215.047 -7.19804C214.561 -47.0941 189.597 -83.2599 151.666 -96.7208C115.032 -109.695 73.0477 -98.5048 47.7601 -69.1504C21.1758 -38.3364 17.2855 7.39806 38.3584 42.1043C58.945 75.9997 99.1458 93.515 137.888 86.0548C182.465 77.4593 214.561 37.7255 215.047 -7.19804C215.047 -8.49548 212.778 -8.17111 212.778 -7.03587Z" fill="white"/>
<path d="M37.2237 -53.419C70.4541 -50.4997 101.415 -33.4709 131.404 -20.1723C142.426 -15.3069 153.611 -12.0633 165.769 -13.1986C175.657 -14.1717 186.193 -17.4152 195.757 -12.7121C203.376 -8.98194 208.239 -1.35953 212.453 5.61417C212.615 5.77634 213.264 5.61416 213.264 5.45198C207.428 -4.27875 200.296 -13.8473 188.3 -15.4691C181.33 -16.28 174.36 -14.496 167.39 -13.8473C155.881 -12.5499 145.344 -14.9826 134.808 -19.3614C103.522 -32.4979 72.3993 -50.8241 37.7101 -53.9055C37.3859 -53.7433 36.7374 -53.419 37.2237 -53.419Z" fill="white"/>
<path d="M30.9018 -37.5254C62.9975 -33.9575 82.7736 -3.14348 114.221 2.04625C130.917 4.80329 147.613 -1.52169 163.661 6.42508C178.574 13.7231 188.949 27.5083 201.106 38.3743C201.268 38.5365 201.917 38.2121 201.755 38.05C190.246 27.6705 180.358 14.8584 166.741 7.23597C152.801 -0.386436 139.346 2.3706 124.109 2.20842C88.123 2.20842 66.4016 -33.9575 31.3881 -37.8498C31.226 -37.8498 30.5776 -37.5254 30.9018 -37.5254Z" fill="white"/>
<path d="M28.6324 -31.3627C45.6529 -27.9569 58.6208 -16.9287 70.7783 -5.41404C81.639 4.80323 92.1755 17.9397 104.981 25.5621C116.166 32.2115 131.241 31.2384 143.885 30.5897C154.26 30.1031 163.986 29.4544 173.225 34.9685C180.52 39.3473 186.355 45.8345 192.029 51.9973C192.191 52.1595 193.001 51.9973 192.677 51.6729C184.41 42.5909 175.17 32.698 162.689 30.1031C144.047 26.373 123.299 35.2929 105.63 24.9134C97.8489 20.3724 91.365 12.9122 84.881 6.74937C78.7212 0.910931 72.5614 -5.08969 66.2395 -10.7659C55.3789 -20.4967 43.5456 -29.0922 28.9567 -32.0114C28.7946 -31.8492 28.1461 -31.5248 28.6324 -31.3627Z" fill="white"/>
<path d="M26.2009 2.37057C57.324 4.15454 77.1002 26.8596 101.901 42.4288C110.655 47.9428 119.732 49.0781 129.945 50.2133C146.317 52.1595 157.664 59.7819 164.958 74.7023C165.12 74.8645 165.769 74.7024 165.769 74.5402C160.744 64.1607 152.639 55.0787 141.292 51.8351C135.132 50.0512 128.486 49.889 122.164 48.9159C112.924 47.6185 105.63 44.3749 98.011 38.8608C75.8034 22.9673 55.2167 3.50582 26.6872 1.88403C26.363 2.04621 25.7146 2.37057 26.2009 2.37057Z" fill="white"/>
<path d="M41.4383 44.3749C53.4337 44.2127 65.2669 46.1588 76.4518 50.3755C84.5567 53.4569 92.0133 58.6466 100.767 60.1062C121.353 63.8363 146.965 54.9165 159.285 77.6216C159.447 77.9459 160.095 77.6215 160.095 77.4594C149.883 58.6466 128.486 60.4306 110.168 60.2684C95.5795 60.1062 84.8809 52.1595 71.5888 47.9428C61.8628 44.8614 51.9748 43.7262 41.9246 43.7262C41.4383 44.0505 40.952 44.3749 41.4383 44.3749Z" fill="white"/>
<path d="M75.317 57.9979C82.1252 60.9172 89.4197 65.1338 97.0384 64.6473C97.2005 64.6473 97.8489 64.3229 97.3626 64.3229C89.906 64.6473 82.7736 60.4306 75.9654 57.6736C75.8033 57.6736 75.1549 57.9979 75.317 57.9979Z" fill="white"/>
<path d="M87.3125 66.9177C89.9061 67.5665 92.4997 67.7286 95.0933 67.5665C95.4175 67.5665 95.7417 67.0799 95.2554 67.2421C92.8239 67.4043 90.2303 67.2421 87.7988 66.5934C87.4746 66.5934 86.8262 66.9177 87.3125 66.9177Z" fill="white"/>
<path d="M117.787 42.2666C120.867 43.4018 123.947 44.2127 127.189 44.2127C127.351 44.2127 127.999 43.8884 127.675 43.8884C124.433 43.7262 121.353 43.0775 118.436 41.9422C118.273 41.78 117.463 42.1044 117.787 42.2666Z" fill="white"/>
<path d="M123.299 41.9422C125.082 42.2666 127.027 42.591 128.81 42.9153C128.972 42.9153 129.62 42.591 129.296 42.591C127.513 42.2666 125.568 41.9422 123.785 41.6179C123.623 41.4557 122.974 41.9422 123.299 41.9422Z" fill="white"/>
<path d="M199.485 -2.81915C200.944 -1.6839 202.079 -0.224291 202.889 1.55968C203.051 1.88404 203.7 1.55967 203.7 1.39749C202.889 -0.386473 201.755 -2.00826 200.134 -3.14351C199.809 -3.30569 199.161 -2.98133 199.485 -2.81915Z" fill="white"/>
<path d="M199.161 -0.386447C199.81 -0.224268 200.134 0.262267 200.296 0.910982C200.296 1.23534 201.106 0.910985 201.106 0.748806C200.944 -0.0620883 200.458 -0.548628 199.647 -0.872986C199.485 -0.872986 198.837 -0.548626 199.161 -0.386447Z" fill="white"/>
<path d="M189.111 32.5358C190.083 33.0224 190.894 33.8333 191.542 34.9685C191.704 35.1307 192.353 34.8063 192.353 34.8063C191.704 33.8333 191.056 33.0224 189.921 32.3737C189.597 32.2115 189.111 32.5358 189.111 32.5358Z" fill="white"/>
<path d="M187.652 32.6981C188.138 32.8602 188.625 33.1846 188.949 33.3468C189.273 33.509 189.759 33.0224 189.435 32.8602C188.949 32.6981 188.463 32.3737 188.138 32.2115C187.652 31.8872 187.166 32.3737 187.652 32.6981Z" fill="white"/>
<path d="M48.5706 12.5878C49.3811 12.5878 50.0295 12.9122 50.5158 13.5609C50.6779 13.7231 51.3263 13.3987 51.3263 13.3987C50.84 12.5878 50.0295 12.2635 49.219 12.2635C48.8948 12.2635 48.0843 12.5878 48.5706 12.5878Z" fill="white"/>
<path d="M145.02 69.837C146.317 69.9992 147.451 70.8101 148.1 71.9453C148.262 72.2697 148.91 71.9453 148.91 71.7831C148.262 70.4857 146.965 69.6748 145.506 69.3504C145.182 69.3504 144.534 69.6748 145.02 69.837Z" fill="white"/>
<path d="M163.013 62.3767C163.499 62.8633 163.985 63.3498 164.31 63.8364C164.472 63.9985 165.12 63.6742 164.958 63.512C164.472 63.0255 163.985 62.5389 163.661 62.0524C163.661 61.8902 162.851 62.2146 163.013 62.3767Z" fill="white"/>
<path d="M432.121 323.457C446.062 339.189 449.466 362.056 439.578 380.706C429.528 399.844 407.806 410.547 386.571 406.979C366.471 403.574 349.937 388.004 345.56 368.056C341.021 347.135 350.423 324.917 368.902 314.051C389.489 301.725 415.911 306.266 432.121 323.457C432.608 323.944 433.418 322.971 432.932 322.646C418.181 306.915 395 301.401 374.9 309.996C355.448 318.268 342.804 338.053 343.291 358.974C343.777 381.031 359.014 400.817 380.087 406.979C400.674 412.98 423.206 405.358 436.012 388.167C450.763 368.543 449.142 340.81 432.932 322.646C432.608 322.16 431.797 322.971 432.121 323.457Z" fill="white"/>
<path d="M349.288 335.134C356.421 341.297 373.927 354.596 382.032 342.432C388.516 332.701 374.09 322.809 365.985 321.349C355.61 319.565 353.665 327.836 359.338 335.296C362.094 339.026 368.902 344.216 374.252 342.432C376.521 341.621 377.169 340 376.683 337.729C376.035 334.161 369.389 325.728 365.336 329.134C361.932 332.053 366.633 334.972 369.064 335.459C369.227 335.459 369.551 334.972 369.551 334.81C369.389 332.701 369.551 333.675 368.902 331.728C368.902 331.566 368.254 332.215 368.416 332.377C368.74 334.485 368.092 334.972 366.633 333.999C366.471 329.944 367.443 328.647 369.389 330.107C370.848 330.431 372.307 332.215 373.279 333.35C374.414 334.648 375.224 336.107 375.873 337.729C375.062 341.621 373.117 342.919 370.037 341.621C368.578 341.297 366.957 340.648 365.66 339.837C362.094 337.729 359.014 334.485 357.555 330.431C355.934 326.052 357.069 322.484 362.256 321.673C364.526 321.349 367.443 322.322 369.551 323.133C373.279 324.43 376.521 326.701 379.115 329.62C384.14 335.296 384.788 344.703 374.9 346.162C365.823 347.622 356.259 339.675 349.775 334.323C349.613 334.323 349.126 334.972 349.288 335.134Z" fill="white"/>
<path d="M345.074 366.759C353.017 359.948 364.688 357.353 374.576 361.732C379.601 364.002 384.14 368.057 385.437 373.571C387.382 381.842 381.87 393.843 372.469 394.005C367.606 394.167 363.067 391.41 360.311 387.518C358.69 385.247 357.069 382.166 356.583 379.409C355.448 372.273 360.311 370.003 365.66 370.003C370.199 370.003 375.224 370.489 377.818 374.706C380.898 379.733 377.656 387.031 371.172 387.031C369.875 387.031 368.578 386.707 367.443 386.058C364.364 384.112 365.174 383.139 369.875 382.815C369.875 383.139 370.523 382.653 370.523 382.328C370.361 378.76 365.66 377.625 364.526 381.193C363.067 385.572 368.902 388.167 372.306 387.518C376.197 386.869 379.439 383.788 379.763 379.733C380.411 372.435 373.927 369.354 367.768 369.192C363.067 369.03 357.393 369.354 356.097 374.706C354.476 380.869 359.014 388.653 364.039 392.059C376.359 400.492 388.679 386.221 386.409 373.733C384.95 365.462 376.521 360.11 368.74 358.975C360.149 357.677 351.72 360.434 345.236 365.948C344.75 366.435 344.587 367.083 345.074 366.759Z" fill="white"/>
<path d="M358.69 345.514C359.339 347.46 361.122 348.595 363.067 348.433C363.391 348.433 363.715 347.622 363.229 347.622C361.446 347.784 359.825 346.649 359.176 345.027C359.176 344.703 358.528 345.189 358.69 345.514Z" fill="white"/>
<path d="M254.791 259.277C254.467 287.82 236.636 314.093 209.242 323.5C181.523 333.068 150.075 322.527 132.893 298.848C117.331 277.441 115.71 248.087 128.84 225.057C144.077 198.46 176.011 185.161 205.513 193.594C234.853 202.19 254.467 229.274 254.791 259.277C254.791 259.601 256.575 259.277 256.575 258.79C256.25 228.625 236.312 201.379 207.134 192.946C181.198 185.485 152.507 194.081 134.838 214.353C114.9 237.383 112.63 271.927 129.651 297.227C145.536 320.905 175.039 332.257 202.758 325.77C234.043 318.472 256.088 290.577 256.575 258.628C256.737 258.466 254.954 258.79 254.791 259.277Z" fill="white"/>
<path d="M217.184 199.757C217.346 211.11 223.993 220.192 230.152 229.112C237.933 240.626 245.714 252.303 253.495 263.818C253.819 264.304 255.602 263.818 255.278 263.007C248.47 252.79 241.499 242.572 234.691 232.355C228.045 222.3 219.292 212.083 219.13 199.433C219.13 198.784 217.184 199.108 217.184 199.757Z" fill="white"/>
<path d="M186.548 191.973C191.897 209.001 202.433 224.408 213.294 238.356C224.479 252.952 237.285 266.088 251.225 277.927C251.712 278.414 253.495 277.603 253.008 277.117C239.554 265.764 227.234 253.114 216.374 239.167C205.189 224.733 194.004 208.839 188.493 191.324C188.169 190.837 186.385 191.324 186.548 191.973Z" fill="white"/>
<path d="M152.182 201.217C160.287 221.814 175.363 239.329 189.952 255.871C204.378 272.413 221.885 285.712 241.661 295.118C242.31 295.443 243.931 294.47 243.12 294.145C223.344 284.739 205.999 271.602 191.573 255.06C177.146 238.518 162.07 221.165 153.966 200.73C153.641 199.919 151.858 200.406 152.182 201.217Z" fill="white"/>
<path d="M126.895 226.841C156.721 260.412 191.735 290.253 234.043 306.795C234.529 306.957 236.15 306.309 235.502 305.984C193.356 289.442 158.342 259.601 128.516 226.03C128.354 225.706 126.571 226.355 126.895 226.841Z" fill="white"/>
<path d="M119.114 255.547C150.399 281.82 186.223 302.092 224.965 315.229C225.451 315.391 227.072 314.742 226.424 314.418C187.844 301.281 152.02 281.009 120.735 254.736C120.411 254.412 118.628 255.222 119.114 255.547Z" fill="white"/>
<path d="M125.436 290.091C151.048 306.957 179.577 318.634 209.566 324.635C210.214 324.797 211.673 323.662 210.7 323.5C180.874 317.499 152.507 305.822 126.895 289.118C126.247 288.793 124.626 289.604 125.436 290.091Z" fill="white"/>
<path d="M132.082 287.496C138.89 291.388 145.861 294.794 153.155 297.713C153.641 297.875 155.262 297.227 154.614 296.902C147.32 294.145 140.349 290.74 133.703 286.847C133.379 286.523 131.758 287.172 132.082 287.496Z" fill="white"/>
<path d="M155.586 292.199C157.207 293.172 158.666 293.983 160.287 294.956C160.774 295.281 162.557 294.47 161.746 293.983C160.125 293.01 158.666 292.199 157.045 291.226C156.559 290.902 154.776 291.713 155.586 292.199Z" fill="white"/>
<path d="M141.322 262.683C143.753 264.467 146.023 266.088 148.454 267.872C149.103 268.359 150.724 267.548 149.913 266.899C147.482 265.115 145.212 263.494 142.781 261.71C142.132 261.223 140.511 262.034 141.322 262.683Z" fill="white"/>
<path d="M187.196 293.659C188.979 294.632 190.924 295.443 192.707 296.416C193.194 296.578 194.815 295.929 194.166 295.605C192.383 294.632 190.438 293.821 188.655 292.848C188.169 292.686 186.548 293.334 187.196 293.659Z" fill="white"/>
<path d="M182.981 270.305C183.468 270.467 183.954 270.954 184.116 271.44C184.44 272.251 186.385 271.765 185.899 270.954C185.575 269.981 184.927 269.332 183.954 269.008C183.306 268.683 182.009 269.819 182.981 270.305Z" fill="white"/>
<path d="M151.858 221.814C155.262 226.517 158.504 231.22 161.908 235.923C162.395 236.572 164.178 235.923 163.692 235.112C160.287 230.409 157.046 225.706 153.641 221.003C153.155 220.516 151.372 221.165 151.858 221.814Z" fill="white"/>
<path d="M213.132 287.009C216.05 288.631 218.967 290.253 221.885 291.713C222.372 292.037 223.992 291.226 223.668 291.064C220.75 289.442 217.833 287.82 214.915 286.361C214.429 286.036 212.808 286.685 213.132 287.009Z" fill="white"/>
<path d="M220.264 273.873C222.047 275.008 223.668 276.306 225.452 277.441C225.776 277.765 227.397 276.954 227.235 276.792C225.451 275.657 223.83 274.359 222.047 273.224C221.561 273.062 220.102 273.711 220.264 273.873Z" fill="white"/>
<path d="M175.687 224.895C177.308 227.003 178.767 229.112 180.388 231.22C180.712 231.706 182.495 231.058 182.171 230.571C180.55 228.463 179.091 226.355 177.47 224.246C177.146 223.76 175.363 224.408 175.687 224.895Z" fill="white"/>
<path d="M199.678 205.92C200.65 206.893 201.461 208.028 202.433 209.001C202.758 209.326 204.541 208.677 204.216 208.353C203.244 207.38 202.433 206.244 201.461 205.271C201.137 204.785 199.353 205.433 199.678 205.92Z" fill="white"/>
<path d="M236.798 257.331C238.582 259.115 240.527 260.736 242.796 262.034C243.282 262.358 244.741 261.547 244.579 261.385C242.472 260.088 240.365 258.466 238.581 256.682C238.257 256.358 236.636 257.006 236.798 257.331Z" fill="white"/>
<path d="M236.474 226.517C237.285 227.652 237.933 228.625 238.744 229.76C239.068 230.247 240.851 229.598 240.527 229.112C239.716 227.976 239.068 227.003 238.257 225.868C237.933 225.381 236.15 226.03 236.474 226.517Z" fill="white"/>
<path d="M211.187 250.195C211.511 250.519 211.997 251.006 212.321 251.33C212.808 251.817 214.591 251.168 214.105 250.519C213.78 250.195 213.294 249.708 212.97 249.384C212.321 249.06 210.7 249.708 211.187 250.195Z" fill="white"/>
<path d="M181.522 324.148C182.657 324.148 183.63 324.635 184.602 325.121C185.251 325.608 187.358 324.635 186.385 323.986C185.251 323.175 183.792 322.851 182.333 322.689C181.847 322.689 181.036 322.851 180.874 323.338C180.712 323.824 181.198 324.148 181.522 324.148Z" fill="white"/>
<path d="M201.623 315.877C203.406 316.688 205.351 317.499 207.134 318.31C207.458 318.472 207.945 318.31 208.269 318.148C208.269 318.148 209.079 317.823 208.755 317.661C206.972 316.85 205.027 316.039 203.244 315.229C202.92 315.066 202.433 315.229 202.109 315.391C202.109 315.229 201.299 315.715 201.623 315.877Z" fill="white"/>
<path d="M216.374 190.837C220.102 191 222.372 194.73 225.938 195.703C227.559 196.189 229.666 195.541 230.801 196.676C231.935 197.811 232.098 199.757 233.07 200.892C233.719 201.703 235.988 200.73 235.177 199.919C233.881 198.46 233.719 196.189 232.26 194.892C231.125 194.081 230.152 194.243 228.855 194.081C224.317 193.757 221.885 189.378 217.184 189.053C216.05 189.053 214.753 190.675 216.374 190.837Z" fill="white"/>
<path d="M222.534 187.756C223.506 190.189 226.1 191.162 228.531 191.973C229.342 192.135 231.287 191 229.99 190.675C228.045 190.026 225.776 189.216 224.965 187.269C224.479 186.296 222.209 186.945 222.534 187.756Z" fill="white"/>
<path d="M110.523 273.711C109.875 275.819 109.712 277.279 111.009 279.225C112.306 281.009 111.496 283.279 113.441 285.063C114.089 285.712 116.359 284.901 115.548 284.09C114.738 283.279 114.251 282.306 114.251 281.171C114.251 280.36 114.575 279.711 114.089 279.063C113.603 278.252 112.63 278.09 112.468 277.117C112.144 275.981 112.63 274.846 112.954 273.711C113.117 272.575 110.847 272.738 110.523 273.711Z" fill="white"/>
<path d="M106.146 284.09C106.308 285.063 106.795 285.874 107.443 286.685C108.091 287.334 110.199 286.523 109.55 285.712C108.902 285.063 108.578 284.415 108.416 283.604C108.253 282.631 105.984 283.279 106.146 284.09Z" fill="white"/>
<path d="M196.274 335.825C198.057 333.555 200.164 332.257 203.082 333.717C203.73 334.041 204.216 334.366 205.027 334.528C206.162 334.852 207.458 334.69 208.593 334.528C209.728 334.203 211.025 333.717 211.835 332.906C212.808 332.095 212.97 329.825 213.942 329.338C213.456 329.5 212.808 329.5 212.321 329.662C212.483 329.662 212.646 329.825 212.808 329.825C213.294 329.987 215.401 329.176 214.591 328.852C213.618 328.527 212.483 328.527 211.673 329.338C211.187 329.662 211.349 330.149 211.025 330.636C209.728 332.582 212.646 331.284 207.945 332.419C203.568 333.393 206.324 333.068 204.216 332.419C199.678 331.122 197.084 332.257 194.166 336.15C193.68 336.636 195.949 336.312 196.274 335.825Z" fill="white"/>
<path d="M202.271 339.393C204.216 339.555 206.324 339.555 208.269 339.069C208.593 339.069 209.404 338.744 209.242 338.258C209.079 337.771 208.269 337.934 207.945 338.096C206.486 338.42 205.027 338.582 203.73 338.42C203.244 338.42 202.433 338.42 202.109 338.907C201.785 338.907 201.623 339.231 202.271 339.393Z" fill="white"/>
<path d="M261.438 267.224C261.438 269.332 262.086 271.278 262.41 273.386C262.572 275.657 262.248 277.927 261.438 280.198C261.275 280.847 263.545 280.522 263.707 279.874C264.355 277.927 264.68 275.819 264.68 273.873C264.68 271.44 263.707 269.17 263.707 266.737C263.707 265.926 261.438 266.413 261.438 267.224Z" fill="white"/>
<path d="M139.052 201.703C140.673 201.055 141.484 199.919 142.619 198.622C144.726 195.703 147.319 195.216 150.723 195.216C151.372 195.216 153.155 194.243 151.696 194.243C149.103 194.243 146.347 194.405 144.077 195.541C143.105 196.027 142.294 196.676 141.484 197.487C140.511 198.622 139.701 200.568 138.242 201.217C136.621 201.703 138.08 202.19 139.052 201.703Z" fill="white"/>
<path d="M82.9357 420.63C82.7736 438.307 71.7508 454.688 54.8925 460.688C37.7099 466.851 18.0959 460.526 7.23519 446.092C-2.97708 432.631 -4.11176 413.656 4.31742 399.06C13.7192 382.842 32.8469 374.571 51.0021 379.437C69.8056 384.14 82.6115 401.493 82.9357 420.63C82.9357 420.792 84.2325 420.63 84.2325 420.306C84.0704 401.493 71.7508 384.788 53.7578 379.274C37.2236 374.247 18.5822 379.761 7.39735 392.897C-4.76011 407.169 -6.05691 428.415 4.15536 444.146C14.0434 459.229 32.3607 466.364 49.8674 462.634C69.6436 458.255 83.9083 440.578 84.0704 420.468C84.2325 420.143 82.9357 420.306 82.9357 420.63Z" fill="white"/>
<path d="M15.0161 385.924C6.91116 381.058 -2.00437 376.517 -11.7303 376.68C-14.8102 376.68 -20.1595 377.166 -22.591 379.274C-25.1846 381.545 -24.5362 383.167 -23.7257 386.735C-19.0248 407.818 -0.545502 425.171 14.5298 439.281C30.4155 454.201 48.8949 467.175 69.9678 473.014C74.6687 474.311 84.5567 478.203 86.664 471.23C89.2576 462.959 79.0454 451.93 75.155 445.768C74.9929 445.443 74.0203 445.768 74.3445 446.254C76.776 450.147 79.3696 454.039 81.8011 457.931C82.9358 459.877 84.2326 461.823 85.043 463.932C86.664 468.148 86.664 469.121 82.6116 471.879C78.5591 474.636 77.1002 473.987 72.7235 472.852C70.6162 472.365 68.5089 471.716 66.4016 471.068C62.8354 469.932 59.4314 468.635 56.0273 467.013C40.1415 459.877 26.2009 449.173 13.7193 437.172C2.85859 426.793 -8.16416 415.602 -15.9449 402.628C-20.4837 395.168 -29.2371 378.788 -13.9997 377.328C-3.78745 376.355 5.77646 381.221 14.2056 386.248C14.6919 386.735 15.5024 386.248 15.0161 385.924Z" fill="white"/>
<path d="M-7.51577 383.004C-4.76008 382.518 -2.00443 382.68 0.751264 383.329C0.913363 383.329 1.72386 383.004 1.56176 383.004C-1.35603 382.194 -4.27382 382.031 -7.35371 382.68C-7.67791 382.842 -8.16417 383.167 -7.51577 383.004Z" fill="white"/>
<path d="M-4.59807 374.409C-2.00448 374.571 0.427011 375.22 2.6964 376.355C3.0206 376.517 3.8311 376.031 3.5069 375.869C1.07541 374.571 -1.51816 373.76 -4.27385 373.76C-4.76015 373.598 -5.24647 374.409 -4.59807 374.409Z" fill="white"/>
<path d="M56.8377 473.825C60.7281 476.257 65.429 476.744 69.8057 475.284C70.4541 475.122 70.1298 474.311 69.6435 474.636C65.591 476.095 61.3765 475.609 57.6482 473.338C57.1619 473.014 56.3514 473.5 56.8377 473.825Z" fill="white"/>
<path d="M84.5567 451.282C86.0156 452.741 87.1503 454.525 87.4745 456.472C87.4745 456.796 88.4471 456.472 88.4471 456.147C87.9608 454.039 86.9882 452.255 85.3672 450.795C85.2051 450.633 84.3946 451.12 84.5567 451.282Z" fill="white"/>
<path d="M74.0203 456.472C75.9655 457.931 77.2623 460.202 77.5865 462.634C77.5865 462.959 78.559 462.634 78.559 462.31C78.2348 459.715 76.9381 457.607 74.9929 455.985C74.6687 455.985 73.8582 456.309 74.0203 456.472Z" fill="white"/>
<path d="M36.089 378.139C36.7374 385.113 42.4108 388.032 47.598 391.438C51.4884 394.033 54.4062 396.79 55.0546 401.493C55.7029 405.223 54.7304 409.115 55.0546 412.845C55.5409 419.495 59.4312 422.09 63.97 425.982C67.3741 428.901 69.1572 432.469 71.5887 436.037C71.7508 436.361 76.938 441.389 76.938 440.74C76.938 440.254 75.9654 440.578 75.9654 441.065C75.9654 441.227 75.9654 441.227 75.9654 441.389C75.9654 441.551 76.2896 441.551 76.4517 441.551C76.6138 441.551 76.7759 441.551 76.938 441.551C77.1001 441.551 77.4244 441.389 77.4244 441.227C77.4244 440.416 76.938 440.578 76.7759 440.091C76.6138 438.956 72.3993 435.55 71.4267 434.091C70.6162 432.793 69.8057 431.496 68.9952 430.199C63.9701 423.063 55.865 420.792 55.865 410.737C55.865 405.061 56.9998 399.385 52.9473 394.681C47.598 388.519 37.5479 387.221 36.8995 377.653C37.0616 377.49 36.089 377.653 36.089 378.139Z" fill="white"/>
<path d="M16.6371 386.086C24.0937 389.167 25.7146 396.79 28.1461 403.601C30.4155 409.926 33.8196 413.818 39.9794 416.738C42.735 418.035 45.815 419.17 48.4085 420.954C51.8126 423.225 53.5957 426.468 55.8651 429.874C57.1619 431.82 58.4587 433.604 60.7281 434.74C64.9427 436.686 69.9678 434.577 73.3719 438.956C73.534 439.118 74.3445 438.794 74.3445 438.632C72.7235 436.523 70.9404 435.875 68.5089 435.388C62.9975 434.253 60.4039 434.577 56.9998 429.55C52.6231 423.387 50.0295 420.468 42.8971 417.224C34.9543 413.656 31.226 408.791 28.4703 400.52C26.363 394.357 24.0936 388.356 17.9339 385.761C17.2855 385.599 16.6371 385.924 16.6371 386.086Z" fill="white"/>
<path d="M0.751253 405.71C11.9361 405.385 15.9887 416.251 21.5001 423.874C25.5526 429.55 30.9018 433.442 37.71 435.064C45.3287 436.686 51.4884 436.037 56.9998 442.524C58.2966 443.984 59.4313 445.443 61.3765 446.092C64.9427 447.389 68.5089 444.795 71.7509 448.038C71.913 448.2 72.8856 447.876 72.7235 447.714C71.2646 446.254 70.1299 446.092 68.1847 445.768C64.9427 445.119 62.187 445.93 59.1071 443.335C57.8103 442.2 57.1619 440.578 56.0272 439.443C50.3538 434.091 42.4108 436.199 35.6026 433.604C26.0388 430.036 22.3105 422.414 16.7991 414.629C12.9088 409.277 8.04581 405.061 1.23763 405.223C0.751332 405.223 0.102855 405.71 0.751253 405.71Z" fill="white"/>
<path d="M0.102854 425.982C9.18043 426.955 14.0434 434.415 20.5274 439.767C24.904 443.335 29.2808 444.795 34.9543 444.795C40.7898 444.795 45.6528 444.632 51.002 447.714C53.9198 449.498 56.6756 451.768 59.7555 453.552C61.5385 454.525 64.1321 456.472 65.591 454.363C65.9152 453.877 65.1047 453.714 64.7805 454.039C63.3216 455.985 51.0021 446.579 49.219 445.768C42.8971 442.848 36.4131 445.281 29.767 443.659C17.9338 440.74 12.9087 426.793 0.427073 425.333C-0.0592257 425.333 -0.545544 425.982 0.102854 425.982Z" fill="white"/>
<path d="M7.23524 447.389C17.4475 443.822 25.0662 454.85 34.1438 456.309C35.6027 456.471 36.7374 456.309 38.1963 456.147C41.4383 455.823 45.6529 455.174 48.7328 455.823C51.4885 456.309 54.4063 458.255 56.8377 459.553C56.9998 459.715 57.8103 459.229 57.8103 459.229C53.9199 457.12 49.8674 454.688 45.3286 454.688C43.0592 454.688 43.2214 455.012 41.1141 455.174C34.468 455.823 33.4954 455.498 28.1461 452.904C21.5 449.498 14.6919 444.47 6.91112 447.065C6.26272 447.389 6.91104 447.552 7.23524 447.389Z" fill="white"/>
<path d="M55.3788 381.22C58.7829 384.951 62.8354 389.329 64.7806 394.033C66.5637 398.087 65.429 402.628 67.5363 406.683C69.1573 409.602 71.5888 411.71 73.6961 414.143C77.1002 418.035 79.6937 422.252 81.801 426.793C81.9631 427.117 82.9358 426.793 82.7737 426.468C80.9906 422.738 79.0454 419.17 76.4518 415.927C73.534 412.197 69.1574 409.115 67.6985 404.574C66.0775 400.195 67.2121 395.979 64.7806 391.762C62.5112 387.708 59.2693 384.14 56.3515 380.734C56.0273 380.572 55.0546 380.896 55.3788 381.22Z" fill="white"/>
<path d="M64.7805 410.737C64.6184 411.872 64.7805 413.008 65.4289 413.981C65.591 414.305 66.4015 413.818 66.4015 413.656C65.7531 412.683 65.5911 411.548 65.7532 410.413C65.7532 410.251 64.9426 410.413 64.7805 410.737Z" fill="white"/>
<path d="M49.7053 404.899C50.1916 405.709 50.3538 406.52 50.3538 407.331C50.3538 407.656 51.3263 407.493 51.3263 407.169C51.3263 406.196 51.1643 405.223 50.678 404.412C50.3538 404.25 49.5432 404.574 49.7053 404.899Z" fill="white"/>
<path d="M34.6301 387.708C35.2785 388.356 35.9269 389.005 36.5753 389.654C36.8995 389.978 37.71 389.492 37.3858 389.167C36.7374 388.519 36.089 387.87 35.4406 387.221C35.2785 387.059 34.3059 387.383 34.6301 387.708Z" fill="white"/>
<path d="M20.2032 397.276C20.6895 397.763 21.0138 398.411 21.5001 398.898C21.6622 399.06 22.6347 398.736 22.4726 398.574C21.9863 398.087 21.6622 397.438 21.1759 396.952C20.8517 396.79 20.0411 397.114 20.2032 397.276Z" fill="white"/>
<path d="M12.9087 419.657C13.7192 420.63 14.5298 421.603 15.1781 422.738C15.3402 423.063 16.3128 422.738 15.9886 422.414C15.3402 421.279 14.5297 420.306 13.7192 419.333C13.5571 419.008 12.5845 419.333 12.9087 419.657Z" fill="white"/>
<path d="M33.9817 439.118C35.6027 440.254 37.71 440.416 39.4931 439.767C40.1415 439.443 39.4931 439.443 39.1689 439.605C37.71 440.254 36.089 439.767 34.7922 438.956C34.6301 438.632 33.8196 438.956 33.9817 439.118Z" fill="white"/>
<path d="M47.5981 433.766C48.0844 433.604 48.4086 433.766 48.7328 434.091C48.8949 434.253 49.7053 433.929 49.7053 433.766C49.0569 433.28 48.2465 433.28 47.5981 433.442C46.9497 433.604 46.9497 433.929 47.5981 433.766Z" fill="white"/>
<path d="M60.8902 439.929C61.0523 441.064 62.1869 441.551 63.1595 441.389C63.6458 441.389 63.9701 440.74 63.3217 440.74C62.5112 440.902 62.0249 440.254 61.8628 439.605C61.8628 439.281 60.8902 439.605 60.8902 439.929Z" fill="white"/>
<path d="M38.6825 449.498C39.3309 449.336 39.9794 449.173 40.6278 448.849C41.1141 448.687 41.1141 448.363 40.6278 448.525C39.9794 448.687 39.3309 448.849 38.6825 449.173C38.0341 449.336 38.1962 449.66 38.6825 449.498Z" fill="white"/>
<path d="M8.53211 443.497C9.18051 443.173 9.82887 443.497 10.3152 443.984C10.4773 444.146 11.2877 443.822 11.2877 443.659C10.4772 442.686 8.85627 442.848 7.88367 443.497C7.39737 443.822 8.37001 443.659 8.53211 443.497Z" fill="white"/>
<path d="M-0.869726 445.606C0.42707 448.2 2.04807 450.471 3.99326 452.579C4.31746 452.904 5.29006 452.579 4.80376 452.093C2.85856 449.984 1.07547 447.714 -0.0592286 445.119C-0.221328 444.795 -1.19393 445.281 -0.869726 445.606Z" fill="white"/>
<path d="M-2.65275 448.849C-2.16645 450.471 -1.35599 451.768 -0.0591941 452.904C0.265005 453.228 1.07554 452.741 0.589244 452.417C-0.545453 451.444 -1.19389 450.147 -1.68019 448.687C-1.84229 448.2 -2.81485 448.363 -2.65275 448.849Z" fill="white"/>
<path d="M73.3719 385.437C74.8308 386.897 76.2896 388.518 77.7485 389.978C78.0727 390.302 78.8832 389.978 78.559 389.492C77.1001 388.032 75.6413 386.41 74.1824 384.951C74.0203 384.788 73.0477 385.113 73.3719 385.437Z" fill="white"/>
<path d="M75.8034 384.788C76.776 385.924 77.7485 387.221 78.7211 388.356C78.8832 388.681 79.8558 388.356 79.5316 388.032C78.559 386.897 77.5865 385.599 76.6139 384.464C76.4518 384.14 75.4792 384.464 75.8034 384.788Z" fill="white"/>
<path d="M16.9612 305.645C16.9612 305.321 10.8015 308.078 10.1531 308.727C8.37001 310.348 7.55943 312.619 7.23523 314.889C6.42474 319.268 5.12798 329.972 8.69417 333.216C9.18047 333.702 10.3151 333.378 10.8014 333.54C16.4749 335.973 15.0161 334.675 17.9339 337.919C19.8791 340.189 21.5 341.649 24.5799 342.135C31.3881 343.433 39.1689 338.567 44.6803 335.324C50.3538 331.918 56.9999 327.053 58.783 320.079C60.5661 312.943 55.703 307.267 49.7053 304.186C45.8149 302.077 41.4383 301.104 37.5479 299.32C34.468 298.023 30.2534 293.644 27.1736 292.995C21.8243 292.022 18.5822 302.077 16.7991 305.321C16.3128 306.294 18.2581 306.132 18.7444 305.483C20.2033 303.05 21.6621 299.482 23.6073 297.374C27.6598 293.157 27.984 295.752 31.3881 298.023C35.6027 300.78 40.3036 301.915 44.8423 303.699C51.0021 306.294 57.9725 310.673 57.162 318.457C56.5136 324.944 50.678 329.972 45.4908 333.216C38.5205 337.757 27.3357 344.568 19.8791 337.108C17.2855 334.513 16.475 333.378 13.3951 332.08C9.01841 330.134 9.18045 331.269 9.18045 326.728C9.18045 324.458 9.18045 322.187 9.18045 319.917C9.18045 314.403 9.01833 311.321 15.3402 307.916C15.9886 307.591 17.7718 307.429 18.7444 306.943C19.0686 306.78 19.3927 306.456 19.2306 306.132C19.2306 305.807 19.2306 305.483 19.2306 305.159C18.9064 304.348 16.9612 304.834 16.9612 305.645Z" fill="white"/>
<path d="M23.4452 307.105C22.4726 310.186 18.9065 310.511 17.1234 312.781C15.6645 314.565 15.1781 316.835 15.3402 318.944C15.5023 322.674 17.9339 323.16 20.6896 321.214C23.1211 319.593 25.3904 318.133 27.8219 316.511C29.2808 315.538 30.2534 314.403 30.7397 312.619C31.226 310.511 30.4155 306.943 28.6324 305.645C27.1735 304.348 26.5251 305.159 24.9041 305.645C24.2557 305.807 24.4178 306.456 25.0662 306.294C27.3356 305.645 28.7945 307.105 29.605 309.375C30.4155 312.132 29.605 314.403 27.3356 316.025C26.363 316.835 25.0663 317.322 23.9316 317.971C22.7969 318.619 21.5001 320.079 20.3654 320.566C19.8791 321.214 19.0686 321.052 18.2581 320.403C16.7992 320.728 16.1507 320.403 16.4749 319.268C16.3128 318.619 16.4749 317.646 16.4749 316.998C16.7991 314.403 18.096 312.457 20.3654 311.159C22.1484 310.024 23.9315 309.375 24.5799 307.105C24.5799 306.78 23.6073 306.618 23.4452 307.105Z" fill="white"/>
<path d="M26.0389 313.105C26.0389 313.43 25.8768 314.078 25.5526 314.078C25.3905 314.078 24.4179 314.403 24.9042 314.565C25.8768 314.565 27.1736 314.078 27.1736 312.943C27.0115 312.619 26.0389 312.781 26.0389 313.105Z" fill="white"/>
<path d="M25.0662 301.429C25.5525 301.266 25.8767 301.428 26.363 301.591C26.5251 301.591 26.8493 301.591 27.0114 301.591C27.0114 301.591 27.4977 301.428 27.3356 301.266C26.6872 300.942 26.0388 300.942 25.3904 301.104C24.9041 301.104 24.4178 301.591 25.0662 301.429Z" fill="white"/>
<path d="M37.0616 306.943C36.089 307.429 35.2785 308.402 35.4406 309.537C35.6027 311.159 37.3858 311.321 38.1963 312.294C39.331 313.43 40.1415 314.565 41.7625 314.727C42.573 314.727 43.5456 314.565 44.194 314.078C46.6255 312.294 45.3287 309.051 43.3835 307.591C42.2488 306.78 38.8447 304.834 37.71 306.618C37.5479 306.943 38.5204 306.78 38.6825 306.618C39.1688 305.807 42.8971 308.402 43.2213 308.727C44.356 309.862 45.4907 312.619 43.7076 313.754C42.8971 314.403 41.4382 314.241 40.7898 313.754C40.4656 313.592 40.1414 313.268 39.9793 312.943C39.493 312.457 39.1689 311.646 38.5205 311.321C37.8721 310.835 37.0616 310.835 36.5753 310.024C36.089 308.889 37.0615 307.916 38.0341 307.429C38.3583 306.618 37.3858 306.78 37.0616 306.943Z" fill="white"/>
<path d="M34.1438 304.996C33.8196 305.645 33.6575 306.132 33.6575 306.943C33.6575 307.105 34.6301 306.943 34.6301 306.618C34.6301 305.97 34.7922 305.483 35.1164 304.834C35.1164 304.672 34.3059 304.672 34.1438 304.996Z" fill="white"/>
<path d="M47.7601 311.159C47.7601 311.484 47.7601 311.808 47.7601 312.132C47.7601 312.619 48.7328 312.294 48.7328 311.97C48.7328 311.646 48.7328 311.321 48.7328 310.997C48.7328 310.673 47.7601 310.835 47.7601 311.159Z" fill="white"/>
<path d="M30.9018 323.809C30.2534 322.836 29.1187 322.836 28.1461 323.323C26.8493 324.134 26.6872 325.918 26.6872 327.377C26.6872 328.837 27.0115 330.134 28.4703 330.783C29.2808 331.107 30.2534 331.107 31.0639 331.432C32.1986 331.756 32.685 332.729 33.6576 333.216C36.4132 334.189 38.3584 328.675 38.5205 326.891C38.6826 322.674 33.4954 322.674 30.7397 323.323C30.0913 323.485 30.2534 323.971 30.9018 323.809C33.6575 323.161 38.1963 323.485 37.5479 327.539C37.3858 328.675 36.7374 329.648 36.2511 330.621C35.9269 331.107 35.7648 331.756 35.2785 332.08C35.1164 332.567 34.7922 332.729 34.3059 332.243C33.8196 332.243 33.4954 331.918 33.3333 331.594C32.3607 330.945 31.3881 330.783 30.2534 330.621C28.9566 330.296 28.1462 329.648 27.9841 328.35C27.822 327.702 27.9841 326.891 27.9841 326.242C27.9841 325.755 28.6324 322.025 30.2534 324.296C30.2534 324.458 31.226 324.134 30.9018 323.809Z" fill="white"/>
<path d="M22.7969 326.728C22.7969 327.377 22.7969 328.026 22.7969 328.512C22.7969 328.999 23.7694 328.675 23.7694 328.35C23.7694 327.701 23.7694 327.053 23.7694 326.566C23.9315 326.242 22.7969 326.404 22.7969 326.728Z" fill="white"/>
<path d="M12.9087 325.593C12.5845 326.891 13.0709 328.026 14.0435 328.837C14.3677 328.999 15.1781 328.675 14.854 328.35C13.8814 327.701 13.5572 326.566 13.8814 325.593C13.8814 325.107 12.9087 325.269 12.9087 325.593Z" fill="white"/>
<path d="M31.8744 335.324C32.847 335.973 34.1438 335.648 35.1164 335C35.6027 334.675 34.468 334.837 34.3059 335C33.8196 335.324 33.3334 335.324 32.8471 335C32.5229 334.837 31.7123 335.162 31.8744 335.324Z" fill="white"/>
<path d="M46.7875 320.566C45.1665 320.89 44.8424 322.836 45.815 323.971C46.9497 325.431 48.7327 326.242 50.0295 324.62C50.84 323.647 52.6231 320.566 50.84 319.755C49.5432 319.106 47.1118 319.593 46.3013 320.728C45.9771 321.214 46.7876 321.377 47.1118 321.052C47.5981 320.403 48.8949 320.079 49.8675 320.403C50.678 320.728 50.6779 321.214 50.5158 321.863C50.3537 322.512 50.1917 322.998 49.8675 323.647C49.5433 324.134 49.057 325.107 48.2465 324.782C47.9223 324.62 47.4359 324.296 47.2738 323.971C46.7875 323.485 45.6529 321.539 47.1118 321.214C47.5981 321.052 47.4359 320.403 46.7875 320.566Z" fill="white"/>
<path d="M131.241 426.306C125.73 430.523 117.949 440.416 127.999 444.795C133.349 447.065 140.157 446.741 145.83 447.227C149.558 447.552 152.8 448.038 154.746 444.308C158.636 437.172 156.043 426.144 148.748 422.576C142.75 419.495 135.132 421.441 131.403 426.955C130.755 428.09 133.024 428.09 133.673 427.117C142.426 413.656 160.257 431.983 152.963 443.335C150.045 447.714 138.212 444.957 133.835 444.308C129.296 443.659 124.757 441.551 125.73 436.037C126.378 432.145 129.944 429.55 132.862 427.442C134.159 426.306 132.214 425.658 131.241 426.306Z" fill="white"/>
<path d="M130.107 432.145C129.62 432.956 128.161 434.253 128.323 435.388C128.486 436.361 129.458 436.848 130.269 437.01C132.376 437.659 134.159 436.848 135.618 435.226C136.266 434.577 137.239 433.929 136.753 432.793C136.428 431.82 135.294 431.658 134.321 431.334C133.673 431.172 133.349 430.523 132.538 430.523C131.566 430.523 130.917 431.334 130.431 432.145C130.107 432.631 131.241 432.631 131.565 432.307C132.376 431.172 132.7 432.145 133.511 432.307C134.807 432.469 136.266 432.793 134.97 434.577C134.645 435.064 133.835 435.713 133.349 436.037C132.376 436.523 131.566 436.848 130.593 436.361C129.458 435.875 129.458 435.388 129.944 434.253C130.269 433.604 130.755 432.956 131.241 432.307C131.565 431.82 130.269 431.82 130.107 432.145Z" fill="white"/>
<path d="M132.538 434.091C132.7 434.577 132.538 434.74 132.214 435.064C132.052 435.226 132.376 435.226 132.538 435.226C132.862 435.226 133.186 435.064 133.349 434.902C133.673 434.577 133.835 434.253 133.835 433.604C133.673 433.442 132.538 433.767 132.538 434.091Z" fill="white"/>
<path d="M137.725 426.144C136.753 426.631 136.428 427.442 137.401 428.09C138.049 428.577 139.022 428.415 139.67 428.901C140.481 429.388 140.967 430.036 141.778 430.523C142.912 431.172 144.047 431.496 145.182 432.307C145.83 432.793 146.316 433.118 146.965 433.118C147.937 433.28 149.072 432.956 149.883 432.145C151.342 430.685 150.693 428.901 149.721 427.279C148.424 425.171 146.803 425.495 144.696 424.522C143.075 423.711 142.102 423.063 140.157 423.549C138.698 424.036 137.725 424.847 137.239 426.144C137.077 426.468 138.212 426.306 138.374 425.982C139.346 423.711 141.778 424.036 143.723 425.009C144.695 425.495 145.668 425.495 146.479 425.82C147.775 426.306 148.586 427.442 149.072 428.739C149.721 430.199 149.883 433.604 146.317 431.983C145.668 431.658 145.344 431.009 144.696 430.685C143.723 430.199 142.75 430.199 141.94 429.388C141.454 428.739 139.022 426.144 138.049 426.468C138.86 426.144 138.211 425.982 137.725 426.144Z" fill="white"/>
<path d="M134.321 428.252C134.321 430.199 135.942 431.172 137.725 430.847C138.374 430.685 138.212 430.036 137.563 430.199C136.428 430.523 135.456 429.225 135.456 428.252C135.456 427.604 134.321 427.928 134.321 428.252Z" fill="white"/>
<path d="M139.508 431.983C139.995 432.307 140.319 432.631 140.481 433.118C140.805 433.604 141.94 433.118 141.616 432.631C141.291 432.145 140.967 431.658 140.319 431.334C139.833 431.009 138.86 431.658 139.508 431.983Z" fill="white"/>
<path d="M145.02 427.766C145.992 428.09 146.479 429.063 146.317 430.036C146.154 430.523 147.451 430.523 147.451 429.874C147.775 428.577 146.965 427.279 145.668 426.955C145.182 426.793 144.371 427.442 145.02 427.766Z" fill="white"/>
<path d="M141.291 436.524C139.184 436.199 135.78 437.334 137.077 440.091C137.725 441.551 139.346 442.038 140.805 442.038C142.102 442.2 143.561 441.875 144.858 442.038C145.992 442.2 146.965 442.686 148.1 442.686C150.693 442.524 151.828 439.767 149.883 437.821C148.424 436.361 146.965 436.848 145.182 436.686C143.399 436.524 142.102 435.875 140.157 436.361C139.508 436.524 139.67 437.172 140.319 436.848C141.778 436.523 143.723 437.334 145.182 437.334C146.479 437.334 147.775 437.01 148.748 438.145C150.045 439.443 150.207 441.551 147.127 441.713C146.479 441.713 145.506 441.227 144.696 441.227C144.047 441.227 143.561 441.227 142.912 441.227C141.778 441.227 140.805 441.227 139.67 440.74C138.049 439.929 136.428 436.361 140.481 436.848C140.967 437.172 141.94 436.686 141.291 436.524Z" fill="white"/>
<path d="M139.508 438.47C139.022 438.956 138.86 439.605 139.508 439.929C140.157 440.254 140.967 439.929 141.291 439.443C141.778 438.956 140.643 438.794 140.319 439.118C140.157 438.956 140.157 438.632 140.319 438.47C140.967 438.307 139.832 438.145 139.508 438.47Z" fill="white"/>
<path d="M147.289 440.091C147.289 440.416 148.424 440.254 148.424 439.929C148.424 439.929 148.424 439.929 148.424 439.767C148.586 439.605 147.289 439.767 147.289 440.091Z" fill="white"/>
<path d="M150.369 436.361C151.18 436.686 151.666 437.497 151.828 438.47C151.828 438.794 152.963 438.47 152.963 438.145C152.963 437.01 152.314 436.361 151.342 435.875C151.017 435.713 150.045 436.199 150.369 436.361Z" fill="white"/>
<path d="M130.593 441.713C130.755 442.2 131.079 442.524 131.565 442.849C131.89 443.011 132.862 442.524 132.538 442.362C132.052 442.2 131.89 441.875 131.728 441.389C131.728 441.227 130.593 441.551 130.593 441.713Z" fill="white"/>
<path d="M-15.7828 -47.9049C-25.6709 -18.064 -36.2074 11.7769 -45.447 41.9421C-48.0406 50.6998 -60.036 94.0016 -37.6663 88.3253C-29.2371 86.217 -26.4814 77.2971 -24.3741 69.9991C-19.6732 53.9434 -14.8102 38.0499 -9.62302 22.3185C0.589245 -8.49548 11.612 -38.8229 22.6347 -69.3126C22.9589 -69.9613 21.8243 -69.7991 21.6622 -69.3126C4.47961 -22.2807 -11.0819 24.9134 -26.1572 72.594C-27.6161 77.135 -29.5613 83.2978 -34.1001 85.8926C-41.8808 90.2715 -47.068 86.217 -49.0132 79.892C-50.6342 74.7023 -49.9858 68.7017 -49.3374 63.3498C-47.7164 51.1864 -43.6639 39.5095 -39.9356 27.9948C-31.5065 2.69486 -23.2394 -22.605 -14.8102 -48.0671C-14.486 -48.5537 -15.6207 -48.2293 -15.7828 -47.9049Z" fill="white"/>
<path d="M3.66916 12.4256C2.85866 16.48 2.04816 20.5345 1.23767 24.589C1.07557 25.2377 2.21018 24.9134 2.37228 24.4268C3.18278 20.3723 3.99328 16.3179 4.80378 12.2634C4.96588 11.6147 3.83126 11.939 3.66916 12.4256Z" fill="white"/>
<path d="M378.767 624.489C357.208 601.459 336.135 577.943 314.09 555.401C307.768 548.913 275.51 517.613 269.674 539.994C267.567 548.427 274.051 555.076 279.4 560.428C291.072 572.267 302.743 584.106 314.252 596.27C336.297 619.948 357.694 644.275 379.092 668.601C379.578 669.088 379.902 668.115 379.578 667.628C346.51 630.003 312.631 593.675 278.104 557.509C274.862 554.103 270.323 549.4 270.323 544.21C270.323 535.29 276.32 532.696 282.642 533.993C287.992 534.966 292.855 538.372 297.231 541.615C307.119 548.751 315.386 557.995 323.653 566.915C341.809 586.377 360.126 605.838 378.281 625.462C378.767 625.948 379.092 624.813 378.767 624.489Z" fill="white"/>
<path d="M381.037 654.978C370.987 643.139 360.126 632.111 348.617 621.732C348.293 621.407 348.131 622.543 348.455 622.867C359.964 633.246 370.824 644.275 380.875 656.114C381.199 656.438 381.361 655.303 381.037 654.978Z" fill="white"/>
<path d="M388.493 644.437C375.687 635.193 363.206 625.462 351.21 615.082C351.048 614.92 350.886 616.055 351.21 616.218C363.206 626.597 375.525 636.328 388.493 645.572C388.655 645.734 388.655 644.599 388.493 644.437Z" fill="white"/>
<path d="M294.476 544.697C295.772 547.454 297.069 551.508 294.476 553.779C293.179 554.914 291.234 555.401 289.613 555.887C286.695 556.536 283.939 556.211 281.183 555.238C281.021 555.238 280.859 556.374 281.346 556.374C283.939 557.347 286.533 557.671 289.288 557.185C291.072 556.86 294.8 555.725 295.772 553.941C296.421 552.968 296.097 550.697 296.097 549.562C295.935 547.454 295.286 545.508 294.476 543.724C294.476 543.237 294.476 544.372 294.476 544.697Z" fill="white"/>
<path d="M291.882 543.399C291.882 541.129 289.613 538.372 287.181 538.858C285.884 539.183 285.722 540.156 285.398 541.129C285.236 542.102 285.074 542.264 284.425 542.751C284.263 542.913 284.101 542.913 283.939 543.075C283.777 543.399 283.777 543.724 283.777 544.048C283.939 546.156 287.83 547.778 289.288 546.156C289.451 545.994 289.613 545.67 289.775 545.508C289.775 545.345 289.937 545.183 290.261 545.021C290.423 544.859 290.585 544.859 290.909 544.859C291.234 544.697 291.396 544.697 291.558 544.372C291.882 543.886 291.72 543.075 291.234 542.751C291.072 542.588 290.909 543.724 291.234 543.886C290.099 542.913 289.775 544.535 289.126 545.183C288.316 545.832 287.343 545.67 286.533 545.345C286.209 545.183 285.722 544.859 285.398 544.697C284.101 543.724 284.75 544.372 285.236 543.886C286.209 543.075 285.884 542.426 286.371 541.291C287.343 538.372 291.72 540.642 291.72 542.913C291.396 543.561 291.882 544.21 291.882 543.399Z" fill="white"/>
<path d="M279.562 539.345C278.914 538.372 277.779 537.561 276.483 537.723C275.996 537.723 275.834 537.885 275.51 538.372C275.348 538.534 275.51 538.696 275.348 538.858C274.862 539.669 274.537 539.345 273.889 539.669C271.782 540.48 273.078 543.561 273.889 544.859C275.348 546.805 278.104 546.967 278.914 544.372C279.4 542.751 279.887 539.183 277.293 539.02C276.969 539.02 276.969 540.156 277.455 540.156C277.617 540.156 277.942 540.318 278.104 540.318C278.266 540.967 278.59 541.777 278.752 542.426C278.752 542.751 278.59 543.237 278.428 543.561C278.104 544.372 277.779 545.021 276.807 545.183C276.158 545.345 275.51 545.021 275.024 544.697C274.699 544.534 274.537 544.21 274.213 543.886C273.727 543.237 273.565 542.913 273.727 541.94C273.727 540.318 274.213 541.129 275.186 540.642C275.51 540.48 275.51 540.318 275.834 539.993C276.483 539.183 276.645 538.858 277.617 539.183C278.266 539.507 278.914 539.994 279.4 540.48C279.562 540.804 279.725 539.669 279.562 539.345Z" fill="white"/>
<path d="M282.967 550.373C282.48 549.076 281.021 548.427 279.725 549.238C279.076 549.724 279.076 550.211 278.752 550.86C278.266 551.67 277.293 551.184 276.645 551.833C275.672 552.968 276.32 554.427 277.131 555.238C278.59 556.698 280.697 557.185 282.642 556.698C283.291 556.536 283.129 555.401 282.48 555.563C281.508 555.887 280.373 555.887 279.4 555.563C278.752 555.401 278.266 555.076 277.779 554.59C276.969 554.103 277.131 553.454 277.779 552.644C277.942 552.644 278.104 552.644 278.266 552.644C278.752 552.481 279.076 552.319 279.238 551.67C279.4 551.022 279.562 550.535 280.211 550.373C281.021 550.049 281.67 550.535 281.994 551.184C282.642 551.833 283.129 551.022 282.967 550.373Z" fill="white"/>
<path d="M282.804 551.022C283.129 551.346 283.291 551.508 283.615 551.833C283.939 551.995 284.101 552.157 284.425 552.481C284.75 552.806 284.75 552.806 284.75 553.292C284.75 553.779 284.425 554.427 284.263 554.914C284.101 555.401 284.101 555.887 284.101 556.536C284.101 557.185 284.588 557.185 284.588 556.536C284.588 555.238 285.56 553.779 285.074 552.481C284.75 551.508 283.615 551.022 282.967 550.211C282.804 549.724 282.642 550.86 282.804 551.022Z" fill="white"/>
<path d="M293.179 550.211C292.855 549.4 292.53 548.427 291.558 548.265C290.747 548.102 290.261 548.751 289.937 549.238C289.775 549.724 289.613 550.049 289.451 550.535C289.288 551.346 288.802 551.67 288.316 552.157C287.83 552.643 287.667 553.292 287.992 553.941C288.316 554.59 289.288 554.914 289.937 555.076C290.261 555.076 290.585 555.238 291.072 555.076C291.234 555.076 291.396 554.914 291.72 554.752C292.206 554.59 292.368 554.59 292.855 554.59C294.962 554.427 293.989 551.67 293.341 550.697C293.017 550.049 292.693 551.184 293.017 551.508C293.179 551.67 293.341 551.833 293.341 552.157C293.827 553.617 293.017 553.292 292.53 553.292C292.044 553.292 291.882 553.292 291.396 553.617C290.747 553.941 290.261 553.941 289.613 553.617C289.451 553.617 289.126 553.454 288.964 553.292C288.478 552.968 288.64 553.13 289.126 552.806C289.775 552.319 289.937 551.67 290.099 550.86C290.261 550.373 290.423 549.562 290.909 549.238C291.882 548.589 292.368 549.724 292.693 550.373C293.017 551.67 293.341 550.697 293.179 550.211Z" fill="white"/>
<path d="M304.526 556.374C313.928 566.266 323.654 575.835 333.704 585.241C334.19 585.728 334.514 584.593 334.028 584.106C324.14 574.862 314.414 565.293 305.012 555.4C304.526 555.076 304.202 556.049 304.526 556.374Z" fill="white"/>
<path d="M300.311 561.239C303.553 563.834 306.633 566.267 309.875 568.861C310.037 569.024 310.199 567.888 309.875 567.726C306.633 565.131 303.553 562.699 300.311 560.104C300.149 559.942 299.987 561.077 300.311 561.239Z" fill="white"/>
<path d="M292.368 562.861C296.097 566.591 299.825 570.321 303.553 574.051C304.04 574.538 304.202 573.402 303.877 572.916C300.149 569.186 296.421 565.456 292.693 561.726C292.368 561.401 292.044 562.536 292.368 562.861Z" fill="white"/>
<path d="M349.103 569.672C344.727 565.78 340.512 561.888 336.135 557.995C335.973 557.833 335.811 558.969 336.135 559.131C340.512 563.023 344.727 566.915 349.103 570.808C349.103 570.97 349.265 569.835 349.103 569.672Z" fill="white"/>
<path d="M358.019 582.971C356.884 582.484 355.911 581.673 355.263 580.7C355.101 580.376 354.939 581.511 355.101 581.836C355.911 582.971 356.722 583.62 358.019 584.268C358.181 584.268 358.343 583.133 358.019 582.971Z" fill="white"/>
<path d="M316.521 612.812C313.441 610.217 310.199 607.46 307.119 604.865C306.633 604.379 306.471 605.676 306.795 606C309.875 608.595 313.117 611.352 316.197 613.947C316.683 614.271 316.845 613.136 316.521 612.812Z" fill="white"/>
<path d="M332.407 631.949C331.434 631.138 330.462 630.489 329.489 629.678C329.327 629.516 329.165 630.652 329.489 630.814C330.462 631.625 331.434 632.273 332.407 633.084C332.569 633.246 332.731 632.111 332.407 631.949Z" fill="white"/>
<path d="M290.423 591.566C288.64 589.782 286.695 587.836 284.912 586.052C284.588 585.728 284.588 586.863 284.75 587.188C286.533 588.972 288.478 590.918 290.261 592.702C290.585 592.864 290.585 591.729 290.423 591.566Z" fill="white"/>
<path d="M274.7 524.911C266.432 524.587 260.597 531.398 261.407 539.345C261.407 539.994 262.056 539.994 261.894 539.345C261.083 531.722 267.243 525.722 274.7 526.046C275.186 526.046 275.024 524.911 274.7 524.911Z" fill="white"/>
<path d="M268.216 518.91C265.136 518.91 262.218 520.37 260.597 523.127C260.435 523.451 260.759 524.587 260.921 524.1C262.542 521.505 265.298 520.046 268.216 520.208C268.702 520.046 268.54 518.91 268.216 518.91Z" fill="white"/>
<path d="M188.72 128.243C184.182 133.919 179.481 139.433 174.942 145.11C174.456 145.758 176.401 145.596 176.887 145.11C181.426 139.433 186.127 133.919 190.666 128.243C191.152 127.594 189.045 127.756 188.72 128.243Z" fill="white"/>
<path d="M169.431 124.026C175.428 133.108 180.615 142.515 185.316 152.408C185.64 152.894 187.586 152.245 187.261 151.921C182.723 142.028 177.373 132.622 171.376 123.54C171.051 122.891 169.106 123.702 169.431 124.026Z" fill="white"/>
<path d="M181.912 122.729C180.939 131 179.805 139.433 178.832 147.704C178.67 148.515 180.777 148.029 180.777 147.38C181.75 139.109 182.885 130.676 183.857 122.405C184.019 121.756 181.912 122.08 181.912 122.729Z" fill="white"/>
<path d="M169.268 137.325C178.184 140.893 186.937 144.623 195.853 148.191C196.663 148.515 198.122 147.38 196.987 146.894C188.072 143.326 179.319 139.596 170.403 136.028C169.755 135.703 168.134 136.838 169.268 137.325Z" fill="white"/>
<path d="M105.954 342.135C102.064 347.001 98.0112 351.704 94.1208 356.569C93.6345 357.218 95.4176 357.056 95.7418 356.569C99.6322 351.704 103.685 347.001 107.575 342.135C108.061 341.487 106.278 341.649 105.954 342.135Z" fill="white"/>
<path d="M89.4199 338.405C94.6071 346.19 98.9838 354.299 103.036 362.732C103.198 363.219 104.981 362.57 104.819 362.246C100.929 353.812 96.3902 345.703 91.203 337.919C90.8788 337.594 89.2578 338.243 89.4199 338.405Z" fill="white"/>
<path d="M100.118 337.432C99.1459 344.568 98.3354 351.704 97.3628 358.84C97.2007 359.488 98.9837 359.164 99.1458 358.678C100.118 351.542 100.929 344.406 101.902 337.27C101.902 336.459 100.281 336.783 100.118 337.432Z" fill="white"/>
<path d="M89.4199 349.92C97.0385 353.001 104.657 356.083 112.276 359.164C112.924 359.488 114.221 358.515 113.249 358.029C105.63 354.947 98.0112 351.866 90.3925 348.785C89.7441 348.622 88.2852 349.596 89.4199 349.92Z" fill="white"/>
<path d="M199.485 467.337C195.595 472.203 191.543 476.906 187.652 481.771C187.166 482.42 188.949 482.258 189.273 481.771C193.164 476.906 197.216 472.203 201.106 467.337C201.593 466.851 199.81 467.013 199.485 467.337Z" fill="white"/>
<path d="M182.951 463.769C188.138 471.554 192.515 479.663 196.568 488.096C196.73 488.583 198.513 487.934 198.351 487.61C194.46 479.176 189.922 471.067 184.734 463.283C184.248 462.796 182.789 463.445 182.951 463.769Z" fill="white"/>
<path d="M193.65 462.634C192.677 469.77 191.867 476.906 190.894 484.042C190.732 484.69 192.515 484.366 192.677 483.879C193.65 476.744 194.46 469.608 195.433 462.472C195.433 461.823 193.65 462.148 193.65 462.634Z" fill="white"/>
<path d="M182.789 475.284C190.408 478.365 198.026 481.447 205.645 484.528C206.294 484.853 207.59 483.88 206.618 483.393C198.999 480.312 191.38 477.23 183.762 474.149C183.113 473.824 181.817 474.798 182.789 475.284Z" fill="white"/>
<path d="M346.347 500.097C342.457 504.963 338.404 509.666 334.514 514.531C334.028 515.18 335.811 515.018 336.135 514.531C340.025 509.666 344.078 504.963 347.968 500.097C348.455 499.611 346.672 499.773 346.347 500.097Z" fill="white"/>
<path d="M329.813 496.529C335 504.314 339.377 512.423 343.43 520.856C343.592 521.343 345.375 520.694 345.213 520.37C341.322 511.936 336.784 503.828 331.596 496.043C331.272 495.556 329.651 496.205 329.813 496.529Z" fill="white"/>
<path d="M340.512 495.556C339.539 502.692 338.729 509.828 337.756 516.964C337.594 517.613 339.377 517.288 339.539 516.802C340.512 509.666 341.322 502.53 342.295 495.394C342.295 494.583 340.674 494.908 340.512 495.556Z" fill="white"/>
<path d="M329.813 508.044C337.432 511.126 345.051 514.207 352.669 517.288C353.318 517.613 354.614 516.64 353.642 516.153C346.023 513.072 338.405 509.99 330.786 506.909C330.137 506.585 328.679 507.558 329.813 508.044Z" fill="white"/>
<path d="M325.038 20.0974C328.929 24.9628 332.981 29.666 336.872 34.5314C337.358 35.1801 335.575 35.0179 335.251 34.5314C331.36 29.666 327.308 24.9628 323.417 20.0974C322.931 19.6109 324.714 19.7731 325.038 20.0974Z" fill="white"/>
<path d="M341.573 16.5295C336.385 24.3141 332.009 32.423 327.956 40.8563C327.794 41.3429 326.011 40.6941 326.173 40.3698C330.064 31.9365 334.602 23.8275 339.789 16.0429C340.114 15.5564 341.735 16.2051 341.573 16.5295Z" fill="white"/>
<path d="M330.874 15.5565C331.847 22.6923 332.657 29.8282 333.63 36.9641C333.792 37.6128 332.009 37.2884 331.847 36.8019C330.874 29.666 330.063 22.5301 329.091 15.3943C329.091 14.5834 330.712 14.9077 330.874 15.5565Z" fill="white"/>
<path d="M341.573 28.0442C333.954 31.1256 326.335 34.207 318.716 37.2884C318.068 37.6128 316.771 36.6397 317.744 36.1532C325.363 33.0718 332.981 29.9904 340.6 26.909C341.248 26.5846 342.707 27.5577 341.573 28.0442Z" fill="white"/>
<path d="M184.734 366.462C180.844 371.327 176.791 376.031 172.901 380.896C172.415 381.545 174.198 381.382 174.522 380.896C178.412 376.031 182.465 371.327 186.355 366.462C186.841 365.975 185.058 366.138 184.734 366.462Z" fill="white"/>
<path d="M168.2 362.894C173.387 370.679 177.764 378.788 181.816 387.221C181.978 387.707 183.762 387.059 183.599 386.734C179.709 378.301 175.17 370.192 169.983 362.408C169.497 361.921 168.038 362.57 168.2 362.894Z" fill="white"/>
<path d="M178.899 361.759C177.926 368.895 177.115 376.031 176.143 383.166C175.981 383.815 177.764 383.491 177.926 383.004C178.899 375.868 179.709 368.733 180.682 361.597C180.682 360.948 178.899 361.272 178.899 361.759Z" fill="white"/>
<path d="M168.038 374.409C175.656 377.49 183.275 380.572 190.894 383.653C191.542 383.977 192.839 383.004 191.866 382.518C184.248 379.436 176.629 376.355 169.01 373.274C168.524 372.949 167.065 373.922 168.038 374.409Z" fill="white"/>
<path d="M47.5981 245.314C43.7077 250.18 39.6553 254.883 35.7649 259.748C35.2786 260.397 37.0617 260.235 37.3859 259.748C41.2763 254.883 45.3287 250.18 49.2191 245.314C49.7054 244.828 47.9223 244.828 47.5981 245.314Z" fill="white"/>
<path d="M31.0639 241.747C36.2511 249.531 40.6278 257.64 44.6803 266.073C44.8424 266.56 46.6255 265.911 46.4634 265.587C42.573 257.154 38.0342 249.045 32.8471 241.26C32.5229 240.773 30.9018 241.422 31.0639 241.747Z" fill="white"/>
<path d="M41.7626 240.611C40.79 247.747 39.9795 254.883 39.0069 262.019C38.8448 262.668 40.6279 262.343 40.79 261.857C41.7626 254.721 42.5731 247.585 43.5457 240.449C43.7078 239.8 41.9247 240.125 41.7626 240.611Z" fill="white"/>
<path d="M31.064 253.261C38.6826 256.343 46.3014 259.424 53.92 262.505C54.5684 262.83 55.8652 261.857 54.8926 261.37C47.2739 258.289 39.6553 255.207 32.0366 252.126C31.3882 251.802 30.0914 252.775 31.064 253.261Z" fill="white"/>
<path d="M136.529 540.618C128.194 528.71 122.657 497.81 167.19 469.471C191.7 458.853 241.135 447.918 242.802 489.118C242.306 500.43 232.443 523.292 196.959 524.245C184.555 522.459 165.999 512.933 183.861 493.286C188.461 488.225 203.389 482.807 213.629 490.904C215.614 493.583 217.559 500.252 209.462 505.491M203.21 504.895C204.103 502.415 204.996 497.751 198.447 497.751C194.18 498.346 187.135 504.895 194.28 510.551C205.092 519.111 231.788 503.407 227.025 487.332C226.727 484.95 225.715 480.247 214.522 476.913C212.379 476.437 206.683 475.821 205.294 476.02C187.135 476.913 152.842 487.511 160.939 522.757C165.404 533.473 184.337 551.096 224.346 535.855C238.436 530.199 267.093 511.98 268.999 484.355C269.892 478.6 270.487 465.065 265.724 456.968" stroke="#C5C3D2" stroke-width="1.48843" stroke-linecap="round" stroke-linejoin="round"/>
</g>
<g clip-path="url(#clip3_281_1628)">
<path d="M203.962 540.617C203.837 540.739 203.68 540.822 203.509 540.857C203.339 540.891 203.161 540.876 202.999 540.812C202.837 540.749 202.696 540.639 202.593 540.498C202.49 540.356 202.43 540.187 202.42 540.012C202.45 529.408 176.962 520.359 146.766 520.23C122.695 520.079 102.311 527.135 102.333 535.458C102.299 538.51 105.949 541.584 112.298 543.921C120.484 546.646 129.064 547.973 137.683 547.849C144.533 548.009 151.36 547.019 157.885 544.918C162.903 543.13 165.776 540.748 165.789 538.396C165.792 538.15 165.889 537.915 166.062 537.742C166.234 537.569 166.467 537.471 166.711 537.469C166.953 537.476 167.183 537.576 167.354 537.749C167.525 537.922 167.624 538.154 167.631 538.398C167.605 541.615 164.284 544.551 158.48 546.653C151.767 548.837 144.738 549.875 137.683 549.723C128.886 549.835 120.13 548.486 111.766 545.729C104.527 543.087 100.525 539.515 100.569 535.544C100.531 525.789 120.799 518.205 146.765 518.338C179.02 518.458 204.314 527.994 204.331 539.955C204.317 540.085 204.277 540.21 204.213 540.324C204.15 540.437 204.065 540.537 203.962 540.617Z" fill="#2A2846" fill-opacity="0.6"/>
<path d="M180.884 547.014C177.708 549.875 173.957 552.013 169.887 553.282C159.477 556.623 148.59 558.208 137.665 557.974C105.319 557.858 80.0436 548.321 80.1001 536.375C80.0989 536.254 80.1213 536.134 80.1661 536.023C80.2108 535.911 80.277 535.809 80.3609 535.723C80.4448 535.637 80.5446 535.568 80.6548 535.521C80.765 535.474 80.8833 535.45 81.003 535.449C81.1177 535.446 81.232 535.465 81.3393 535.507C81.4466 535.548 81.5447 535.61 81.6282 535.69C81.7116 535.769 81.7787 535.865 81.8256 535.97C81.8725 536.076 81.8983 536.19 81.9015 536.305C81.8925 546.982 107.4 556.03 137.577 556.159C148.342 556.387 159.07 554.822 169.327 551.527C177.372 548.636 182.013 544.735 181.955 540.916C181.988 537.864 178.338 534.79 171.972 532.454C163.82 529.737 155.278 528.402 146.695 528.502C139.851 528.341 133.029 529.331 126.511 531.433C121.475 533.221 118.619 535.602 118.588 537.956C118.589 538.076 118.567 538.196 118.522 538.308C118.477 538.42 118.411 538.521 118.327 538.607C118.243 538.693 118.144 538.762 118.033 538.809C117.923 538.856 117.805 538.881 117.685 538.882C117.566 538.883 117.448 538.86 117.338 538.814C117.228 538.769 117.128 538.702 117.044 538.617C116.96 538.532 116.894 538.431 116.849 538.32C116.805 538.209 116.782 538.09 116.784 537.97C116.773 534.755 119.984 531.806 125.898 529.699C132.618 527.521 139.654 526.489 146.714 526.646C155.511 526.534 164.267 527.883 172.631 530.639C179.851 533.283 183.871 536.836 183.809 540.808C183.765 541.988 183.483 543.147 182.981 544.214C182.478 545.281 181.764 546.234 180.884 547.014Z" fill="#2A2846" fill-opacity="0.6"/>
<path d="M146.473 539.299C146.124 539.641 145.699 539.895 145.233 540.039C144.247 540.365 143.213 540.521 142.174 540.501C139.786 540.488 137.381 539.779 137.341 538.2C137.301 536.622 139.723 535.824 142.207 535.924C144.691 536.023 147.001 536.664 147.041 538.224C147.024 538.433 146.966 538.636 146.868 538.821C146.77 539.006 146.636 539.169 146.473 539.299ZM139.399 538.155C140.28 538.512 141.226 538.679 142.175 538.645C143.122 538.695 144.067 538.53 144.941 538.161C144.063 537.813 143.125 537.646 142.183 537.671C141.231 537.63 140.281 537.795 139.399 538.155Z" fill="#2A2846" fill-opacity="0.6"/>
<path d="M146.789 514.698C146.624 514.876 146.397 514.982 146.156 514.994C145.915 515.005 145.679 514.922 145.497 514.761C145.331 514.586 145.235 514.355 145.229 514.113C145.226 513.86 145.319 513.615 145.49 513.429C145.66 513.243 145.895 513.13 146.146 513.113C146.383 513.129 146.608 513.229 146.78 513.394C146.865 513.479 146.933 513.58 146.979 513.691C147.026 513.802 147.049 513.922 147.048 514.043C147.04 514.285 146.948 514.517 146.789 514.698Z" fill="#2A2846" fill-opacity="0.6"/>
<path d="M192.065 534.765C191.986 534.854 191.89 534.927 191.783 534.978C191.676 535.03 191.56 535.059 191.441 535.065C191.323 535.071 191.204 535.053 191.093 535.012C190.981 534.971 190.879 534.908 190.792 534.827C190.617 534.648 190.515 534.411 190.504 534.161C190.519 533.921 190.622 533.696 190.792 533.528C190.962 533.361 191.188 533.262 191.426 533.252C191.665 533.26 191.892 533.361 192.06 533.534C192.145 533.618 192.213 533.719 192.259 533.83C192.305 533.942 192.329 534.061 192.328 534.182C192.313 534.402 192.219 534.609 192.065 534.765Z" fill="#2A2846" fill-opacity="0.6"/>
<path d="M145.129 524.04C144.95 524.2 144.724 524.295 144.485 524.31C144.241 524.303 144.008 524.203 143.834 524.03C143.742 523.958 143.659 523.875 143.585 523.785C143.552 523.665 143.546 523.54 143.567 523.418C143.574 523.179 143.671 522.951 143.84 522.783C144.008 522.614 144.233 522.516 144.471 522.51C144.59 522.512 144.707 522.538 144.816 522.587C144.924 522.635 145.023 522.705 145.104 522.792C145.189 522.868 145.258 522.961 145.307 523.064C145.356 523.167 145.384 523.279 145.389 523.393C145.395 523.508 145.378 523.622 145.339 523.73C145.301 523.837 145.241 523.936 145.164 524.02L145.129 524.04Z" fill="#2A2846" fill-opacity="0.6"/>
<path d="M110.767 534.569C110.683 534.656 110.583 534.724 110.473 534.771C110.362 534.817 110.243 534.84 110.124 534.84C110.006 534.843 109.889 534.821 109.779 534.776C109.67 534.731 109.572 534.663 109.491 534.576C109.32 534.404 109.217 534.173 109.204 533.929C109.215 533.807 109.246 533.687 109.296 533.575C109.361 533.407 109.475 533.262 109.623 533.16C109.771 533.057 109.946 533.003 110.125 533.002C110.37 533.009 110.603 533.109 110.777 533.283C110.869 533.355 110.952 533.437 111.026 533.528C111.059 533.641 111.064 533.76 111.043 533.876C111.056 534.006 111.037 534.136 110.989 534.257C110.941 534.378 110.865 534.485 110.767 534.569Z" fill="#2A2846" fill-opacity="0.6"/>
<path d="M171.148 527.128C171.085 527.235 170.995 527.322 170.886 527.38C170.774 527.413 170.656 527.419 170.541 527.397C170.296 527.39 170.063 527.29 169.889 527.116C169.727 526.939 169.638 526.707 169.639 526.467C169.614 526.352 169.608 526.235 169.622 526.119C169.67 526.004 169.741 525.901 169.83 525.815C169.919 525.729 170.023 525.661 170.138 525.616C170.253 525.571 170.376 525.55 170.499 525.553C170.622 525.557 170.744 525.585 170.856 525.636C170.954 525.675 171.044 525.733 171.12 525.807C171.284 525.991 171.379 526.227 171.389 526.473C171.398 526.594 171.38 526.714 171.339 526.827C171.297 526.94 171.232 527.043 171.148 527.128Z" fill="#2A2846" fill-opacity="0.6"/>
<path d="M158.994 541.483C158.816 541.642 158.589 541.737 158.351 541.753C158.106 541.746 157.873 541.646 157.699 541.472C157.616 541.387 157.551 541.285 157.508 541.173C157.465 541.062 157.445 540.943 157.449 540.823C157.446 540.642 157.498 540.465 157.599 540.316C157.699 540.166 157.843 540.052 158.01 539.987C158.12 539.945 158.241 539.939 158.355 539.97C158.473 539.964 158.591 539.985 158.701 540.03C158.81 540.076 158.908 540.145 158.988 540.233C159.075 540.321 159.144 540.425 159.19 540.539C159.237 540.654 159.259 540.777 159.257 540.9C159.287 541.008 159.292 541.12 159.273 541.23C159.203 541.336 159.107 541.423 158.994 541.483Z" fill="#2A2846" fill-opacity="0.6"/>
<path d="M128.694 542.958C128.626 543.059 128.537 543.145 128.433 543.209C128.323 543.251 128.202 543.257 128.088 543.226C127.859 543.232 127.637 543.148 127.469 542.991C127.301 542.835 127.201 542.618 127.19 542.388C127.191 542.269 127.216 542.152 127.262 542.044C127.308 541.935 127.375 541.836 127.459 541.754C127.543 541.671 127.643 541.606 127.752 541.562C127.861 541.518 127.977 541.497 128.095 541.498C128.207 541.466 128.325 541.46 128.44 541.482C128.54 541.544 128.626 541.627 128.689 541.727C128.865 541.893 128.971 542.122 128.982 542.365C128.994 542.608 128.912 542.846 128.753 543.028L128.694 542.958Z" fill="#2A2846" fill-opacity="0.6"/>
<path d="M133.493 535.925C133.331 536.102 133.107 536.207 132.869 536.218C132.631 536.23 132.398 536.147 132.22 535.987C132.116 535.93 132.03 535.846 131.971 535.742C131.93 535.631 131.924 535.509 131.954 535.394C131.956 535.153 132.052 534.923 132.221 534.754C132.391 534.584 132.619 534.488 132.858 534.486C132.97 534.454 133.088 534.448 133.203 534.469C133.303 534.531 133.389 534.615 133.452 534.715C133.628 534.881 133.734 535.11 133.745 535.353C133.757 535.596 133.675 535.834 133.516 536.016L133.493 535.925Z" fill="#2A2846" fill-opacity="0.6"/>
<path d="M167.376 546.275C167.203 546.442 166.973 546.539 166.733 546.545C166.612 546.551 166.492 546.531 166.379 546.486C166.267 546.44 166.166 546.371 166.082 546.283C165.996 546.195 165.928 546.091 165.881 545.976C165.835 545.862 165.812 545.739 165.813 545.616C165.824 545.378 165.923 545.153 166.09 544.985C166.257 544.817 166.481 544.719 166.717 544.708C166.962 544.711 167.196 544.812 167.368 544.989C167.454 545.073 167.522 545.174 167.568 545.286C167.614 545.397 167.638 545.517 167.637 545.637C167.629 545.874 167.536 546.101 167.376 546.275Z" fill="#2A2846" fill-opacity="0.6"/>
<path d="M158.281 551.55C158.197 551.636 158.097 551.705 157.987 551.751C157.876 551.797 157.758 551.821 157.638 551.82C157.518 551.824 157.399 551.803 157.288 551.758C157.177 551.714 157.076 551.647 156.991 551.561C156.907 551.476 156.841 551.374 156.797 551.261C156.753 551.149 156.732 551.029 156.737 550.909C156.74 550.722 156.799 550.541 156.905 550.389C157.011 550.236 157.16 550.119 157.333 550.053L157.679 550.036C157.797 550.03 157.915 550.05 158.024 550.096C158.133 550.141 158.232 550.211 158.311 550.299C158.402 550.383 158.473 550.487 158.52 550.602C158.567 550.717 158.587 550.841 158.581 550.966C158.572 551.078 158.541 551.188 158.49 551.289C158.438 551.389 158.367 551.478 158.281 551.55Z" fill="#2A2846" fill-opacity="0.6"/>
<path d="M117.297 551.505C117.241 551.61 117.157 551.697 117.054 551.756C116.941 551.781 116.824 551.787 116.709 551.773C116.464 551.766 116.231 551.666 116.057 551.492C115.974 551.407 115.908 551.305 115.865 551.194C115.822 551.082 115.802 550.963 115.807 550.843C115.813 550.604 115.911 550.377 116.079 550.208C116.247 550.039 116.473 549.942 116.71 549.935C116.83 549.937 116.949 549.962 117.059 550.009C117.169 550.056 117.269 550.125 117.353 550.212C117.437 550.298 117.503 550.4 117.547 550.513C117.592 550.625 117.614 550.745 117.612 550.865C117.607 550.988 117.576 551.109 117.522 551.219C117.468 551.329 117.391 551.427 117.297 551.505Z" fill="#2A2846" fill-opacity="0.6"/>
<path d="M130.598 553.982C130.512 554.069 130.409 554.139 130.295 554.185C130.181 554.232 130.06 554.255 129.937 554.253C129.702 554.244 129.477 554.151 129.304 553.99C129.142 553.805 129.047 553.569 129.035 553.323C129.038 553.141 129.092 552.965 129.191 552.813C129.291 552.662 129.431 552.543 129.595 552.469L129.959 552.451C130.066 552.428 130.177 552.423 130.286 552.435C130.384 552.513 130.474 552.601 130.554 552.698C130.716 552.875 130.805 553.106 130.804 553.347C130.829 553.461 130.835 553.579 130.821 553.695L130.598 553.982Z" fill="#2A2846" fill-opacity="0.6"/>
<path d="M91.5977 544.12C91.5159 544.208 91.4155 544.276 91.3041 544.32C91.1927 544.363 91.0729 544.381 90.9537 544.372C90.8412 544.404 90.7232 544.409 90.6082 544.389C90.5176 544.321 90.4395 544.238 90.3774 544.143C90.2831 544.046 90.2101 543.93 90.1631 543.802C90.1161 543.675 90.0961 543.539 90.1044 543.403C90.0718 543.29 90.066 543.17 90.0874 543.055C90.1385 542.924 90.2187 542.807 90.3218 542.712C90.4249 542.618 90.5482 542.549 90.6822 542.51C90.8161 542.471 90.9571 542.464 91.0944 542.488C91.2316 542.513 91.3614 542.569 91.4737 542.653C91.5861 542.736 91.6779 542.844 91.7423 542.969C91.8066 543.093 91.8417 543.231 91.8448 543.372C91.8479 543.512 91.819 543.652 91.7602 543.779C91.7014 543.906 91.6144 544.018 91.5059 544.106L91.5977 544.12Z" fill="#2A2846" fill-opacity="0.6"/>
<path d="M181.743 550.794C181.567 550.956 181.337 551.046 181.099 551.046C180.979 551.04 180.86 551.015 180.749 550.971C180.651 550.899 180.562 550.817 180.482 550.726C180.399 550.635 180.335 550.529 180.294 550.413C180.252 550.296 180.234 550.173 180.24 550.05C180.245 549.927 180.275 549.806 180.328 549.694C180.38 549.583 180.454 549.483 180.545 549.4C180.713 549.249 180.927 549.161 181.152 549.15C181.392 549.158 181.619 549.259 181.786 549.432C181.882 549.499 181.966 549.582 182.035 549.677C182.058 549.792 182.064 549.909 182.052 550.025C182.056 550.168 182.031 550.31 181.978 550.442C181.924 550.575 181.844 550.694 181.743 550.794Z" fill="#2A2846" fill-opacity="0.6"/>
<path d="M81.7039 531.868C81.6192 531.952 81.5184 532.018 81.4077 532.061C81.2969 532.104 81.1786 532.125 81.0599 532.12C80.9403 532.145 80.8176 532.151 80.6961 532.138C80.6044 532.066 80.5209 531.984 80.4472 531.893C80.3516 531.823 80.2725 531.733 80.2156 531.628C80.1822 531.515 80.1764 531.396 80.1986 531.28C80.2055 531.038 80.3054 530.808 80.4774 530.638C80.6494 530.469 80.88 530.373 81.1206 530.372C81.3067 530.38 81.4867 530.441 81.6396 530.549C81.8078 530.708 81.9081 530.927 81.9194 531.16C81.9307 531.392 81.8522 531.62 81.7003 531.795L81.7039 531.868Z" fill="#2A2846" fill-opacity="0.6"/>
</g>
</g>
</g>
</g>
<defs>
<clipPath id="clip0_281_1628">
<rect width="1598.08" height="932" fill="white"/>
</clipPath>
<clipPath id="clip1_281_1628">
<rect width="1149.06" height="643" fill="white" transform="translate(-773)"/>
</clipPath>
<clipPath id="clip2_281_1628">
<rect width="1215.75" height="810.894" fill="white" transform="translate(-839.086 -51.7972)"/>
</clipPath>
<clipPath id="clip3_281_1628">
<rect width="123.837" height="44.6528" fill="white" transform="translate(78.3796 519.01) rotate(-5.17006)"/>
</clipPath>
</defs>
</svg>
