<?xml version="1.0" encoding="utf-8"?>
<!-- Generator: Adobe Illustrator 23.0.5, SVG Export Plug-In . SVG Version: 6.00 Build 0)  -->
<svg version="1.1" id="Layer_1" xmlns="http://www.w3.org/2000/svg" xmlns:xlink="http://www.w3.org/1999/xlink" x="0px" y="0px"
	 viewBox="0 0 360 640" style="enable-background:new 0 0 360 640;" xml:space="preserve">
<style type="text/css">
	.st0{clip-path:url(#SVGID_2_);}
	.st1{fill:none;stroke:#282948;stroke-miterlimit:10;}
	.st2{fill:none;stroke:#313049;stroke-width:1.5;stroke-linecap:round;stroke-linejoin:round;}
	.st3{fill:none;stroke:#313049;stroke-width:1.5;}
	.st4{fill:none;stroke:#313049;stroke-width:1.5;stroke-linecap:round;}
	.st5{fill:#313049;}
	.st6{fill:none;stroke:#424260;stroke-width:1.5;stroke-linecap:round;stroke-linejoin:round;}
	.st7{fill:none;stroke:#2A2846;stroke-width:1.5;}
	.st8{fill:#282948;}
	.st9{clip-path:url(#SVGID_4_);}
	.st10{opacity:0.12;clip-path:url(#SVGID_6_);}
	.st11{fill:#FFFFFF;filter:url(#Adobe_OpacityMaskFilter);}
	.st12{mask:url(#mask0_281_1628_1_);}
	.st13{fill:#FFFFFF;}
	.st14{fill:none;stroke:#C5C3D2;stroke-width:1.4884;stroke-linecap:round;stroke-linejoin:round;}
	.st15{clip-path:url(#SVGID_8_);}
	.st16{fill:#2A2846;fill-opacity:0.6;}
</style>
<g>
	<defs>
		<rect id="SVGID_1_" y="0" width="1598.1" height="932"/>
	</defs>
	<clipPath id="SVGID_2_">
		<use xlink:href="#SVGID_1_"  style="overflow:visible;"/>
	</clipPath>
	<g class="st0">
		<g>
			<path class="st1" d="M84.3,664c0.9-2.1,2.5-4,4-5.9c1.2-1.5,2.5-3,3-4.9c0.7-2.5,0.3-5.3-0.2-8.2c-0.6-3.3-1.3-6.6-1-9.6
				c0.2-2.6,1.4-4.9,2.7-7.2c1.1-1.9,2.5-3.8,3.2-5.8c1.8-4.5,2.5-9.1,4.1-13.7c0.1-0.2,0.9-2,1.5-3.2c-0.5-0.2-1.1-0.4-1.6-0.6
				c-1.4-0.7-2.3-1.6-2.4-2.9c-0.2-1.5,1.1-10.1,2.4-14.3c2.1-6.6,4.3-11.6,6.1-18.1c0.2-1.1,0.3-2.2,0.3-3.4
				c-0.1-1.4,0-2.9,0.1-4.3c0.7-4.5,3-9,3.1-13.5c0.1-8.7-2.4-17.6-1.8-26.2c0-0.7,0.4-2,1-3.5c1.1-3,3.1-7.2,3.9-10.7
				c0.3-1,0.4-2,0.3-3c0-0.3-0.1-0.5-0.3-0.7c-0.2-0.2-0.5-0.2-0.8-0.2c-0.3,0-0.6,0-0.8,0.2c-0.3,0.1-0.5,0.3-0.6,0.6
				c-0.4,0.6-0.8,1.2-1.1,1.8c-0.9,1.5-1.9,3-3.8,3.7c-2.3,0.9-5.1,0.4-7.9,0.1c-1.7-0.2-3.5-0.4-4.8,0.6c0,0.7,0,2.9-0.1,4.4
				c-0.1,1.7-0.4,3.3-1,4.3c-0.9,1.5-2.2,2.3-3.7,2.9c-0.7,0.3-1.3,0.5-2,0.8c-0.6,0.2-1.1,0.5-1.3,1c-1.7,3.9-1.2,8.7-1.8,12.9
				c-1.4,8.6-4,23.4-7.2,31.2C71,580.2,62,586.4,53.6,594.8c3.1,10.2,8.5,21.3,12,31.3c2.7,7.8,3.5,16.2,6.3,24.2
				c2.1,6,3.7,8,5.1,14.3"/>
		</g>
		<path class="st2" d="M255.9,102.8V86.3c0.2-2.6,2.2-7.7,8.1-7.7c5.9,0,7.9,5.2,8.2,7.7v16.5"/>
		<path class="st3" d="M243.8,47.8c0-8.7,3.5-20.2,21.3-20.2c15.3,0,20.6,12.9,20.6,20.6"/>
		<path class="st4" d="M264.6,27.6v-8"/>
		<path class="st2" d="M291.2,48.5L315,64.4c0.3,0.2,0.4,0.5,0.4,0.8v36.5c0,0.5-0.4,1-1,1H214c-0.5,0-1-0.4-1-1V65.2
			c0-0.3,0.2-0.6,0.4-0.8l24.2-15.9c0.2-0.1,0.3-0.2,0.5-0.2h52.4C290.8,48.3,291,48.4,291.2,48.5z"/>
		<path class="st2" d="M236.7,49.3v53.4"/>
		<path class="st2" d="M291.2,49.3v53.4"/>
		<path class="st2" d="M213,79.6l23.6-15.6c0.2-0.1,0.3-0.2,0.5-0.2l53.5-0.6c0.2,0,0.4,0.1,0.6,0.2l24.1,16.2"/>
		<path class="st5" d="M178.6,22.4c0.5,0,0.9-0.2,1.2-0.5c0.3-0.3,0.5-0.7,0.5-1.2c0,0.5,0.2,0.9,0.5,1.2c0.3,0.3,0.7,0.5,1.2,0.5
			c-0.5,0-0.9,0.2-1.2,0.5c-0.2,0.2-0.3,0.4-0.4,0.6c-0.1,0.2-0.1,0.4-0.1,0.7c0-0.5-0.2-0.9-0.5-1.2
			C179.5,22.6,179.1,22.4,178.6,22.4z M180.3,17.2c0.9,0,1.7-0.4,2.3-1.1c0.6-0.7,1-1.5,1-2.4c0,0.9,0.3,1.7,1,2.4
			c0.6,0.7,1.4,1,2.3,1.1c-0.6,0-1.2,0.2-1.7,0.5c-0.5,0.3-0.9,0.7-1.2,1.3c-0.3,0.5-0.4,1.1-0.4,1.7c0-0.9-0.3-1.7-1-2.4
			C182,17.6,181.2,17.2,180.3,17.2z M182.7,25c0.7,0,1.3-0.3,1.8-0.8c0.5-0.5,0.7-1.1,0.7-1.8c0,0.7,0.2,1.3,0.7,1.8
			c0.5,0.5,1.1,0.8,1.8,0.8c-0.7,0-1.3,0.3-1.8,0.8c-0.5,0.5-0.7,1.1-0.7,1.8c0-0.7-0.2-1.3-0.7-1.8C184,25.3,183.4,25,182.7,25z
			 M187.6,21.6c0.7,0,1.3-0.3,1.8-0.8c0.5-0.5,0.7-1.1,0.7-1.8c0,0.7,0.2,1.3,0.7,1.8c0.5,0.5,1.1,0.8,1.8,0.8
			c-0.7,0-1.3,0.3-1.8,0.8c-0.5,0.5-0.7,1.1-0.7,1.8c0-0.7-0.2-1.3-0.7-1.8C188.9,21.9,188.3,21.6,187.6,21.6z"/>
		<path class="st5" d="M249.2,37.3c0.5,0,0.9-0.2,1.2-0.5c0.3-0.3,0.5-0.7,0.5-1.2c0,0.5,0.2,0.9,0.5,1.2c0.3,0.3,0.7,0.5,1.2,0.5
			c-0.5,0-0.9,0.2-1.2,0.5c-0.2,0.2-0.3,0.4-0.4,0.6c-0.1,0.2-0.1,0.4-0.1,0.7c0-0.5-0.2-0.9-0.5-1.2
			C250.1,37.5,249.7,37.3,249.2,37.3z M250.9,32.1c0.9,0,1.7-0.4,2.3-1.1c0.6-0.7,1-1.5,1-2.4c0,0.9,0.3,1.7,1,2.4
			c0.6,0.7,1.4,1,2.3,1.1c-0.6,0-1.2,0.2-1.7,0.5c-0.5,0.3-0.9,0.7-1.2,1.3c-0.3,0.5-0.4,1.1-0.4,1.7c0-0.9-0.3-1.7-1-2.4
			C252.6,32.5,251.8,32.1,250.9,32.1z M253.3,39.9c0.7,0,1.3-0.3,1.8-0.8c0.5-0.5,0.7-1.1,0.7-1.8c0,0.7,0.2,1.3,0.7,1.8
			c0.5,0.5,1.1,0.8,1.8,0.8c-0.7,0-1.3,0.3-1.8,0.8c-0.5,0.5-0.7,1.1-0.7,1.8c0-0.7-0.2-1.3-0.7-1.8C254.6,40.2,254,39.9,253.3,39.9
			z M258.3,36.5c0.7,0,1.3-0.3,1.8-0.8c0.5-0.5,0.7-1.1,0.7-1.8c0,0.7,0.2,1.3,0.7,1.8c0.5,0.5,1.1,0.8,1.8,0.8
			c-0.7,0-1.3,0.3-1.8,0.8c-0.5,0.5-0.7,1.1-0.7,1.8c0-0.7-0.2-1.3-0.7-1.8C259.5,36.8,258.9,36.5,258.3,36.5z"/>
		<path class="st6" d="M252.3,331.1c-6.2-8.8-10.4-31.8,23-52.8c18.4-7.9,55.4-16,56.7,14.6c-0.4,8.4-7.8,25.4-34.4,26.1
			c-9.3-1.3-23.2-8.4-9.8-23c3.4-3.8,14.6-7.8,22.3-1.8c1.5,2,2.9,6.9-3.1,10.8 M302.2,304.6c0.7-1.8,1.3-5.3-3.6-5.3
			c-3.2,0.4-8.5,5.3-3.1,9.5c8.1,6.4,28.1-5.3,24.5-17.2c-0.2-1.8-1-5.3-9.4-7.7c-1.6-0.4-5.9-0.8-6.9-0.7
			c-13.6,0.7-39.3,8.5-33.2,34.7c3.3,8,17.5,21,47.5,9.7c10.6-4.2,32-17.7,33.5-38.2c0.7-4.3,1.1-14.3-2.5-20.3"/>
		<path class="st7" d="M95.9,159.5c0,20.3-16.3,36.8-36.5,36.8S23,179.9,23,159.5c0-20.3,16.3-36.8,36.5-36.8S95.9,139.2,95.9,159.5
			z"/>
		<path class="st7" d="M28.6,179.9c-3.9,3.9-10.8,13.1-7.4,18.2c2.5,1.8,15.1-0.4,45.7-23.6c15.2-12.9,44-40.1,37.2-46.1
			c-0.7-1.4-7.4-1.5-20.2,5.4"/>
		<path class="st8" d="M45.8,535.5c-0.1,13.4-8.5,25.8-21.2,30.3c-13,4.7-27.9-0.1-36.1-11c-7.7-10.2-8.6-24.6-2.2-35.6
			c7.1-12.3,21.6-18.5,35.3-14.9C35.9,507.9,45.6,521,45.8,535.5c0,0.1,1,0,1-0.2c-0.1-14.2-9.4-26.9-23.1-31.1
			c-12.5-3.8-26.6,0.4-35.1,10.3c-9.2,10.8-10.2,26.9-2.5,38.8c7.5,11.4,21.4,16.8,34.6,14c15-3.3,25.8-16.7,25.9-31.9
			C46.8,535.1,45.8,535.3,45.8,535.5z"/>
		<path class="st8" d="M-5.6,509.2c-6.1-3.7-12.9-7.1-20.2-7c-2.3,0-6.4,0.4-8.2,2c-2,1.7-1.5,2.9-0.9,5.6c3.6,16,17.5,29.1,29,39.8
			c12,11.3,26,21.1,42,25.5c3.6,1,11,3.9,12.6-1.3c2-6.3-5.8-14.6-8.7-19.3c-0.1-0.2-0.9,0-0.6,0.4c1.8,2.9,3.8,5.9,5.6,8.8
			c0.9,1.5,1.8,2.9,2.5,4.5c1.2,3.2,1.2,3.9-1.8,6c-3.1,2.1-4.2,1.6-7.5,0.7c-1.6-0.4-3.2-0.9-4.8-1.3c-2.7-0.9-5.3-1.8-7.9-3.1
			c-12-5.4-22.6-13.5-32-22.6c-8.2-7.9-16.6-16.3-22.5-26.2c-3.4-5.6-10.1-18,1.5-19.2c7.7-0.7,15,2.9,21.4,6.8
			C-5.8,509.8-5.2,509.5-5.6,509.2z"/>
		<path class="st8" d="M26.1,575.8c2.9,1.8,6.5,2.2,9.8,1.1c0.5-0.1,0.2-0.7-0.1-0.5c-3.1,1.1-6.3,0.7-9.1-1
			C26.3,575.2,25.7,575.5,26.1,575.8z"/>
		<path class="st8" d="M47.1,558.7c1.1,1.1,2,2.5,2.2,3.9c0,0.2,0.7,0,0.7-0.2c-0.4-1.6-1.1-2.9-2.3-4.1
			C47.5,558.2,46.9,558.6,47.1,558.7z"/>
		<path class="st8" d="M39.1,562.6c1.5,1.1,2.5,2.8,2.7,4.7c0,0.2,0.7,0,0.7-0.2c-0.2-2-1.2-3.6-2.7-4.8
			C39.6,562.3,39,562.5,39.1,562.6z"/>
		<path class="st8" d="M10.4,503.3c0.5,5.3,4.8,7.5,8.7,10.1c2.9,2,5.2,4.1,5.6,7.6c0.5,2.8-0.2,5.8,0,8.6c0.4,5,3.3,7,6.7,9.9
			c2.6,2.2,3.9,4.9,5.8,7.6c0.1,0.2,4,4.1,4,3.6c0-0.4-0.7-0.1-0.7,0.2c0,0.1,0,0.1,0,0.2s0.2,0.1,0.4,0.1c0.1,0,0.2,0,0.4,0
			s0.4-0.1,0.4-0.2c0-0.6-0.4-0.5-0.5-0.9c-0.1-0.9-3.3-3.4-4-4.5c-0.6-1-1.2-2-1.8-2.9c-3.8-5.4-9.9-7.1-9.9-14.7
			c0-4.3,0.9-8.6-2.2-12.2c-4-4.7-11.7-5.6-12.1-12.9C11.1,502.8,10.4,503,10.4,503.3z"/>
		<path class="st8" d="M-4.4,509.3c5.6,2.3,6.9,8.1,8.7,13.3c1.7,4.8,4.3,7.7,9,9.9c2.1,1,4.4,1.8,6.4,3.2c2.6,1.7,3.9,4.2,5.6,6.8
			c1,1.5,2,2.8,3.7,3.7c3.2,1.5,7-0.1,9.6,3.2c0.1,0.1,0.7-0.1,0.7-0.2c-1.2-1.6-2.6-2.1-4.4-2.5c-4.2-0.9-6.1-0.6-8.7-4.4
			c-3.3-4.7-5.3-6.9-10.7-9.3c-6-2.7-8.8-6.4-10.9-12.6c-1.6-4.7-3.3-9.2-8-11.2C-3.9,509-4.4,509.2-4.4,509.3z"/>
		<path class="st8" d="M-16.4,524.2c8.5-0.2,11.5,8,15.7,13.8c3.1,4.3,7.1,7.2,12.3,8.5c5.8,1.2,10.4,0.7,14.6,5.6
			c1,1.1,1.8,2.2,3.3,2.7c2.7,1,5.4-1,7.9,1.5c0.1,0.1,0.9-0.1,0.7-0.2c-1.1-1.1-2-1.2-3.4-1.5c-2.5-0.5-4.5,0.1-6.9-1.8
			c-1-0.9-1.5-2.1-2.3-2.9c-4.3-4.1-10.3-2.5-15.5-4.4c-7.2-2.7-10.1-8.5-14.2-14.4c-2.9-4.1-6.6-7.2-11.8-7.1
			C-16.4,523.8-16.9,524.2-16.4,524.2z"/>
		<path class="st8" d="M-16.9,539.5c6.9,0.7,10.6,6.4,15.5,10.4c3.3,2.7,6.6,3.8,10.9,3.8c4.4,0,8.1-0.1,12.1,2.2
			c2.2,1.4,4.3,3.1,6.6,4.4c1.3,0.7,3.3,2.2,4.4,0.6c0.2-0.4-0.4-0.5-0.6-0.2c-1.1,1.5-10.4-5.6-11.8-6.3c-4.8-2.2-9.7-0.4-14.7-1.6
			c-9-2.2-12.8-12.8-22.2-13.9C-17,539.1-17.4,539.5-16.9,539.5z"/>
		<path class="st8" d="M-11.5,555.8c7.7-2.7,13.5,5.6,20.4,6.8c1.1,0.1,2,0,3.1-0.1c2.5-0.2,5.6-0.7,8-0.2c2.1,0.4,4.3,1.8,6.1,2.8
			c0.1,0.1,0.7-0.2,0.7-0.2c-2.9-1.6-6-3.4-9.4-3.4c-1.7,0-1.6,0.2-3.2,0.4c-5,0.5-5.8,0.2-9.8-1.7c-5-2.6-10.2-6.4-16.1-4.4
			C-12.2,555.8-11.7,555.9-11.5,555.8z"/>
		<path class="st8" d="M25,505.7c2.6,2.8,5.6,6.1,7.1,9.7c1.3,3.1,0.5,6.5,2.1,9.6c1.2,2.2,3.1,3.8,4.7,5.6c2.6,2.9,4.5,6.1,6.1,9.6
			c0.1,0.2,0.9,0,0.7-0.2c-1.3-2.8-2.8-5.5-4.8-8c-2.2-2.8-5.5-5.2-6.6-8.6c-1.2-3.3-0.4-6.5-2.2-9.7c-1.7-3.1-4.2-5.8-6.4-8.3
			C25.5,505.2,24.7,505.4,25,505.7z"/>
		<path class="st8" d="M32.1,528c-0.1,0.9,0,1.7,0.5,2.5c0.1,0.2,0.7-0.1,0.7-0.2c-0.5-0.7-0.6-1.6-0.5-2.5
			C32.8,527.6,32.2,527.8,32.1,528z"/>
		<path class="st8" d="M20.7,523.6c0.4,0.6,0.5,1.2,0.5,1.8c0,0.2,0.7,0.1,0.7-0.1c0-0.7-0.1-1.5-0.5-2.1
			C21.2,523.1,20.5,523.3,20.7,523.6z"/>
		<path class="st8" d="M9.3,510.6c0.5,0.5,1,1,1.5,1.5c0.2,0.2,0.9-0.1,0.6-0.4c-0.5-0.5-1-1-1.5-1.5C9.7,510.1,9,510.3,9.3,510.6z"
			/>
		<path class="st8" d="M-1.7,517.8c0.4,0.4,0.6,0.9,1,1.2c0.1,0.1,0.9-0.1,0.7-0.2c-0.4-0.4-0.6-0.9-1-1.2
			C-1.2,517.5-1.8,517.7-1.7,517.8z"/>
		<path class="st8" d="M8.8,549.5c1.2,0.9,2.8,1,4.2,0.5c0.5-0.2,0-0.2-0.2-0.1c-1.1,0.5-2.3,0.1-3.3-0.5
			C9.3,549.1,8.6,549.4,8.8,549.5z"/>
		<path class="st8" d="M19.1,545.4c0.4-0.1,0.6,0,0.9,0.2c0.1,0.1,0.7-0.1,0.7-0.2c-0.5-0.4-1.1-0.4-1.6-0.2
			C18.6,545.3,18.6,545.6,19.1,545.4z"/>
		<path class="st8" d="M29.1,550.1c0.1,0.9,1,1.2,1.7,1.1c0.4,0,0.6-0.5,0.1-0.5c-0.6,0.1-1-0.4-1.1-0.9
			C29.9,549.6,29.1,549.9,29.1,550.1z"/>
		<path class="st8" d="M12.3,557.4c0.5-0.1,1-0.2,1.5-0.5c0.4-0.1,0.4-0.4,0-0.2c-0.5,0.1-1,0.2-1.5,0.5
			C11.8,557.2,12,557.5,12.3,557.4z"/>
		<path class="st8" d="M38.6,508.9c1.1,1.1,2.2,2.3,3.3,3.4c0.2,0.2,0.9,0,0.6-0.4c-1.1-1.1-2.2-2.3-3.3-3.4
			C39.1,508.4,38.3,508.6,38.6,508.9z"/>
		<path class="st8" d="M40.4,508.4c0.7,0.9,1.5,1.8,2.2,2.7c0.1,0.2,0.9,0,0.6-0.2c-0.7-0.9-1.5-1.8-2.2-2.7
			C40.9,507.9,40.2,508.1,40.4,508.4z"/>
		<g>
			<defs>
				<rect id="SVGID_3_" x="-773" y="0" width="1149.1" height="643"/>
			</defs>
			<clipPath id="SVGID_4_">
				<use xlink:href="#SVGID_3_"  style="overflow:visible;"/>
			</clipPath>
			<g class="st9">
				<g>
					<defs>
						<rect id="SVGID_5_" x="-839.1" y="-51.8" width="1215.8" height="810.9"/>
					</defs>
					<clipPath id="SVGID_6_">
						<use xlink:href="#SVGID_5_"  style="overflow:visible;"/>
					</clipPath>
					<g class="st10">
						<defs>
							<filter id="Adobe_OpacityMaskFilter" filterUnits="userSpaceOnUse" x="-51" y="-102.1" width="497.1" height="770.8">
								<feColorMatrix  type="matrix" values="1 0 0 0 0  0 1 0 0 0  0 0 1 0 0  0 0 0 1 0"/>
							</filter>
						</defs>
						<mask maskUnits="userSpaceOnUse" x="-51" y="-102.1" width="497.1" height="770.8" id="mask0_281_1628_1_">
							<path class="st11" d="M376.7-51.8H-839.1v810.9H376.7V-51.8z"/>
						</mask>
						<g class="st12">
							<path class="st13" d="M280.7,335.5c-5.3,3.6-11.5,5.2-17.3,7.9c-5.7,2.6-10.2,6.6-14.6,11c-5,5-9.7,10.1-15.2,14.8
								c-5,4.2-10.1,8.3-13.6,13.8c-12.6,19.1-0.3,41.8,15.7,54.3c0.3,0.2,0.8-0.6,0.5-0.8c-20.1-15.6-29.3-42.3-8.1-61.6
								c4.1-3.6,8.3-6.8,12.3-10.5c4.1-3.9,7.6-8.1,11.7-12c8.4-7.9,19.5-9.6,28.9-15.9C281,336.1,281.2,335.2,280.7,335.5z"/>
							<path class="st13" d="M234,391.3c-2.8,14.9,6.5,25.1,16.7,35c0.3,0.3,1-0.5,0.6-0.8c-9.9-9.6-19.1-19.6-16.5-34.4
								C235,390.5,234.2,390.8,234,391.3z"/>
							<path class="st13" d="M255.1,407.7c-2.8-9.6-1.5-19.8,3.6-28.4c5.3-8.9,13.5-12.3,21.7-17.8c0.5-0.3,0.3-1.1-0.3-0.8
								c-9.6,6.2-18.5,10.2-23.7,21.1c-4.1,8.3-4.7,17.7-2.3,26.4C254.4,408.8,255.1,408.1,255.1,407.7z"/>
							<path class="st13" d="M276.3,422.3c5.4,5.5,12.2,8.1,19.6,9.7c8.4,1.8,16.9,3.9,25.3,5.8c14.6,3.2,28.7-1.3,42.5-6
								c0.5-0.2,0.5-1.1-0.2-0.8c-13.6,4.7-27.6,9.2-42.1,6c-7.1-1.6-14.1-3.6-21.4-5c-8.6-1.6-17-3.7-23.2-10.4
								C276.6,421.1,276,421.9,276.3,422.3z"/>
							<path class="st13" d="M246.8,451.3c5.2,4.9,11.8,6.5,18.3,8.9c7.1,2.6,13,7.5,19.9,10.1c12.5,4.5,26.1-0.8,38.9,0.5
								c0.5,0,0.8-0.8,0.3-1c-12.2-1.3-24.6,3.4-36.5,0.2c-7.1-1.9-12.8-7-19.5-9.7c-7.3-2.9-14.9-4.4-20.9-9.7
								C247,450.1,246.5,451,246.8,451.3z"/>
							<path class="st13" d="M313.9,461.2c9.6,0.6,19.3,1.3,28.9,1.9c8.1,0.5,15.1,1.3,22.7-1.9c16-6.8,32.1-13.9,46.7-23.7
								c0.2-0.2,0.5-1.1,0.2-0.8c-14.6,9.6-30.6,16.9-46.5,23.5c-8.3,3.4-16,2.3-24.8,1.8c-8.9-0.6-17.7-1.3-26.6-1.8
								C314.1,460.2,313.8,461.2,313.9,461.2z"/>
							<path class="st13" d="M293.7,447.7c16-2.8,31.4,2.8,47.5,2.9c14.8,0.2,29-4.2,41.3-12c0.3-0.2,0.5-1.1,0-0.8
								c-13.8,8.8-30,13-46.4,11.7c-14.1-1.1-28-5.2-42.3-2.8C293.3,446.9,293.2,447.9,293.7,447.7z"/>
							<path class="st13" d="M203.4,411.2c-0.3,5.8,0.5,11.5,2.8,16.9c2.8,6.2,7.8,10.4,11.2,16.1c4.1,6.6,7.6,10.2,14.6,13.8
								c6.2,3.1,12.3,5.7,19.1,6c0.5,0,0.8-1,0.3-1c-12-0.5-26.4-7.5-32.4-17.8c-2.9-5-7.1-8.9-10.2-13.8c-3.7-6.2-5.2-13-4.7-20.1
								C204,410.4,203.4,410.7,203.4,411.2z"/>
							<path class="st13" d="M227.4,467.5c22.2,12.8,47.8,18.5,73.4,16.4c0.3,0,0.6-1,0.3-1c-25.6,2.1-51.1-3.6-73.3-16.4
								C227.7,466.5,227.2,467.3,227.4,467.5z"/>
							<path class="st13" d="M290.3,412.2c-15.2-4.5-18.3-24-8.1-35.2c0.2-0.2,0.5-1.1,0-0.6c-10.4,11.4-8.8,31.8,7.6,36.7
								C290.1,413.2,290.4,412.4,290.3,412.2z"/>
							<path class="st13" d="M401.3,178.5c-0.8,39.1-35,71.2-75.1,63.9c-31-5.5-53.8-33.4-53.8-64.7c0-39.2,35.8-71,75.1-63.9
								C378.8,119.3,400.5,147,401.3,178.5c0,0.5,3.1,0,3.1-0.8c-0.6-30.7-21.2-57.6-51.5-64.5c-24.2-5.5-50.6,2.9-66.9,21.6
								c-20.1,22.7-22,57.3-4.5,82.1c15.7,22.2,43.9,32.4,70.4,26.4c30.6-7.1,52-33.9,52.7-65.4
								C404.4,177.2,401.3,177.5,401.3,178.5z"/>
							<path class="st13" d="M278.4,148.3c2.8,3.6,5.3,4.7,9.2,6.5c7.8,3.2,11.8,3.6,10.5,12.5c-0.5,3.1-1.6,6.2-2.3,9.2
								c-1.1,6.5,2.1,11.7-9.1,12c-1.6,0-2.9-1.1-4.5-1c-2.1,0-8.9,3.6-9.6,1c-0.2-0.5-1.6,0-1.6,0.5c1.1,4.5,4.4,1.3,7,0.8
								c5.7-1,7.8,1,12.5,0.5c1.8-0.2,3.2-0.6,4.5-1.9c2.6-2.8,1.9-7,2.4-10.4c0.6-4.9,2.9-10.1,2.6-14.9c-0.3-3.9-1.6-6.2-5.2-7.6
								c-5.8-2.3-10.5-2.3-14.9-7.6C279.6,147.4,278.1,148,278.4,148.3z"/>
							<path class="st13" d="M325.1,151.4c-2.4,5.5-5.3,11.7-2.4,17.2c2.1,1.1,3.2,2.8,3.1,5.2c0.5,1.6,0.6,3.2,0.5,5
								c0.3,1.9-0.2,2.4,0.6,4.2c0.8,1.8,2.1,2.6,3.7,3.7c3.6,2.3,9.4,4.1,13.6,2.1c1.8-0.8,1.8-1.8,3.2-2.8
								c2.8-3.1,6.2-4.9,9.9-5.2c0.5,0,0.8-0.2,1.3-0.2c1-1,1.6-1.8,2.1-3.1c1.3-2.8,1.5-6,1-9.1c-0.3-2.1-1.3-3.9-1.8-6
								c-0.8-3.2,0-6,0-9.2c0-5.4-3.7-9.9-9.1-10.7c-2.4-0.3-4.2,0.2-6.5,0.8c-6,1.6,4.2,1-9.7,1.9c-0.5,0-1-0.3-1.5-0.3
								c-5.5,0.5-7.8,3.1-9.9,8.4c-0.3,0.8,1.3,0.8,1.5,0.2c1.5-3.6,7.3-5.5,11-6.2c1.6-0.3,1.6,1,2.6,0.8c0.5,0,1.1-0.6,1.5-0.5
								c2.9,0.2,14.8-1.9,17,0.2c2.1,1.9,1,12.3,1.9,16.1c0.8,2.8,1.9,5.5,1.5,8.4c0,2.9-1.3,5.2-4.1,7.1c-0.8,0-1.6,0.2-2.4,0.3
								c-2.1,1.3-4.2,2.4-6.3,3.7c-8.6,5.5-16.9,5.8-19.6-6.3c-0.6-2.8,0-4.5-1.1-7.3c-2.4-5.8-1.6,8.9-3.6-6.6
								c-0.5-3.9,2.3-8.6,3.7-12C327.1,150.8,325.4,150.8,325.1,151.4z"/>
							<path class="st13" d="M327.2,201.5c-3.1,1.3-6.8,2.9-7.3,6.5c-0.5,3.2,1.3,4.4,3.9,5.4c3.2,1.1,4.7,2.4,6.8,4.7
								c0.8,0.8,1.6,1.5,2.8,1.8c4.1,1.3,7.8-1.6,11-3.7c1.8-1.1,4.4-2.3,4.4-4.9c0-4.2-6.6-4.7-9.1-6.3c-3.7-2.4-10.4-9.2-14.1-2.6
								c-0.5,0.8,1.1,0.8,1.5,0.2c3.2-5.8,10.4,3.1,13.3,4.4c1.8,0.8,9.4,1.8,5.2,6.8c-0.8,1-3.6,2.4-4.9,2.9
								c-2.4,1.9-5.3,1.9-8.8,0.3c-0.5-0.6-1-1.5-1.5-2.1c-0.6-0.8-1-1.3-1.9-1.9c-1.1-0.6-1.8-0.3-2.8-0.8
								c-8.3-4.7-2.6-8.1,1.9-9.9C329,202,328,201,327.2,201.5z"/>
							<path class="st13" d="M282.6,217.1c5.5-0.6,12.6-2.4,16.5,2.4c1.6,2.1,2.6,3.6,4.9,5c2.1,1.3,4.5,1.6,5.5,4.4
								c0.5,1.3,0.2,2.9,0.3,4.4c0.6,3.1,2.1,5,4.9,6.8c0.5,0.3,1.8-0.3,1.5-0.6c-2.6-1.6-4.1-3.6-4.7-6.6c-0.5-2.3,0.2-4.7-1.3-6.6
								c-0.3-0.5-1.1-1-1.5-1.3c-1.1-0.5-2.3-1-3.4-1.3c-2.1-1-3.7-2.6-4.5-4.9c-4.4-6-11.3-3.6-18-2.8
								C282.2,216.3,281.7,217.1,282.6,217.1z"/>
							<path class="st13" d="M320.6,115.7c5,3.9,4.4,9.9,11,12.2c3.4,1.1,6.5,0.6,9.7-0.5c2.4-0.8,4.4-2.3,6.8-3.2
								c4.7-1.9,6.3-1,10-2.3c2.6-0.8,3.7-2.4,4.5-4.9c0.2-0.6-1.3-0.5-1.6,0.2c-1.1,3.1-13.5,6.5-17,7.8
								c-3.7,1.5-11.8,2.3-15.1-0.3c-2.1-1.6-2.6-3.7-4.2-6c-1.1-1.6-1.5-2.6-3.2-3.9C321.4,114.6,319.9,115.2,320.6,115.7z"/>
							<path class="st13" d="M308.9,141.4c-1.5,0.6-1.9,2.3-1.3,3.7c0.8,1.9,3.2,2.4,5,2.8c0.3,0,1.5,0,1.5-0.5
								c-0.2-1.5,1.9-1.9,2.8-3.1c1-1.5-0.2-2.8-1.5-3.7c-1.3-1-2.9-1.6-4.5-1.1c-1.1,0.3-2.3,1.3-1.9,2.6c0.2,0.5,1.6,0,1.6-0.5
								c-0.5-1.6,1.6-1.5,2.6-1c0.5,0.3,1.1,0.6,1.6,1.1c1,1,1.3,2.1,0.2,3.1c-1,0.8-2.4,1.3-2.3,2.8c0.5-0.2,1-0.3,1.5-0.5
								c-1.5-0.3-3.1-0.6-4.2-1.8c-1-1-1.3-3.1,0.2-3.9C310.7,141.2,309.4,141.2,308.9,141.4z"/>
							<path class="st13" d="M358.7,221c-1,0.5-1.5,1.3-1.1,2.3c0.3,1.1,1.8,1.5,2.8,1.6c2.1,0.2,5.2-0.5,6-2.6
								c1-2.8-2.9-5.4-5.2-5.2c-2.3,0.2-4.5,2.3-3.2,4.5c0.3,0.5,1.8,0,1.5-0.6c-1-1.8,1-3.4,2.8-2.8c1.3,0.5,3.2,2.1,2.9,3.7
								c-0.2,1.3-1.8,1.8-2.9,1.9c-0.6,0-1.5,0-2.1-0.2c-0.5-0.2-1.6-1.6-0.6-1.9C360.3,221.3,359.3,220.7,358.7,221z"/>
							<path class="st13" d="M290.4,162c2.1,1.8,2.9,4.5,2.3,7.3c-0.2,0.8,1.5,0.6,1.6-0.2c0.6-3.1-0.3-6-2.8-8.1
								C291.1,160.7,289.8,161.3,290.4,162z"/>
							<path class="st13" d="M288,164.1c0.2,0.6,0.3,1.5,0.6,2.1c0.2,0.3,1.6-0.2,1.6-0.5c-0.2-0.6-0.3-1.5-0.6-2.1
								C289.5,163.3,287.8,163.7,288,164.1z"/>
							<path class="st13" d="M292.4,195.9c1.3,1.5,3.9,1,4.7-0.6c0.3-0.6-1.1-0.6-1.5-0.2c-0.5,0.8-1.3,0.8-1.8,0.2
								C293.5,194.7,291.9,195.4,292.4,195.9z"/>
							<path class="st13" d="M312.1,226.3c1.5,1.3,2.3,3.2,1.8,5.2c0,0.3,1.5,0.2,1.6-0.3c0.5-2.1-0.2-4.1-1.8-5.5
								C313.3,225.5,312,226,312.1,226.3z"/>
							<path class="st13" d="M318.1,227.1c0.2,1,0.3,1.8,0.6,2.8c0.2,0.5,1.6,0,1.6-0.5c-0.2-1-0.3-1.8-0.6-2.8
								C319.6,226.3,318.1,226.7,318.1,227.1z"/>
							<path class="st13" d="M320.7,200.7c-1.8,0.3-3.2,1.3-3.7,3.2c-0.2,0.5,1.5,0.3,1.6-0.2c0.2-1,0.8-1.9,1.8-2.1
								c0.2,0,0.8-0.2,1-0.5C321.4,200.7,320.9,200.7,320.7,200.7z"/>
							<path class="st13" d="M316.7,198.3c-1.5,0.3-2.4,1.5-2.1,2.9c0.2,0.6,1.6,0.3,1.6-0.5c0-0.6,0.2-1.3,1-1.5
								C317.8,199.1,317.7,198.1,316.7,198.3z"/>
							<path class="st13" d="M350.9,132.8c2.6,1.8,6.3,1,7.9-1.6c0.5-0.6-1.1-0.6-1.5-0.2c-1.1,1.8-3.6,2.1-5.3,1
								C351.5,131.5,350.1,132.3,350.9,132.8z"/>
							<path class="st13" d="M359,137.5c1.9-0.5,3.4-2.1,3.2-4.2c0-0.3-1.6,0-1.6,0.5c0.2,1.3-0.5,2.9-1.8,3.2
								C357.9,137.3,358,137.8,359,137.5z"/>
							<path class="st13" d="M306.3,127.6c-2.4-0.3-5,1.9-4.2,4.5c0.2,0.6,1.8,0.2,1.6-0.5c-0.3-1.3,0.5-3.2,2.1-3.1
								C306.5,128.7,307.3,127.7,306.3,127.6z"/>
							<path class="st13" d="M306,132.6c-1.1,0.8-1.6,1.9-1.3,3.2c0.2,0.8,1.8,0.3,1.6-0.5c-0.2-0.8,0-1.6,0.8-2.1
								C307.9,132.8,306.6,132.1,306,132.6z"/>
							<path class="st13" d="M265.6,202.8c0.2,4.4,1.8,8.4,4.5,11.8c0.3,0.3,1.6-0.3,1.6-0.5c-2.8-3.4-4.2-7.5-4.5-11.8
								C267.2,202.2,265.6,202.5,265.6,202.8z"/>
							<path class="st13" d="M261.9,202c-1,2.8-0.6,5.5,0.6,8.1c0.3,0.6,1.8,0,1.5-0.6c-1.1-2.3-1.5-4.7-0.5-7.1
								C263.8,201.4,262.2,201.2,261.9,202z"/>
							<path class="st13" d="M212.8-7c-0.5,38.8-24.3,74.1-60.9,87.6c-37.4,13.6-80.4,1.3-105-30C23.4,20.9,20.4-21.1,39.2-53.7
								c19.8-34.4,60.3-52.5,99.2-44.6C181.7-89.6,212.3-50.8,212.8-7c0,1.3,2.3,1,2.3-0.2c-0.5-39.9-25.4-76.1-63.4-89.5
								C115-109.7,73-98.5,47.8-69.2C21.2-38.3,17.3,7.4,38.4,42.1c20.6,33.9,60.8,51.4,99.5,44c44.6-8.6,76.7-48.3,77.2-93.3
								C215-8.5,212.8-8.2,212.8-7z"/>
							<path class="st13" d="M37.2-53.4c33.2,2.9,64.2,19.9,94.2,33.2c11,4.9,22.2,8.1,34.4,7c9.9-1,20.4-4.2,30,0.5
								c7.6,3.7,12.5,11.4,16.7,18.3c0.2,0.2,0.8,0,0.8-0.2c-5.8-9.7-13-19.3-25-20.9c-7-0.8-13.9,1-20.9,1.6
								c-11.5,1.3-22-1.1-32.6-5.5c-31.3-13.1-62.4-31.5-97.1-34.5C37.4-53.7,36.7-53.4,37.2-53.4z"/>
							<path class="st13" d="M30.9-37.5C63-34,82.8-3.1,114.2,2c16.7,2.8,33.4-3.6,49.4,4.4c14.9,7.3,25.3,21.1,37.4,31.9
								c0.2,0.2,0.8-0.2,0.6-0.3c-11.5-10.4-21.4-23.2-35-30.8c-13.9-7.6-27.4-4.9-42.6-5c-36,0-57.7-36.2-92.7-40.1
								C31.2-37.8,30.6-37.5,30.9-37.5z"/>
							<path class="st13" d="M28.6-31.4c17,3.4,30,14.4,42.1,25.9c10.9,10.2,21.4,23.4,34.2,31c11.2,6.6,26.3,5.7,38.9,5
								c10.4-0.5,20.1-1.1,29.3,4.4c7.3,4.4,13.1,10.9,18.8,17c0.2,0.2,1,0,0.6-0.3c-8.3-9.1-17.5-19-30-21.6
								c-18.6-3.7-39.4,5.2-57.1-5.2c-7.8-4.5-14.3-12-20.7-18.2C78.7,0.9,72.6-5.1,66.2-10.8C55.4-20.5,43.5-29.1,29-32
								C28.8-31.8,28.1-31.5,28.6-31.4z"/>
							<path class="st13" d="M26.2,2.4c31.1,1.8,50.9,24.5,75.7,40.1c8.8,5.5,17.8,6.6,28,7.8c16.4,1.9,27.7,9.6,35,24.5
								c0.2,0.2,0.8,0,0.8-0.2c-5-10.4-13.1-19.5-24.5-22.7c-6.2-1.8-12.8-1.9-19.1-2.9c-9.2-1.3-16.5-4.5-24.2-10.1
								C75.8,23,55.2,3.5,26.7,1.9C26.4,2,25.7,2.4,26.2,2.4z"/>
							<path class="st13" d="M41.4,44.4c12-0.2,23.8,1.8,35,6c8.1,3.1,15.6,8.3,24.3,9.7c20.6,3.7,46.2-5.2,58.5,17.5
								c0.2,0.3,0.8,0,0.8-0.2c-10.2-18.8-31.6-17-49.9-17.2c-14.6-0.2-25.3-8.1-38.6-12.3c-9.7-3.1-19.6-4.2-29.7-4.2
								C41.4,44.1,41,44.4,41.4,44.4z"/>
							<path class="st13" d="M75.3,58c6.8,2.9,14.1,7.1,21.7,6.6c0.2,0,0.8-0.3,0.3-0.3c-7.5,0.3-14.6-3.9-21.4-6.6
								C75.8,57.7,75.2,58,75.3,58z"/>
							<path class="st13" d="M87.3,66.9c2.6,0.6,5.2,0.8,7.8,0.6c0.3,0,0.6-0.5,0.2-0.3c-2.4,0.2-5,0-7.5-0.6
								C87.5,66.6,86.8,66.9,87.3,66.9z"/>
							<path class="st13" d="M117.8,42.3c3.1,1.1,6.2,1.9,9.4,1.9c0.2,0,0.8-0.3,0.5-0.3c-3.2-0.2-6.3-0.8-9.2-1.9
								C118.3,41.8,117.5,42.1,117.8,42.3z"/>
							<path class="st13" d="M123.3,41.9c1.8,0.3,3.7,0.6,5.5,1c0.2,0,0.8-0.3,0.5-0.3c-1.8-0.3-3.7-0.6-5.5-1
								C123.6,41.5,123,41.9,123.3,41.9z"/>
							<path class="st13" d="M199.5-2.8c1.5,1.1,2.6,2.6,3.4,4.4c0.2,0.3,0.8,0,0.8-0.2c-0.8-1.8-1.9-3.4-3.6-4.5
								C199.8-3.3,199.2-3,199.5-2.8z"/>
							<path class="st13" d="M199.2-0.4c0.6,0.2,1,0.6,1.1,1.3c0,0.3,0.8,0,0.8-0.2c-0.2-0.8-0.6-1.3-1.5-1.6
								C199.5-0.9,198.8-0.5,199.2-0.4z"/>
							<path class="st13" d="M189.1,32.5c1,0.5,1.8,1.3,2.4,2.4c0.2,0.2,0.8-0.2,0.8-0.2c-0.6-1-1.3-1.8-2.4-2.4
								C189.6,32.2,189.1,32.5,189.1,32.5z"/>
							<path class="st13" d="M187.7,32.7c0.5,0.2,1,0.5,1.3,0.6c0.3,0.2,0.8-0.3,0.5-0.5c-0.5-0.2-1-0.5-1.3-0.6
								C187.7,31.9,187.2,32.4,187.7,32.7z"/>
							<path class="st13" d="M48.6,12.6c0.8,0,1.5,0.3,1.9,1c0.2,0.2,0.8-0.2,0.8-0.2c-0.5-0.8-1.3-1.1-2.1-1.1
								C48.9,12.3,48.1,12.6,48.6,12.6z"/>
							<path class="st13" d="M145,69.8c1.3,0.2,2.4,1,3.1,2.1c0.2,0.3,0.8,0,0.8-0.2c-0.6-1.3-1.9-2.1-3.4-2.4
								C145.2,69.4,144.5,69.7,145,69.8z"/>
							<path class="st13" d="M163,62.4c0.5,0.5,1,1,1.3,1.5c0.2,0.2,0.8-0.2,0.6-0.3c-0.5-0.5-1-1-1.3-1.5
								C163.7,61.9,162.9,62.2,163,62.4z"/>
							<path class="st13" d="M432.1,323.5c13.9,15.7,17.3,38.6,7.5,57.2c-10,19.1-31.8,29.8-53,26.3c-20.1-3.4-36.6-19-41-38.9
								c-4.5-20.9,4.9-43.1,23.3-54C389.5,301.7,415.9,306.3,432.1,323.5c0.5,0.5,1.3-0.5,0.8-0.8c-14.8-15.7-37.9-21.2-58-12.6
								c-19.5,8.3-32.1,28.1-31.6,49c0.5,22.1,15.7,41.8,36.8,48c20.6,6,43.1-1.6,55.9-18.8c14.8-19.6,13.1-47.4-3.1-65.5
								C432.6,322.2,431.8,323,432.1,323.5z"/>
							<path class="st13" d="M349.3,335.1c7.1,6.2,24.6,19.5,32.7,7.3c6.5-9.7-7.9-19.6-16-21.1c-10.4-1.8-12.3,6.5-6.6,13.9
								c2.8,3.7,9.6,8.9,14.9,7.1c2.3-0.8,2.9-2.4,2.4-4.7c-0.6-3.6-7.3-12-11.3-8.6c-3.4,2.9,1.3,5.8,3.7,6.3
								c0.2,0,0.5-0.5,0.5-0.6c-0.2-2.1,0-1.1-0.6-3.1c0-0.2-0.6,0.5-0.5,0.6c0.3,2.1-0.3,2.6-1.8,1.6c-0.2-4.1,0.8-5.4,2.8-3.9
								c1.5,0.3,2.9,2.1,3.9,3.2c1.1,1.3,1.9,2.8,2.6,4.4c-0.8,3.9-2.8,5.2-5.8,3.9c-1.5-0.3-3.1-1-4.4-1.8
								c-3.6-2.1-6.6-5.4-8.1-9.4c-1.6-4.4-0.5-7.9,4.7-8.8c2.3-0.3,5.2,0.6,7.3,1.5c3.7,1.3,7,3.6,9.6,6.5c5,5.7,5.7,15.1-4.2,16.5
								c-9.1,1.5-18.6-6.5-25.1-11.8C349.6,334.3,349.1,335,349.3,335.1z"/>
							<path class="st13" d="M345.1,366.8c7.9-6.8,19.6-9.4,29.5-5c5,2.3,9.6,6.3,10.9,11.8c1.9,8.3-3.6,20.3-13,20.4
								c-4.9,0.2-9.4-2.6-12.2-6.5c-1.6-2.3-3.2-5.4-3.7-8.1c-1.1-7.1,3.7-9.4,9.1-9.4c4.5,0,9.6,0.5,12.2,4.7
								c3.1,5-0.2,12.3-6.6,12.3c-1.3,0-2.6-0.3-3.7-1c-3.1-1.9-2.3-2.9,2.4-3.2c0,0.3,0.6-0.2,0.6-0.5c-0.2-3.6-4.9-4.7-6-1.1
								c-1.5,4.4,4.4,7,7.8,6.3c3.9-0.6,7.1-3.7,7.5-7.8c0.6-7.3-5.8-10.4-12-10.5c-4.7-0.2-10.4,0.2-11.7,5.5
								c-1.6,6.2,2.9,13.9,7.9,17.4c12.3,8.4,24.6-5.8,22.4-18.3c-1.5-8.3-9.9-13.6-17.7-14.8c-8.6-1.3-17,1.5-23.5,7
								C344.8,366.4,344.6,367.1,345.1,366.8z"/>
							<path class="st13" d="M358.7,345.5c0.6,1.9,2.4,3.1,4.4,2.9c0.3,0,0.6-0.8,0.2-0.8c-1.8,0.2-3.4-1-4.1-2.6
								C359.2,344.7,358.5,345.2,358.7,345.5z"/>
							<path class="st13" d="M254.8,259.3c-0.3,28.5-18.2,54.8-45.5,64.2c-27.7,9.6-59.2-1-76.3-24.7c-15.6-21.4-17.2-50.8-4.1-73.8
								c15.2-26.6,47.2-39.9,76.7-31.5C234.9,202.2,254.5,229.3,254.8,259.3c0,0.3,1.8,0,1.8-0.5c-0.3-30.2-20.3-57.4-49.4-65.8
								c-25.9-7.5-54.6,1.1-72.3,21.4c-19.9,23-22.2,57.6-5.2,82.9c15.9,23.7,45.4,35,73.1,28.5c31.3-7.3,53.3-35.2,53.8-67.1
								C256.7,258.5,255,258.8,254.8,259.3z"/>
							<path class="st13" d="M217.2,199.8c0.2,11.4,6.8,20.4,13,29.4c7.8,11.5,15.6,23.2,23.3,34.7c0.3,0.5,2.1,0,1.8-0.8
								c-6.8-10.2-13.8-20.4-20.6-30.7c-6.6-10.1-15.4-20.3-15.6-32.9C219.1,198.8,217.2,199.1,217.2,199.8z"/>
							<path class="st13" d="M186.5,192c5.3,17,15.9,32.4,26.7,46.4c11.2,14.6,24,27.7,37.9,39.6c0.5,0.5,2.3-0.3,1.8-0.8
								c-13.5-11.4-25.8-24-36.6-37.9c-11.2-14.4-22.4-30.3-27.9-47.8C188.2,190.8,186.4,191.3,186.5,192z"/>
							<path class="st13" d="M152.2,201.2c8.1,20.6,23.2,38.1,37.8,54.7c14.4,16.5,31.9,29.8,51.7,39.2c0.6,0.3,2.3-0.6,1.5-1
								c-19.8-9.4-37.1-22.5-51.5-39.1c-14.4-16.5-29.5-33.9-37.6-54.3C153.6,199.9,151.9,200.4,152.2,201.2z"/>
							<path class="st13" d="M126.9,226.8c29.8,33.6,64.8,63.4,107.1,80c0.5,0.2,2.1-0.5,1.5-0.8c-42.1-16.5-77.2-46.4-107-80
								C128.4,225.7,126.6,226.4,126.9,226.8z"/>
							<path class="st13" d="M119.1,255.5c31.3,26.3,67.1,46.5,105.9,59.7c0.5,0.2,2.1-0.5,1.5-0.8c-38.6-13.1-74.4-33.4-105.7-59.7
								C120.4,254.4,118.6,255.2,119.1,255.5z"/>
							<path class="st13" d="M125.4,290.1c25.6,16.9,54.1,28.5,84.1,34.5c0.6,0.2,2.1-1,1.1-1.1c-29.8-6-58.2-17.7-83.8-34.4
								C126.2,288.8,124.6,289.6,125.4,290.1z"/>
							<path class="st13" d="M132.1,287.5c6.8,3.9,13.8,7.3,21.1,10.2c0.5,0.2,2.1-0.5,1.5-0.8c-7.3-2.8-14.3-6.2-20.9-10.1
								C133.4,286.5,131.8,287.2,132.1,287.5z"/>
							<path class="st13" d="M155.6,292.2c1.6,1,3.1,1.8,4.7,2.8c0.5,0.3,2.3-0.5,1.5-1c-1.6-1-3.1-1.8-4.7-2.8
								C156.6,290.9,154.8,291.7,155.6,292.2z"/>
							<path class="st13" d="M141.3,262.7c2.4,1.8,4.7,3.4,7.1,5.2c0.6,0.5,2.3-0.3,1.5-1c-2.4-1.8-4.7-3.4-7.1-5.2
								C142.1,261.2,140.5,262,141.3,262.7z"/>
							<path class="st13" d="M187.2,293.7c1.8,1,3.7,1.8,5.5,2.8c0.5,0.2,2.1-0.5,1.5-0.8c-1.8-1-3.7-1.8-5.5-2.8
								C188.2,292.7,186.5,293.3,187.2,293.7z"/>
							<path class="st13" d="M183,270.3c0.5,0.2,1,0.6,1.1,1.1c0.3,0.8,2.3,0.3,1.8-0.5c-0.3-1-1-1.6-1.9-1.9
								C183.3,268.7,182,269.8,183,270.3z"/>
							<path class="st13" d="M151.9,221.8c3.4,4.7,6.6,9.4,10.1,14.1c0.5,0.6,2.3,0,1.8-0.8c-3.4-4.7-6.6-9.4-10.1-14.1
								C153.2,220.5,151.4,221.2,151.9,221.8z"/>
							<path class="st13" d="M213.1,287c2.9,1.6,5.8,3.2,8.8,4.7c0.5,0.3,2.1-0.5,1.8-0.6c-2.9-1.6-5.8-3.2-8.8-4.7
								C214.4,286,212.8,286.7,213.1,287z"/>
							<path class="st13" d="M220.3,273.9c1.8,1.1,3.4,2.4,5.2,3.6c0.3,0.3,1.9-0.5,1.8-0.6c-1.8-1.1-3.4-2.4-5.2-3.6
								C221.6,273.1,220.1,273.7,220.3,273.9z"/>
							<path class="st13" d="M175.7,224.9c1.6,2.1,3.1,4.2,4.7,6.3c0.3,0.5,2.1-0.2,1.8-0.6c-1.6-2.1-3.1-4.2-4.7-6.3
								C177.1,223.8,175.4,224.4,175.7,224.9z"/>
							<path class="st13" d="M199.7,205.9c1,1,1.8,2.1,2.8,3.1c0.3,0.3,2.1-0.3,1.8-0.6c-1-1-1.8-2.1-2.8-3.1
								C201.1,204.8,199.4,205.4,199.7,205.9z"/>
							<path class="st13" d="M236.8,257.3c1.8,1.8,3.7,3.4,6,4.7c0.5,0.3,1.9-0.5,1.8-0.6c-2.1-1.3-4.2-2.9-6-4.7
								C238.3,256.4,236.6,257,236.8,257.3z"/>
							<path class="st13" d="M236.5,226.5c0.8,1.1,1.5,2.1,2.3,3.2c0.3,0.5,2.1-0.2,1.8-0.6c-0.8-1.1-1.5-2.1-2.3-3.2
								C237.9,225.4,236.1,226,236.5,226.5z"/>
							<path class="st13" d="M211.2,250.2c0.3,0.3,0.8,0.8,1.1,1.1c0.5,0.5,2.3-0.2,1.8-0.8c-0.3-0.3-0.8-0.8-1.1-1.1
								C212.3,249.1,210.7,249.7,211.2,250.2z"/>
							<path class="st13" d="M181.5,324.1c1.1,0,2.1,0.5,3.1,1c0.6,0.5,2.8-0.5,1.8-1.1c-1.1-0.8-2.6-1.1-4.1-1.3
								c-0.5,0-1.3,0.2-1.5,0.6C180.7,323.8,181.2,324.1,181.5,324.1z"/>
							<path class="st13" d="M201.6,315.9c1.8,0.8,3.7,1.6,5.5,2.4c0.3,0.2,0.8,0,1.1-0.2c0,0,0.8-0.3,0.5-0.5
								c-1.8-0.8-3.7-1.6-5.5-2.4c-0.3-0.2-0.8,0-1.1,0.2C202.1,315.2,201.3,315.7,201.6,315.9z"/>
							<path class="st13" d="M216.4,190.8c3.7,0.2,6,3.9,9.6,4.9c1.6,0.5,3.7-0.2,4.9,1c1.1,1.1,1.3,3.1,2.3,4.2
								c0.6,0.8,2.9-0.2,2.1-1c-1.3-1.5-1.5-3.7-2.9-5c-1.1-0.8-2.1-0.6-3.4-0.8c-4.5-0.3-7-4.7-11.7-5
								C216.1,189.1,214.8,190.7,216.4,190.8z"/>
							<path class="st13" d="M222.5,187.8c1,2.4,3.6,3.4,6,4.2c0.8,0.2,2.8-1,1.5-1.3c-1.9-0.6-4.2-1.5-5-3.4
								C224.5,186.3,222.2,186.9,222.5,187.8z"/>
							<path class="st13" d="M110.5,273.7c-0.6,2.1-0.8,3.6,0.5,5.5c1.3,1.8,0.5,4.1,2.4,5.8c0.6,0.6,2.9-0.2,2.1-1
								c-0.8-0.8-1.3-1.8-1.3-2.9c0-0.8,0.3-1.5-0.2-2.1c-0.5-0.8-1.5-1-1.6-1.9c-0.3-1.1,0.2-2.3,0.5-3.4
								C113.1,272.6,110.8,272.7,110.5,273.7z"/>
							<path class="st13" d="M106.1,284.1c0.2,1,0.6,1.8,1.3,2.6c0.6,0.6,2.8-0.2,2.1-1c-0.6-0.6-1-1.3-1.1-2.1
								C108.3,282.6,106,283.3,106.1,284.1z"/>
							<path class="st13" d="M196.3,335.8c1.8-2.3,3.9-3.6,6.8-2.1c0.6,0.3,1.1,0.6,1.9,0.8c1.1,0.3,2.4,0.2,3.6,0
								c1.1-0.3,2.4-0.8,3.2-1.6c1-0.8,1.1-3.1,2.1-3.6c-0.5,0.2-1.1,0.2-1.6,0.3c0.2,0,0.3,0.2,0.5,0.2c0.5,0.2,2.6-0.6,1.8-1
								c-1-0.3-2.1-0.3-2.9,0.5c-0.5,0.3-0.3,0.8-0.6,1.3c-1.3,1.9,1.6,0.6-3.1,1.8c-4.4,1-1.6,0.6-3.7,0c-4.5-1.3-7.1-0.2-10.1,3.7
								C193.7,336.6,195.9,336.3,196.3,335.8z"/>
							<path class="st13" d="M202.3,339.4c1.9,0.2,4.1,0.2,6-0.3c0.3,0,1.1-0.3,1-0.8c-0.2-0.5-1-0.3-1.3-0.2
								c-1.5,0.3-2.9,0.5-4.2,0.3c-0.5,0-1.3,0-1.6,0.5C201.8,338.9,201.6,339.2,202.3,339.4z"/>
							<path class="st13" d="M261.4,267.2c0,2.1,0.6,4.1,1,6.2c0.2,2.3-0.2,4.5-1,6.8c-0.2,0.6,2.1,0.3,2.3-0.3c0.6-1.9,1-4.1,1-6
								c0-2.4-1-4.7-1-7.1C263.7,265.9,261.4,266.4,261.4,267.2z"/>
							<path class="st13" d="M139.1,201.7c1.6-0.6,2.4-1.8,3.6-3.1c2.1-2.9,4.7-3.4,8.1-3.4c0.6,0,2.4-1,1-1c-2.6,0-5.3,0.2-7.6,1.3
								c-1,0.5-1.8,1.1-2.6,1.9c-1,1.1-1.8,3.1-3.2,3.7C136.6,201.7,138.1,202.2,139.1,201.7z"/>
							<path class="st13" d="M82.9,420.6c-0.2,17.7-11.2,34.1-28,40.1c-17.2,6.2-36.8-0.2-47.7-14.6c-10.2-13.5-11.3-32.4-2.9-47
								c9.4-16.2,28.5-24.5,46.7-19.6C69.8,384.1,82.6,401.5,82.9,420.6c0,0.2,1.3,0,1.3-0.3c-0.2-18.8-12.5-35.5-30.5-41
								c-16.5-5-35.2,0.5-46.4,13.6c-12.2,14.3-13.5,35.5-3.2,51.2c9.9,15.1,28.2,22.2,45.7,18.5c19.8-4.4,34-22.1,34.2-42.2
								C84.2,420.1,82.9,420.3,82.9,420.6z"/>
							<path class="st13" d="M15,385.9c-8.1-4.9-17-9.4-26.7-9.2c-3.1,0-8.4,0.5-10.9,2.6c-2.6,2.3-1.9,3.9-1.1,7.5
								c4.7,21.1,23.2,38.4,38.3,52.5C30.4,454.2,48.9,467.2,70,473c4.7,1.3,14.6,5.2,16.7-1.8c2.6-8.3-7.6-19.3-11.5-25.5
								c-0.2-0.3-1.1,0-0.8,0.5c2.4,3.9,5,7.8,7.5,11.7c1.1,1.9,2.4,3.9,3.2,6c1.6,4.2,1.6,5.2-2.4,7.9c-4.1,2.8-5.5,2.1-9.9,1
								c-2.1-0.5-4.2-1.1-6.3-1.8c-3.6-1.1-7-2.4-10.4-4.1c-15.9-7.1-29.8-17.8-42.3-29.8c-10.9-10.4-21.9-21.6-29.7-34.5
								c-4.5-7.5-13.3-23.8,1.9-25.3c10.2-1,19.8,3.9,28.2,8.9C14.7,386.7,15.5,386.2,15,385.9z"/>
							<path class="st13" d="M-7.5,383c2.8-0.5,5.5-0.3,8.3,0.3c0.2,0,1-0.3,0.8-0.3c-2.9-0.8-5.8-1-8.9-0.3
								C-7.7,382.8-8.2,383.2-7.5,383z"/>
							<path class="st13" d="M-4.6,374.4c2.6,0.2,5,0.8,7.3,1.9c0.3,0.2,1.1-0.3,0.8-0.5c-2.4-1.3-5-2.1-7.8-2.1
								C-4.8,373.6-5.2,374.4-4.6,374.4z"/>
							<path class="st13" d="M56.8,473.8c3.9,2.4,8.6,2.9,13,1.5c0.6-0.2,0.3-1-0.2-0.6c-4.1,1.5-8.3,1-12-1.3
								C57.2,473,56.4,473.5,56.8,473.8z"/>
							<path class="st13" d="M84.6,451.3c1.5,1.5,2.6,3.2,2.9,5.2c0,0.3,1,0,1-0.3c-0.5-2.1-1.5-3.9-3.1-5.4
								C85.2,450.6,84.4,451.1,84.6,451.3z"/>
							<path class="st13" d="M74,456.5c1.9,1.5,3.2,3.7,3.6,6.2c0,0.3,1,0,1-0.3c-0.3-2.6-1.6-4.7-3.6-6.3
								C74.7,456,73.9,456.3,74,456.5z"/>
							<path class="st13" d="M36.1,378.1c0.6,7,6.3,9.9,11.5,13.3c3.9,2.6,6.8,5.4,7.5,10.1c0.6,3.7-0.3,7.6,0,11.4
								c0.5,6.6,4.4,9.2,8.9,13.1c3.4,2.9,5.2,6.5,7.6,10.1c0.2,0.3,5.3,5.4,5.3,4.7c0-0.5-1-0.2-1,0.3c0,0.2,0,0.2,0,0.3
								c0,0.2,0.3,0.2,0.5,0.2s0.3,0,0.5,0c0.2,0,0.5-0.2,0.5-0.3c0-0.8-0.5-0.6-0.6-1.1c-0.2-1.1-4.4-4.5-5.3-6
								c-0.8-1.3-1.6-2.6-2.4-3.9c-5-7.1-13.1-9.4-13.1-19.5c0-5.7,1.1-11.4-2.9-16.1c-5.3-6.2-15.4-7.5-16-17
								C37.1,377.5,36.1,377.7,36.1,378.1z"/>
							<path class="st13" d="M16.6,386.1c7.5,3.1,9.1,10.7,11.5,17.5c2.3,6.3,5.7,10.2,11.8,13.1c2.8,1.3,5.8,2.4,8.4,4.2
								c3.4,2.3,5.2,5.5,7.5,8.9c1.3,1.9,2.6,3.7,4.9,4.9c4.2,1.9,9.2-0.2,12.6,4.2c0.2,0.2,1-0.2,1-0.3c-1.6-2.1-3.4-2.8-5.8-3.2
								c-5.5-1.1-8.1-0.8-11.5-5.8c-4.4-6.2-7-9.1-14.1-12.3c-7.9-3.6-11.7-8.4-14.4-16.7c-2.1-6.2-4.4-12.2-10.5-14.8
								C17.3,385.6,16.6,385.9,16.6,386.1z"/>
							<path class="st13" d="M0.8,405.7c11.2-0.3,15.2,10.5,20.7,18.2c4.1,5.7,9.4,9.6,16.2,11.2c7.6,1.6,13.8,1,19.3,7.5
								c1.3,1.5,2.4,2.9,4.4,3.6c3.6,1.3,7.1-1.3,10.4,1.9c0.2,0.2,1.1-0.2,1-0.3c-1.5-1.5-2.6-1.6-4.5-1.9c-3.2-0.6-6,0.2-9.1-2.4
								c-1.3-1.1-1.9-2.8-3.1-3.9c-5.7-5.4-13.6-3.2-20.4-5.8c-9.6-3.6-13.3-11.2-18.8-19c-3.9-5.4-8.8-9.6-15.6-9.4
								C0.8,405.2,0.1,405.7,0.8,405.7z"/>
							<path class="st13" d="M0.1,426c9.1,1,13.9,8.4,20.4,13.8c4.4,3.6,8.8,5,14.4,5c5.8,0,10.7-0.2,16,2.9
								c2.9,1.8,5.7,4.1,8.8,5.8c1.8,1,4.4,2.9,5.8,0.8c0.3-0.5-0.5-0.6-0.8-0.3c-1.5,1.9-13.8-7.5-15.6-8.3
								c-6.3-2.9-12.8-0.5-19.5-2.1c-11.8-2.9-16.9-16.9-29.3-18.3C-0.1,425.3-0.5,426,0.1,426z"/>
							<path class="st13" d="M7.2,447.4c10.2-3.6,17.8,7.5,26.9,8.9c1.5,0.2,2.6,0,4.1-0.2c3.2-0.3,7.5-1,10.5-0.3
								c2.8,0.5,5.7,2.4,8.1,3.7c0.2,0.2,1-0.3,1-0.3c-3.9-2.1-7.9-4.5-12.5-4.5c-2.3,0-2.1,0.3-4.2,0.5c-6.6,0.6-7.6,0.3-13-2.3
								c-6.6-3.4-13.5-8.4-21.2-5.8C6.3,447.4,6.9,447.6,7.2,447.4z"/>
							<path class="st13" d="M55.4,381.2c3.4,3.7,7.5,8.1,9.4,12.8c1.8,4.1,0.6,8.6,2.8,12.7c1.6,2.9,4.1,5,6.2,7.5
								c3.4,3.9,6,8.1,8.1,12.6c0.2,0.3,1.1,0,1-0.3c-1.8-3.7-3.7-7.3-6.3-10.5c-2.9-3.7-7.3-6.8-8.8-11.4
								c-1.6-4.4-0.5-8.6-2.9-12.8c-2.3-4.1-5.5-7.6-8.4-11C56,380.6,55.1,380.9,55.4,381.2z"/>
							<path class="st13" d="M64.8,410.7c-0.2,1.1,0,2.3,0.6,3.2c0.2,0.3,1-0.2,1-0.3c-0.6-1-0.8-2.1-0.6-3.2
								C65.8,410.3,64.9,410.4,64.8,410.7z"/>
							<path class="st13" d="M49.7,404.9c0.5,0.8,0.6,1.6,0.6,2.4c0,0.3,1,0.2,1-0.2c0-1-0.2-1.9-0.6-2.8
								C50.4,404.3,49.5,404.6,49.7,404.9z"/>
							<path class="st13" d="M34.6,387.7c0.6,0.6,1.3,1.3,1.9,1.9c0.3,0.3,1.1-0.2,0.8-0.5c-0.6-0.6-1.3-1.3-1.9-1.9
								C35.3,387.1,34.3,387.4,34.6,387.7z"/>
							<path class="st13" d="M20.2,397.3c0.5,0.5,0.8,1.1,1.3,1.6c0.2,0.2,1.1-0.2,1-0.3c-0.5-0.5-0.8-1.1-1.3-1.6
								C20.9,396.8,20,397.1,20.2,397.3z"/>
							<path class="st13" d="M12.9,419.7c0.8,1,1.6,1.9,2.3,3.1c0.2,0.3,1.1,0,0.8-0.3c-0.6-1.1-1.5-2.1-2.3-3.1
								C13.6,419,12.6,419.3,12.9,419.7z"/>
							<path class="st13" d="M34,439.1c1.6,1.1,3.7,1.3,5.5,0.6c0.6-0.3,0-0.3-0.3-0.2c-1.5,0.6-3.1,0.2-4.4-0.6
								C34.6,438.6,33.8,439,34,439.1z"/>
							<path class="st13" d="M47.6,433.8c0.5-0.2,0.8,0,1.1,0.3c0.2,0.2,1-0.2,1-0.3c-0.6-0.5-1.5-0.5-2.1-0.3
								C46.9,433.6,46.9,433.9,47.6,433.8z"/>
							<path class="st13" d="M60.9,439.9c0.2,1.1,1.3,1.6,2.3,1.5c0.5,0,0.8-0.6,0.2-0.6c-0.8,0.2-1.3-0.5-1.5-1.1
								C61.9,439.3,60.9,439.6,60.9,439.9z"/>
							<path class="st13" d="M38.7,449.5c0.6-0.2,1.3-0.3,1.9-0.6c0.5-0.2,0.5-0.5,0-0.3c-0.6,0.2-1.3,0.3-1.9,0.6
								C38,449.3,38.2,449.7,38.7,449.5z"/>
							<path class="st13" d="M8.5,443.5c0.6-0.3,1.3,0,1.8,0.5c0.2,0.2,1-0.2,1-0.3c-0.8-1-2.4-0.8-3.4-0.2
								C7.4,443.8,8.4,443.7,8.5,443.5z"/>
							<path class="st13" d="M-0.9,445.6c1.3,2.6,2.9,4.9,4.9,7c0.3,0.3,1.3,0,0.8-0.5c-1.9-2.1-3.7-4.4-4.9-7
								C-0.2,444.8-1.2,445.3-0.9,445.6z"/>
							<path class="st13" d="M-2.7,448.8c0.5,1.6,1.3,2.9,2.6,4.1c0.3,0.3,1.1-0.2,0.6-0.5c-1.1-1-1.8-2.3-2.3-3.7
								C-1.8,448.2-2.8,448.4-2.7,448.8z"/>
							<path class="st13" d="M73.4,385.4c1.5,1.5,2.9,3.1,4.4,4.5c0.3,0.3,1.1,0,0.8-0.5c-1.5-1.5-2.9-3.1-4.4-4.5
								C74,384.8,73,385.1,73.4,385.4z"/>
							<path class="st13" d="M75.8,384.8c1,1.1,1.9,2.4,2.9,3.6c0.2,0.3,1.1,0,0.8-0.3c-1-1.1-1.9-2.4-2.9-3.6
								C76.5,384.1,75.5,384.5,75.8,384.8z"/>
							<path class="st13" d="M17,305.6c0-0.3-6.2,2.4-6.8,3.1c-1.8,1.6-2.6,3.9-2.9,6.2c-0.8,4.4-2.1,15.1,1.5,18.3
								c0.5,0.5,1.6,0.2,2.1,0.3c5.7,2.4,4.2,1.1,7.1,4.4c1.9,2.3,3.6,3.7,6.6,4.2c6.8,1.3,14.6-3.6,20.1-6.8
								c5.7-3.4,12.3-8.3,14.1-15.2c1.8-7.1-3.1-12.8-9.1-15.9c-3.9-2.1-8.3-3.1-12.2-4.9c-3.1-1.3-7.3-5.7-10.4-6.3
								c-5.3-1-8.6,9.1-10.4,12.3c-0.5,1,1.5,0.8,1.9,0.2c1.5-2.4,2.9-6,4.9-8.1c4.1-4.2,4.4-1.6,7.8,0.6c4.2,2.8,8.9,3.9,13.5,5.7
								c6.2,2.6,13.1,7,12.3,14.8c-0.6,6.5-6.5,11.5-11.7,14.8c-7,4.5-18.2,11.4-25.6,3.9c-2.6-2.6-3.4-3.7-6.5-5
								c-4.4-1.9-4.2-0.8-4.2-5.4c0-2.3,0-4.5,0-6.8c0-5.5-0.2-8.6,6.2-12c0.6-0.3,2.4-0.5,3.4-1c0.3-0.2,0.6-0.5,0.5-0.8
								c0-0.3,0-0.6,0-1C18.9,304.3,17,304.8,17,305.6z"/>
							<path class="st13" d="M23.4,307.1c-1,3.1-4.5,3.4-6.3,5.7c-1.5,1.8-1.9,4.1-1.8,6.2c0.2,3.7,2.6,4.2,5.3,2.3
								c2.4-1.6,4.7-3.1,7.1-4.7c1.5-1,2.4-2.1,2.9-3.9c0.5-2.1-0.3-5.7-2.1-7c-1.5-1.3-2.1-0.5-3.7,0c-0.6,0.2-0.5,0.8,0.2,0.6
								c2.3-0.6,3.7,0.8,4.5,3.1c0.8,2.8,0,5-2.3,6.6c-1,0.8-2.3,1.3-3.4,1.9c-1.1,0.6-2.4,2.1-3.6,2.6c-0.5,0.6-1.3,0.5-2.1-0.2
								c-1.5,0.3-2.1,0-1.8-1.1c-0.2-0.6,0-1.6,0-2.3c0.3-2.6,1.6-4.5,3.9-5.8c1.8-1.1,3.6-1.8,4.2-4.1
								C24.6,306.8,23.6,306.6,23.4,307.1z"/>
							<path class="st13" d="M26,313.1c0,0.3-0.2,1-0.5,1c-0.2,0-1.1,0.3-0.6,0.5c1,0,2.3-0.5,2.3-1.6C27,312.6,26,312.8,26,313.1z"
								/>
							<path class="st13" d="M25.1,301.4c0.5-0.2,0.8,0,1.3,0.2c0.2,0,0.5,0,0.6,0c0,0,0.5-0.2,0.3-0.3c-0.6-0.3-1.3-0.3-1.9-0.2
								C24.9,301.1,24.4,301.6,25.1,301.4z"/>
							<path class="st13" d="M37.1,306.9c-1,0.5-1.8,1.5-1.6,2.6c0.2,1.6,1.9,1.8,2.8,2.8c1.1,1.1,1.9,2.3,3.6,2.4
								c0.8,0,1.8-0.2,2.4-0.6c2.4-1.8,1.1-5-0.8-6.5c-1.1-0.8-4.5-2.8-5.7-1c-0.2,0.3,0.8,0.2,1,0c0.5-0.8,4.2,1.8,4.5,2.1
								c1.1,1.1,2.3,3.9,0.5,5c-0.8,0.6-2.3,0.5-2.9,0c-0.3-0.2-0.6-0.5-0.8-0.8c-0.5-0.5-0.8-1.3-1.5-1.6c-0.6-0.5-1.5-0.5-1.9-1.3
								c-0.5-1.1,0.5-2.1,1.5-2.6C38.4,306.6,37.4,306.8,37.1,306.9z"/>
							<path class="st13" d="M34.1,305c-0.3,0.6-0.5,1.1-0.5,1.9c0,0.2,1,0,1-0.3c0-0.6,0.2-1.1,0.5-1.8
								C35.1,304.7,34.3,304.7,34.1,305z"/>
							<path class="st13" d="M47.8,311.2c0,0.3,0,0.6,0,1c0,0.5,1,0.2,1-0.2s0-0.6,0-1S47.8,310.8,47.8,311.2z"/>
							<path class="st13" d="M30.9,323.8c-0.6-1-1.8-1-2.8-0.5c-1.3,0.8-1.5,2.6-1.5,4.1c0,1.5,0.3,2.8,1.8,3.4
								c0.8,0.3,1.8,0.3,2.6,0.6c1.1,0.3,1.6,1.3,2.6,1.8c2.8,1,4.7-4.5,4.9-6.3c0.2-4.2-5-4.2-7.8-3.6
								C30.1,323.5,30.3,324,30.9,323.8c2.8-0.6,7.3-0.3,6.6,3.7c-0.2,1.1-0.8,2.1-1.3,3.1c-0.3,0.5-0.5,1.1-1,1.5
								c-0.2,0.5-0.5,0.6-1,0.2c-0.5,0-0.8-0.3-1-0.6c-1-0.6-1.9-0.8-3.1-1c-1.3-0.3-2.1-1-2.3-2.3c-0.2-0.6,0-1.5,0-2.1
								c0-0.5,0.6-4.2,2.3-1.9C30.3,324.5,31.2,324.1,30.9,323.8z"/>
							<path class="st13" d="M22.8,326.7c0,0.6,0,1.3,0,1.8c0,0.5,1,0.2,1-0.2c0-0.6,0-1.3,0-1.8C23.9,326.2,22.8,326.4,22.8,326.7z
								"/>
							<path class="st13" d="M12.9,325.6c-0.3,1.3,0.2,2.4,1.1,3.2c0.3,0.2,1.1-0.2,0.8-0.5c-1-0.6-1.3-1.8-1-2.8
								C13.9,325.1,12.9,325.3,12.9,325.6z"/>
							<path class="st13" d="M31.9,335.3c1,0.6,2.3,0.3,3.2-0.3c0.5-0.3-0.6-0.2-0.8,0c-0.5,0.3-1,0.3-1.5,0
								C32.5,334.8,31.7,335.2,31.9,335.3z"/>
							<path class="st13" d="M46.8,320.6c-1.6,0.3-1.9,2.3-1,3.4c1.1,1.5,2.9,2.3,4.2,0.6c0.8-1,2.6-4.1,0.8-4.9
								c-1.3-0.6-3.7-0.2-4.5,1c-0.3,0.5,0.5,0.6,0.8,0.3c0.5-0.6,1.8-1,2.8-0.6c0.8,0.3,0.8,0.8,0.6,1.5c-0.2,0.6-0.3,1.1-0.6,1.8
								c-0.3,0.5-0.8,1.5-1.6,1.1c-0.3-0.2-0.8-0.5-1-0.8c-0.5-0.5-1.6-2.4-0.2-2.8C47.6,321.1,47.4,320.4,46.8,320.6z"/>
							<path class="st13" d="M131.2,426.3c-5.5,4.2-13.3,14.1-3.2,18.5c5.3,2.3,12.2,1.9,17.8,2.4c3.7,0.3,7,0.8,8.9-2.9
								c3.9-7.1,1.3-18.2-6-21.7c-6-3.1-13.6-1.1-17.3,4.4c-0.6,1.1,1.6,1.1,2.3,0.2c8.8-13.5,26.6,4.9,19.3,16.2
								c-2.9,4.4-14.8,1.6-19.1,1c-4.5-0.6-9.1-2.8-8.1-8.3c0.6-3.9,4.2-6.5,7.1-8.6C134.2,426.3,132.2,425.7,131.2,426.3z"/>
							<path class="st13" d="M130.1,432.1c-0.5,0.8-1.9,2.1-1.8,3.2c0.2,1,1.1,1.5,1.9,1.6c2.1,0.6,3.9-0.2,5.3-1.8
								c0.6-0.6,1.6-1.3,1.1-2.4c-0.3-1-1.5-1.1-2.4-1.5c-0.6-0.2-1-0.8-1.8-0.8c-1,0-1.6,0.8-2.1,1.6c-0.3,0.5,0.8,0.5,1.1,0.2
								c0.8-1.1,1.1-0.2,1.9,0c1.3,0.2,2.8,0.5,1.5,2.3c-0.3,0.5-1.1,1.1-1.6,1.5c-1,0.5-1.8,0.8-2.8,0.3c-1.1-0.5-1.1-1-0.6-2.1
								c0.3-0.6,0.8-1.3,1.3-1.9C131.6,431.8,130.3,431.8,130.1,432.1z"/>
							<path class="st13" d="M132.5,434.1c0.2,0.5,0,0.6-0.3,1c-0.2,0.2,0.2,0.2,0.3,0.2c0.3,0,0.6-0.2,0.8-0.3
								c0.3-0.3,0.5-0.6,0.5-1.3C133.7,433.4,132.5,433.8,132.5,434.1z"/>
							<path class="st13" d="M137.7,426.1c-1,0.5-1.3,1.3-0.3,1.9c0.6,0.5,1.6,0.3,2.3,0.8c0.8,0.5,1.3,1.1,2.1,1.6
								c1.1,0.6,2.3,1,3.4,1.8c0.6,0.5,1.1,0.8,1.8,0.8c1,0.2,2.1-0.2,2.9-1c1.5-1.5,0.8-3.2-0.2-4.9c-1.3-2.1-2.9-1.8-5-2.8
								c-1.6-0.8-2.6-1.5-4.5-1c-1.5,0.5-2.4,1.3-2.9,2.6c-0.2,0.3,1,0.2,1.1-0.2c1-2.3,3.4-1.9,5.3-1c1,0.5,1.9,0.5,2.8,0.8
								c1.3,0.5,2.1,1.6,2.6,2.9c0.6,1.5,0.8,4.9-2.8,3.2c-0.6-0.3-1-1-1.6-1.3c-1-0.5-1.9-0.5-2.8-1.3c-0.5-0.6-2.9-3.2-3.9-2.9
								C138.9,426.1,138.2,426,137.7,426.1z"/>
							<path class="st13" d="M134.3,428.3c0,1.9,1.6,2.9,3.4,2.6c0.6-0.2,0.5-0.8-0.2-0.6c-1.1,0.3-2.1-1-2.1-1.9
								C135.5,427.6,134.3,427.9,134.3,428.3z"/>
							<path class="st13" d="M139.5,432c0.5,0.3,0.8,0.6,1,1.1c0.3,0.5,1.5,0,1.1-0.5c-0.3-0.5-0.6-1-1.3-1.3
								C139.8,431,138.9,431.7,139.5,432z"/>
							<path class="st13" d="M145,427.8c1,0.3,1.5,1.3,1.3,2.3c-0.2,0.5,1.1,0.5,1.1-0.2c0.3-1.3-0.5-2.6-1.8-2.9
								C145.2,426.8,144.4,427.4,145,427.8z"/>
							<path class="st13" d="M141.3,436.5c-2.1-0.3-5.5,0.8-4.2,3.6c0.6,1.5,2.3,1.9,3.7,1.9c1.3,0.2,2.8-0.2,4.1,0
								c1.1,0.2,2.1,0.6,3.2,0.6c2.6-0.2,3.7-2.9,1.8-4.9c-1.5-1.5-2.9-1-4.7-1.1c-1.8-0.2-3.1-0.8-5-0.3c-0.6,0.2-0.5,0.8,0.2,0.5
								c1.5-0.3,3.4,0.5,4.9,0.5c1.3,0,2.6-0.3,3.6,0.8c1.3,1.3,1.5,3.4-1.6,3.6c-0.6,0-1.6-0.5-2.4-0.5c-0.6,0-1.1,0-1.8,0
								c-1.1,0-2.1,0-3.2-0.5c-1.6-0.8-3.2-4.4,0.8-3.9C141,437.2,141.9,436.7,141.3,436.5z"/>
							<path class="st13" d="M139.5,438.5c-0.5,0.5-0.6,1.1,0,1.5c0.6,0.3,1.5,0,1.8-0.5c0.5-0.5-0.6-0.6-1-0.3
								c-0.2-0.2-0.2-0.5,0-0.6C141,438.3,139.8,438.1,139.5,438.5z"/>
							<path class="st13" d="M147.3,440.1c0,0.3,1.1,0.2,1.1-0.2c0,0,0,0,0-0.2C148.6,439.6,147.3,439.8,147.3,440.1z"/>
							<path class="st13" d="M150.4,436.4c0.8,0.3,1.3,1.1,1.5,2.1c0,0.3,1.1,0,1.1-0.3c0-1.1-0.6-1.8-1.6-2.3
								C151,435.7,150,436.2,150.4,436.4z"/>
							<path class="st13" d="M130.6,441.7c0.2,0.5,0.5,0.8,1,1.1c0.3,0.2,1.3-0.3,1-0.5c-0.5-0.2-0.6-0.5-0.8-1
								C131.7,441.2,130.6,441.6,130.6,441.7z"/>
							<path class="st13" d="M-15.8-47.9c-9.9,29.8-20.4,59.7-29.7,89.8C-48,50.7-60,94-37.7,88.3c8.4-2.1,11.2-11,13.3-18.3
								c4.7-16.1,9.6-31.9,14.8-47.7C0.6-8.5,11.6-38.8,22.6-69.3c0.3-0.6-0.8-0.5-1,0C4.5-22.3-11.1,24.9-26.2,72.6
								c-1.5,4.5-3.4,10.7-7.9,13.3c-7.8,4.4-13,0.3-14.9-6c-1.6-5.2-1-11.2-0.3-16.5c1.6-12.2,5.7-23.8,9.4-35.4
								c8.4-25.3,16.7-50.6,25.1-76.1C-14.5-48.6-15.6-48.2-15.8-47.9z"/>
							<path class="st13" d="M3.7,12.4C2.9,16.5,2,20.5,1.2,24.6c-0.2,0.6,1,0.3,1.1-0.2c0.8-4.1,1.6-8.1,2.4-12.2
								C5,11.6,3.8,11.9,3.7,12.4z"/>
							<path class="st13" d="M378.8,624.5c-21.6-23-42.6-46.5-64.7-69.1c-6.3-6.5-38.6-37.8-44.4-15.4c-2.1,8.4,4.4,15.1,9.7,20.4
								c11.7,11.8,23.3,23.7,34.9,35.8c22,23.7,43.4,48,64.8,72.3c0.5,0.5,0.8-0.5,0.5-1c-33.1-37.6-66.9-74-101.5-110.1
								c-3.2-3.4-7.8-8.1-7.8-13.3c0-8.9,6-11.5,12.3-10.2c5.4,1,10.2,4.4,14.6,7.6c9.9,7.1,18.2,16.4,26.4,25.3
								c18.2,19.5,36.5,38.9,54.6,58.5C378.8,625.9,379.1,624.8,378.8,624.5z"/>
							<path class="st13" d="M381,655c-10-11.8-20.9-22.9-32.4-33.2c-0.3-0.3-0.5,0.8-0.2,1.1c11.5,10.4,22.4,21.4,32.4,33.2
								C381.2,656.4,381.4,655.3,381,655z"/>
							<path class="st13" d="M388.5,644.4c-12.8-9.2-25.3-19-37.3-29.4c-0.2-0.2-0.3,1,0,1.1c12,10.4,24.3,20.1,37.3,29.4
								C388.7,645.7,388.7,644.6,388.5,644.4z"/>
							<path class="st13" d="M294.5,544.7c1.3,2.8,2.6,6.8,0,9.1c-1.3,1.1-3.2,1.6-4.9,2.1c-2.9,0.6-5.7,0.3-8.4-0.6
								c-0.2,0-0.3,1.1,0.2,1.1c2.6,1,5.2,1.3,7.9,0.8c1.8-0.3,5.5-1.5,6.5-3.2c0.6-1,0.3-3.2,0.3-4.4c-0.2-2.1-0.8-4.1-1.6-5.8
								C294.5,543.2,294.5,544.4,294.5,544.7z"/>
							<path class="st13" d="M291.9,543.4c0-2.3-2.3-5-4.7-4.5c-1.3,0.3-1.5,1.3-1.8,2.3c-0.2,1-0.3,1.1-1,1.6
								c-0.2,0.2-0.3,0.2-0.5,0.3c-0.2,0.3-0.2,0.6-0.2,1c0.2,2.1,4.1,3.7,5.5,2.1c0.2-0.2,0.3-0.5,0.5-0.6c0-0.2,0.2-0.3,0.5-0.5
								c0.2-0.2,0.3-0.2,0.6-0.2c0.3-0.2,0.5-0.2,0.6-0.5c0.3-0.5,0.2-1.3-0.3-1.6c-0.2-0.2-0.3,1,0,1.1c-1.1-1-1.5,0.6-2.1,1.3
								c-0.8,0.6-1.8,0.5-2.6,0.2c-0.3-0.2-0.8-0.5-1.1-0.6c-1.3-1-0.6-0.3-0.2-0.8c1-0.8,0.6-1.5,1.1-2.6c1-2.9,5.3-0.6,5.3,1.6
								C291.4,543.6,291.9,544.2,291.9,543.4z"/>
							<path class="st13" d="M279.6,539.3c-0.6-1-1.8-1.8-3.1-1.6c-0.5,0-0.6,0.2-1,0.6c-0.2,0.2,0,0.3-0.2,0.5
								c-0.5,0.8-0.8,0.5-1.5,0.8c-2.1,0.8-0.8,3.9,0,5.2c1.5,1.9,4.2,2.1,5-0.5c0.5-1.6,1-5.2-1.6-5.4c-0.3,0-0.3,1.1,0.2,1.1
								c0.2,0,0.5,0.2,0.6,0.2c0.2,0.6,0.5,1.5,0.6,2.1c0,0.3-0.2,0.8-0.3,1.1c-0.3,0.8-0.6,1.5-1.6,1.6c-0.6,0.2-1.3-0.2-1.8-0.5
								c-0.3-0.2-0.5-0.5-0.8-0.8c-0.5-0.6-0.6-1-0.5-1.9c0-1.6,0.5-0.8,1.5-1.3c0.3-0.2,0.3-0.3,0.6-0.6c0.6-0.8,0.8-1.1,1.8-0.8
								c0.6,0.3,1.3,0.8,1.8,1.3C279.6,540.8,279.7,539.7,279.6,539.3z"/>
							<path class="st13" d="M283,550.4c-0.5-1.3-1.9-1.9-3.2-1.1c-0.6,0.5-0.6,1-1,1.6c-0.5,0.8-1.5,0.3-2.1,1
								c-1,1.1-0.3,2.6,0.5,3.4c1.5,1.5,3.6,1.9,5.5,1.5c0.6-0.2,0.5-1.3-0.2-1.1c-1,0.3-2.1,0.3-3.1,0c-0.6-0.2-1.1-0.5-1.6-1
								c-0.8-0.5-0.6-1.1,0-1.9c0.2,0,0.3,0,0.5,0c0.5-0.2,0.8-0.3,1-1c0.2-0.6,0.3-1.1,1-1.3c0.8-0.3,1.5,0.2,1.8,0.8
								C282.6,551.8,283.1,551,283,550.4z"/>
							<path class="st13" d="M282.8,551c0.3,0.3,0.5,0.5,0.8,0.8c0.3,0.2,0.5,0.3,0.8,0.6c0.3,0.3,0.3,0.3,0.3,0.8
								c0,0.5-0.3,1.1-0.5,1.6s-0.2,1-0.2,1.6s0.5,0.6,0.5,0c0-1.3,1-2.8,0.5-4.1c-0.3-1-1.5-1.5-2.1-2.3
								C282.8,549.7,282.6,550.9,282.8,551z"/>
							<path class="st13" d="M293.2,550.2c-0.3-0.8-0.6-1.8-1.6-1.9c-0.8-0.2-1.3,0.5-1.6,1c-0.2,0.5-0.3,0.8-0.5,1.3
								c-0.2,0.8-0.6,1.1-1.1,1.6c-0.5,0.5-0.6,1.1-0.3,1.8c0.3,0.6,1.3,1,1.9,1.1c0.3,0,0.6,0.2,1.1,0c0.2,0,0.3-0.2,0.6-0.3
								c0.5-0.2,0.6-0.2,1.1-0.2c2.1-0.2,1.1-2.9,0.5-3.9c-0.3-0.6-0.6,0.5-0.3,0.8c0.2,0.2,0.3,0.3,0.3,0.6
								c0.5,1.5-0.3,1.1-0.8,1.1c-0.5,0-0.6,0-1.1,0.3c-0.6,0.3-1.1,0.3-1.8,0c-0.2,0-0.5-0.2-0.6-0.3c-0.5-0.3-0.3-0.2,0.2-0.5
								c0.6-0.5,0.8-1.1,1-1.9c0.2-0.5,0.3-1.3,0.8-1.6c1-0.6,1.5,0.5,1.8,1.1C293,551.7,293.3,550.7,293.2,550.2z"/>
							<path class="st13" d="M304.5,556.4c9.4,9.9,19.1,19.5,29.2,28.9c0.5,0.5,0.8-0.6,0.3-1.1c-9.9-9.2-19.6-18.8-29-28.7
								C304.5,555.1,304.2,556,304.5,556.4z"/>
							<path class="st13" d="M300.3,561.2c3.2,2.6,6.3,5,9.6,7.6c0.2,0.2,0.3-1,0-1.1c-3.2-2.6-6.3-5-9.6-7.6
								C300.1,559.9,300,561.1,300.3,561.2z"/>
							<path class="st13" d="M292.4,562.9c3.7,3.7,7.5,7.5,11.2,11.2c0.5,0.5,0.6-0.6,0.3-1.1c-3.7-3.7-7.5-7.5-11.2-11.2
								C292.4,561.4,292,562.5,292.4,562.9z"/>
							<path class="st13" d="M349.1,569.7c-4.4-3.9-8.6-7.8-13-11.7c-0.2-0.2-0.3,1,0,1.1c4.4,3.9,8.6,7.8,13,11.7
								C349.1,571,349.3,569.8,349.1,569.7z"/>
							<path class="st13" d="M358,583c-1.1-0.5-2.1-1.3-2.8-2.3c-0.2-0.3-0.3,0.8-0.2,1.1c0.8,1.1,1.6,1.8,2.9,2.4
								C358.2,584.3,358.3,583.1,358,583z"/>
							<path class="st13" d="M316.5,612.8c-3.1-2.6-6.3-5.4-9.4-7.9c-0.5-0.5-0.6,0.8-0.3,1.1c3.1,2.6,6.3,5.4,9.4,7.9
								C316.7,614.3,316.8,613.1,316.5,612.8z"/>
							<path class="st13" d="M332.4,631.9c-1-0.8-1.9-1.5-2.9-2.3c-0.2-0.2-0.3,1,0,1.1c1,0.8,1.9,1.5,2.9,2.3
								C332.6,633.2,332.7,632.1,332.4,631.9z"/>
							<path class="st13" d="M290.4,591.6c-1.8-1.8-3.7-3.7-5.5-5.5c-0.3-0.3-0.3,0.8-0.2,1.1c1.8,1.8,3.7,3.7,5.5,5.5
								C290.6,592.9,290.6,591.7,290.4,591.6z"/>
							<path class="st13" d="M274.7,524.9c-8.3-0.3-14.1,6.5-13.3,14.4c0,0.6,0.6,0.6,0.5,0c-0.8-7.6,5.3-13.6,12.8-13.3
								C275.2,526,275,524.9,274.7,524.9z"/>
							<path class="st13" d="M268.2,518.9c-3.1,0-6,1.5-7.6,4.2c-0.2,0.3,0.2,1.5,0.3,1c1.6-2.6,4.4-4.1,7.3-3.9
								C268.7,520,268.5,518.9,268.2,518.9z"/>
							<path class="st13" d="M188.7,128.2c-4.5,5.7-9.2,11.2-13.8,16.9c-0.5,0.6,1.5,0.5,1.9,0c4.5-5.7,9.2-11.2,13.8-16.9
								C191.2,127.6,189,127.8,188.7,128.2z"/>
							<path class="st13" d="M169.4,124c6,9.1,11.2,18.5,15.9,28.4c0.3,0.5,2.3-0.2,1.9-0.5c-4.5-9.9-9.9-19.3-15.9-28.4
								C171.1,122.9,169.1,123.7,169.4,124z"/>
							<path class="st13" d="M181.9,122.7c-1,8.3-2.1,16.7-3.1,25c-0.2,0.8,1.9,0.3,1.9-0.3c1-8.3,2.1-16.7,3.1-25
								C184,121.8,181.9,122.1,181.9,122.7z"/>
							<path class="st13" d="M169.3,137.3c8.9,3.6,17.7,7.3,26.6,10.9c0.8,0.3,2.3-0.8,1.1-1.3c-8.9-3.6-17.7-7.3-26.6-10.9
								C169.8,135.7,168.1,136.8,169.3,137.3z"/>
							<path class="st13" d="M106,342.1c-3.9,4.9-7.9,9.6-11.8,14.4c-0.5,0.6,1.3,0.5,1.6,0c3.9-4.9,7.9-9.6,11.8-14.4
								C108.1,341.5,106.3,341.6,106,342.1z"/>
							<path class="st13" d="M89.4,338.4c5.2,7.8,9.6,15.9,13.6,24.3c0.2,0.5,1.9-0.2,1.8-0.5c-3.9-8.4-8.4-16.5-13.6-24.3
								C90.9,337.6,89.3,338.2,89.4,338.4z"/>
							<path class="st13" d="M100.1,337.4c-1,7.1-1.8,14.3-2.8,21.4c-0.2,0.6,1.6,0.3,1.8-0.2c1-7.1,1.8-14.3,2.8-21.4
								C101.9,336.5,100.3,336.8,100.1,337.4z"/>
							<path class="st13" d="M89.4,349.9c7.6,3.1,15.2,6.2,22.9,9.2c0.6,0.3,1.9-0.6,1-1.1c-7.6-3.1-15.2-6.2-22.9-9.2
								C89.7,348.6,88.3,349.6,89.4,349.9z"/>
							<path class="st13" d="M199.5,467.3c-3.9,4.9-7.9,9.6-11.8,14.4c-0.5,0.6,1.3,0.5,1.6,0c3.9-4.9,7.9-9.6,11.8-14.4
								C201.6,466.9,199.8,467,199.5,467.3z"/>
							<path class="st13" d="M183,463.8c5.2,7.8,9.6,15.9,13.6,24.3c0.2,0.5,1.9-0.2,1.8-0.5c-3.9-8.4-8.4-16.5-13.6-24.3
								C184.2,462.8,182.8,463.4,183,463.8z"/>
							<path class="st13" d="M193.6,462.6c-1,7.1-1.8,14.3-2.8,21.4c-0.2,0.6,1.6,0.3,1.8-0.2c1-7.1,1.8-14.3,2.8-21.4
								C195.4,461.8,193.6,462.1,193.6,462.6z"/>
							<path class="st13" d="M182.8,475.3c7.6,3.1,15.2,6.2,22.9,9.2c0.6,0.3,1.9-0.6,1-1.1c-7.6-3.1-15.2-6.2-22.9-9.2
								C183.1,473.8,181.8,474.8,182.8,475.3z"/>
							<path class="st13" d="M346.3,500.1c-3.9,4.9-7.9,9.6-11.8,14.4c-0.5,0.6,1.3,0.5,1.6,0c3.9-4.9,7.9-9.6,11.8-14.4
								C348.5,499.6,346.7,499.8,346.3,500.1z"/>
							<path class="st13" d="M329.8,496.5c5.2,7.8,9.6,15.9,13.6,24.3c0.2,0.5,1.9-0.2,1.8-0.5c-3.9-8.4-8.4-16.5-13.6-24.3
								C331.3,495.6,329.7,496.2,329.8,496.5z"/>
							<path class="st13" d="M340.5,495.6c-1,7.1-1.8,14.3-2.8,21.4c-0.2,0.6,1.6,0.3,1.8-0.2c1-7.1,1.8-14.3,2.8-21.4
								C342.3,494.6,340.7,494.9,340.5,495.6z"/>
							<path class="st13" d="M329.8,508c7.6,3.1,15.2,6.2,22.9,9.2c0.6,0.3,1.9-0.6,1-1.1c-7.6-3.1-15.2-6.2-22.9-9.2
								C330.1,506.6,328.7,507.6,329.8,508z"/>
							<path class="st13" d="M325,20.1c3.9,4.9,7.9,9.6,11.8,14.4c0.5,0.6-1.3,0.5-1.6,0c-3.9-4.9-7.9-9.6-11.8-14.4
								C322.9,19.6,324.7,19.8,325,20.1z"/>
							<path class="st13" d="M341.6,16.5c-5.2,7.8-9.6,15.9-13.6,24.3c-0.2,0.5-1.9-0.2-1.8-0.5c3.9-8.4,8.4-16.5,13.6-24.3
								C340.1,15.6,341.7,16.2,341.6,16.5z"/>
							<path class="st13" d="M330.9,15.6c1,7.1,1.8,14.3,2.8,21.4c0.2,0.6-1.6,0.3-1.8-0.2c-1-7.1-1.8-14.3-2.8-21.4
								C329.1,14.6,330.7,14.9,330.9,15.6z"/>
							<path class="st13" d="M341.6,28c-7.6,3.1-15.2,6.2-22.9,9.2c-0.6,0.3-1.9-0.6-1-1.1c7.6-3.1,15.2-6.2,22.9-9.2
								C341.2,26.6,342.7,27.6,341.6,28z"/>
							<path class="st13" d="M184.7,366.5c-3.9,4.9-7.9,9.6-11.8,14.4c-0.5,0.6,1.3,0.5,1.6,0c3.9-4.9,7.9-9.6,11.8-14.4
								C186.8,366,185.1,366.1,184.7,366.5z"/>
							<path class="st13" d="M168.2,362.9c5.2,7.8,9.6,15.9,13.6,24.3c0.2,0.5,1.9-0.2,1.8-0.5c-3.9-8.4-8.4-16.5-13.6-24.3
								C169.5,361.9,168,362.6,168.2,362.9z"/>
							<path class="st13" d="M178.9,361.8c-1,7.1-1.8,14.3-2.8,21.4c-0.2,0.6,1.6,0.3,1.8-0.2c1-7.1,1.8-14.3,2.8-21.4
								C180.7,360.9,178.9,361.3,178.9,361.8z"/>
							<path class="st13" d="M168,374.4c7.6,3.1,15.2,6.2,22.9,9.2c0.6,0.3,1.9-0.6,1-1.1c-7.6-3.1-15.2-6.2-22.9-9.2
								C168.5,372.9,167.1,373.9,168,374.4z"/>
							<path class="st13" d="M47.6,245.3c-3.9,4.9-7.9,9.6-11.8,14.4c-0.5,0.6,1.3,0.5,1.6,0c3.9-4.9,7.9-9.6,11.8-14.4
								C49.7,244.8,47.9,244.8,47.6,245.3z"/>
							<path class="st13" d="M31.1,241.7c5.2,7.8,9.6,15.9,13.6,24.3c0.2,0.5,1.9-0.2,1.8-0.5c-3.9-8.4-8.4-16.5-13.6-24.3
								C32.5,240.8,30.9,241.4,31.1,241.7z"/>
							<path class="st13" d="M41.8,240.6c-1,7.1-1.8,14.3-2.8,21.4c-0.2,0.6,1.6,0.3,1.8-0.2c1-7.1,1.8-14.3,2.8-21.4
								C43.7,239.8,41.9,240.1,41.8,240.6z"/>
							<path class="st13" d="M31.1,253.3c7.6,3.1,15.2,6.2,22.9,9.2c0.6,0.3,1.9-0.6,1-1.1c-7.6-3.1-15.2-6.2-22.9-9.2
								C31.4,251.8,30.1,252.8,31.1,253.3z"/>
							<path class="st14" d="M136.5,540.6c-8.3-11.9-13.9-42.8,30.7-71.1c24.5-10.6,73.9-21.6,75.6,19.6
								c-0.5,11.3-10.4,34.2-45.8,35.1c-12.4-1.8-31-11.3-13.1-31c4.6-5.1,19.5-10.5,29.8-2.4c2,2.7,3.9,9.3-4.2,14.6 M203.2,504.9
								c0.9-2.5,1.8-7.1-4.8-7.1c-4.3,0.6-11.3,7.1-4.2,12.8c10.8,8.6,37.5-7.1,32.7-23.2c-0.3-2.4-1.3-7.1-12.5-10.4
								c-2.1-0.5-7.8-1.1-9.2-0.9c-18.2,0.9-52.5,11.5-44.4,46.7c4.5,10.7,23.4,28.3,63.4,13.1c14.1-5.7,42.7-23.9,44.7-51.5
								c0.9-5.8,1.5-19.3-3.3-27.4"/>
						</g>
						<g>
							<defs>
								
									<rect id="SVGID_7_" x="80.1" y="513.3" transform="matrix(0.9959 -9.011217e-02 9.011217e-02 0.9959 -47.6921 14.9805)" width="123.8" height="44.7"/>
							</defs>
							<clipPath id="SVGID_8_">
								<use xlink:href="#SVGID_7_"  style="overflow:visible;"/>
							</clipPath>
							<g class="st15">
								<path class="st16" d="M204,540.6c-0.1,0.1-0.3,0.2-0.5,0.2c-0.2,0-0.3,0-0.5,0c-0.2-0.1-0.3-0.2-0.4-0.3
									c-0.1-0.1-0.2-0.3-0.2-0.5c0-10.6-25.5-19.7-55.7-19.8c-24.1-0.2-44.5,6.9-44.4,15.2c0,3.1,3.6,6.1,10,8.5
									c8.2,2.7,16.8,4.1,25.4,3.9c6.9,0.2,13.7-0.8,20.2-2.9c5-1.8,7.9-4.2,7.9-6.5c0-0.2,0.1-0.5,0.3-0.7
									c0.2-0.2,0.4-0.3,0.6-0.3c0.2,0,0.5,0.1,0.6,0.3c0.2,0.2,0.3,0.4,0.3,0.6c0,3.2-3.3,6.2-9.2,8.3c-6.7,2.2-13.7,3.2-20.8,3.1
									c-8.8,0.1-17.6-1.2-25.9-4c-7.2-2.6-11.2-6.2-11.2-10.2c0-9.8,20.2-17.3,46.2-17.2c32.3,0.1,57.5,9.7,57.6,21.6
									c0,0.1-0.1,0.3-0.1,0.4C204.1,540.4,204.1,540.5,204,540.6z"/>
								<path class="st16" d="M180.9,547c-3.2,2.9-6.9,5-11,6.3c-10.4,3.3-21.3,4.9-32.2,4.7c-32.3-0.1-57.6-9.7-57.6-21.6
									c0-0.1,0-0.2,0.1-0.4c0-0.1,0.1-0.2,0.2-0.3s0.2-0.2,0.3-0.2s0.2-0.1,0.3-0.1c0.1,0,0.2,0,0.3,0.1c0.1,0,0.2,0.1,0.3,0.2
									c0.1,0.1,0.2,0.2,0.2,0.3c0,0.1,0.1,0.2,0.1,0.3c0,10.7,25.5,19.7,55.7,19.9c10.8,0.2,21.5-1.3,31.8-4.6
									c8-2.9,12.7-6.8,12.6-10.6c0-3.1-3.6-6.1-10-8.5c-8.2-2.7-16.7-4.1-25.3-4c-6.8-0.2-13.7,0.8-20.2,2.9
									c-5,1.8-7.9,4.2-7.9,6.5c0,0.1,0,0.2-0.1,0.4c0,0.1-0.1,0.2-0.2,0.3c-0.1,0.1-0.2,0.2-0.3,0.2c-0.1,0-0.2,0.1-0.3,0.1
									c-0.1,0-0.2,0-0.3-0.1c-0.1,0-0.2-0.1-0.3-0.2s-0.2-0.2-0.2-0.3c0-0.1-0.1-0.2-0.1-0.4c0-3.2,3.2-6.2,9.1-8.3
									c6.7-2.2,13.8-3.2,20.8-3.1c8.8-0.1,17.6,1.2,25.9,4c7.2,2.6,11.2,6.2,11.2,10.2c0,1.2-0.3,2.3-0.8,3.4
									C182.5,545.3,181.8,546.2,180.9,547z"/>
								<path class="st16" d="M146.5,539.3c-0.3,0.3-0.8,0.6-1.2,0.7c-1,0.3-2,0.5-3.1,0.5c-2.4,0-4.8-0.7-4.8-2.3
									c0-1.6,2.4-2.4,4.9-2.3c2.5,0.1,4.8,0.7,4.8,2.3c0,0.2-0.1,0.4-0.2,0.6C146.8,539,146.6,539.2,146.5,539.3z M139.4,538.2
									c0.9,0.4,1.8,0.5,2.8,0.5c0.9,0,1.9-0.1,2.8-0.5c-0.9-0.3-1.8-0.5-2.8-0.5C141.2,537.6,140.3,537.8,139.4,538.2z"/>
								<path class="st16" d="M146.8,514.7c-0.2,0.2-0.4,0.3-0.6,0.3c-0.2,0-0.5-0.1-0.7-0.2c-0.2-0.2-0.3-0.4-0.3-0.6
									c0-0.3,0.1-0.5,0.3-0.7c0.2-0.2,0.4-0.3,0.7-0.3c0.2,0,0.5,0.1,0.6,0.3c0.1,0.1,0.2,0.2,0.2,0.3c0,0.1,0.1,0.2,0.1,0.4
									C147,514.3,146.9,514.5,146.8,514.7z"/>
								<path class="st16" d="M192.1,534.8c-0.1,0.1-0.2,0.2-0.3,0.2c-0.1,0.1-0.2,0.1-0.3,0.1c-0.1,0-0.2,0-0.3-0.1
									c-0.1,0-0.2-0.1-0.3-0.2c-0.2-0.2-0.3-0.4-0.3-0.7c0-0.2,0.1-0.5,0.3-0.6c0.2-0.2,0.4-0.3,0.6-0.3c0.2,0,0.5,0.1,0.6,0.3
									c0.1,0.1,0.2,0.2,0.2,0.3c0,0.1,0.1,0.2,0.1,0.4C192.3,534.4,192.2,534.6,192.1,534.8z"/>
								<path class="st16" d="M145.1,524c-0.2,0.2-0.4,0.3-0.6,0.3c-0.2,0-0.5-0.1-0.7-0.3c-0.1-0.1-0.2-0.2-0.2-0.2
									c0-0.1,0-0.2,0-0.4c0-0.2,0.1-0.5,0.3-0.6c0.2-0.2,0.4-0.3,0.6-0.3c0.1,0,0.2,0,0.3,0.1c0.1,0,0.2,0.1,0.3,0.2
									c0.1,0.1,0.2,0.2,0.2,0.3c0,0.1,0.1,0.2,0.1,0.3c0,0.1,0,0.2-0.1,0.3C145.3,523.8,145.2,523.9,145.1,524L145.1,524z"/>
								<path class="st16" d="M110.8,534.6c-0.1,0.1-0.2,0.2-0.3,0.2c-0.1,0-0.2,0.1-0.3,0.1c-0.1,0-0.2,0-0.3-0.1
									c-0.1,0-0.2-0.1-0.3-0.2c-0.2-0.2-0.3-0.4-0.3-0.6c0-0.1,0-0.2,0.1-0.4c0.1-0.2,0.2-0.3,0.3-0.4c0.1-0.1,0.3-0.2,0.5-0.2
									c0.2,0,0.5,0.1,0.7,0.3c0.1,0.1,0.2,0.2,0.2,0.2c0,0.1,0,0.2,0,0.3c0,0.1,0,0.3-0.1,0.4
									C110.9,534.4,110.9,534.5,110.8,534.6z"/>
								<path class="st16" d="M171.1,527.1c-0.1,0.1-0.2,0.2-0.3,0.3c-0.1,0-0.2,0-0.3,0c-0.2,0-0.5-0.1-0.7-0.3
									c-0.2-0.2-0.3-0.4-0.3-0.6c0-0.1,0-0.2,0-0.3c0-0.1,0.1-0.2,0.2-0.3s0.2-0.2,0.3-0.2c0.1,0,0.2-0.1,0.4-0.1
									c0.1,0,0.2,0,0.4,0.1c0.1,0,0.2,0.1,0.3,0.2c0.2,0.2,0.3,0.4,0.3,0.7c0,0.1,0,0.2-0.1,0.4
									C171.3,526.9,171.2,527,171.1,527.1z"/>
								<path class="st16" d="M159,541.5c-0.2,0.2-0.4,0.3-0.6,0.3c-0.2,0-0.5-0.1-0.7-0.3c-0.1-0.1-0.1-0.2-0.2-0.3
									c0-0.1-0.1-0.2-0.1-0.3c0-0.2,0-0.4,0.1-0.5c0.1-0.1,0.2-0.3,0.4-0.3c0.1,0,0.2,0,0.3,0c0.1,0,0.2,0,0.3,0.1
									c0.1,0,0.2,0.1,0.3,0.2c0.1,0.1,0.2,0.2,0.2,0.3c0,0.1,0.1,0.2,0.1,0.4c0,0.1,0,0.2,0,0.3
									C159.2,541.3,159.1,541.4,159,541.5z"/>
								<path class="st16" d="M128.7,543c-0.1,0.1-0.2,0.2-0.3,0.3c-0.1,0-0.2,0-0.3,0c-0.2,0-0.5-0.1-0.6-0.2
									c-0.2-0.2-0.3-0.4-0.3-0.6c0-0.1,0-0.2,0.1-0.3c0-0.1,0.1-0.2,0.2-0.3c0.1-0.1,0.2-0.1,0.3-0.2s0.2-0.1,0.3-0.1
									c0.1,0,0.2,0,0.3,0c0.1,0.1,0.2,0.1,0.2,0.2c0.2,0.2,0.3,0.4,0.3,0.6C129,542.6,128.9,542.8,128.7,543L128.7,543z"/>
								<path class="st16" d="M133.5,535.9c-0.2,0.2-0.4,0.3-0.6,0.3c-0.2,0-0.5-0.1-0.6-0.2c-0.1-0.1-0.2-0.1-0.2-0.2
									c0-0.1,0-0.2,0-0.3c0-0.2,0.1-0.5,0.3-0.6c0.2-0.2,0.4-0.3,0.6-0.3c0.1,0,0.2,0,0.3,0c0.1,0.1,0.2,0.1,0.2,0.2
									c0.2,0.2,0.3,0.4,0.3,0.6C133.8,535.6,133.7,535.8,133.5,535.9L133.5,535.9z"/>
								<path class="st16" d="M167.4,546.3c-0.2,0.2-0.4,0.3-0.6,0.3c-0.1,0-0.2,0-0.4-0.1c-0.1,0-0.2-0.1-0.3-0.2
									c-0.1-0.1-0.2-0.2-0.2-0.3c0-0.1-0.1-0.2-0.1-0.4c0-0.2,0.1-0.5,0.3-0.6c0.2-0.2,0.4-0.3,0.6-0.3c0.2,0,0.5,0.1,0.7,0.3
									c0.1,0.1,0.2,0.2,0.2,0.3c0,0.1,0.1,0.2,0.1,0.4C167.6,545.9,167.5,546.1,167.4,546.3z"/>
								<path class="st16" d="M158.3,551.5c-0.1,0.1-0.2,0.2-0.3,0.2c-0.1,0-0.2,0.1-0.3,0.1c-0.1,0-0.2,0-0.4-0.1
									c-0.1,0-0.2-0.1-0.3-0.2c-0.1-0.1-0.1-0.2-0.2-0.3c0-0.1-0.1-0.2-0.1-0.4c0-0.2,0.1-0.4,0.2-0.5c0.1-0.2,0.3-0.3,0.4-0.3
									l0.3,0c0.1,0,0.2,0,0.3,0.1c0.1,0,0.2,0.1,0.3,0.2c0.1,0.1,0.2,0.2,0.2,0.3s0.1,0.2,0.1,0.4c0,0.1,0,0.2-0.1,0.3
									C158.4,551.4,158.4,551.5,158.3,551.5z"/>
								<path class="st16" d="M117.3,551.5c-0.1,0.1-0.1,0.2-0.2,0.3c-0.1,0-0.2,0-0.3,0c-0.2,0-0.5-0.1-0.7-0.3
									c-0.1-0.1-0.1-0.2-0.2-0.3c0-0.1-0.1-0.2-0.1-0.4c0-0.2,0.1-0.5,0.3-0.6s0.4-0.3,0.6-0.3c0.1,0,0.2,0,0.3,0.1
									c0.1,0,0.2,0.1,0.3,0.2c0.1,0.1,0.2,0.2,0.2,0.3c0,0.1,0.1,0.2,0.1,0.4c0,0.1,0,0.2-0.1,0.4
									C117.5,551.3,117.4,551.4,117.3,551.5z"/>
								<path class="st16" d="M130.6,554c-0.1,0.1-0.2,0.2-0.3,0.2c-0.1,0-0.2,0.1-0.4,0.1c-0.2,0-0.5-0.1-0.6-0.3
									c-0.2-0.2-0.3-0.4-0.3-0.7c0-0.2,0.1-0.4,0.2-0.5c0.1-0.2,0.2-0.3,0.4-0.3l0.4,0c0.1,0,0.2,0,0.3,0c0.1,0.1,0.2,0.2,0.3,0.3
									c0.2,0.2,0.3,0.4,0.3,0.6c0,0.1,0,0.2,0,0.3L130.6,554z"/>
								<path class="st16" d="M91.6,544.1c-0.1,0.1-0.2,0.2-0.3,0.2c-0.1,0-0.2,0.1-0.4,0.1c-0.1,0-0.2,0-0.3,0
									c-0.1-0.1-0.2-0.2-0.2-0.2c-0.1-0.1-0.2-0.2-0.2-0.3c0-0.1-0.1-0.3-0.1-0.4c0-0.1,0-0.2,0-0.3c0.1-0.1,0.1-0.2,0.2-0.3
									c0.1-0.1,0.2-0.2,0.4-0.2c0.1,0,0.3,0,0.4,0c0.1,0,0.3,0.1,0.4,0.2c0.1,0.1,0.2,0.2,0.3,0.3c0.1,0.1,0.1,0.3,0.1,0.4
									c0,0.1,0,0.3-0.1,0.4S91.6,544,91.6,544.1L91.6,544.1z"/>
								<path class="st16" d="M181.7,550.8c-0.2,0.2-0.4,0.3-0.6,0.3c-0.1,0-0.2,0-0.4-0.1c-0.1-0.1-0.2-0.2-0.3-0.2
									c-0.1-0.1-0.1-0.2-0.2-0.3c0-0.1-0.1-0.2-0.1-0.4c0-0.1,0-0.2,0.1-0.4c0.1-0.1,0.1-0.2,0.2-0.3c0.2-0.2,0.4-0.2,0.6-0.3
									c0.2,0,0.5,0.1,0.6,0.3c0.1,0.1,0.2,0.1,0.2,0.2c0,0.1,0,0.2,0,0.3c0,0.1,0,0.3-0.1,0.4
									C181.9,550.6,181.8,550.7,181.7,550.8z"/>
								<path class="st16" d="M81.7,531.9c-0.1,0.1-0.2,0.2-0.3,0.2c-0.1,0-0.2,0.1-0.3,0.1c-0.1,0-0.2,0-0.4,0
									c-0.1-0.1-0.2-0.2-0.2-0.2c-0.1-0.1-0.2-0.2-0.2-0.3c0-0.1,0-0.2,0-0.3c0-0.2,0.1-0.5,0.3-0.6c0.2-0.2,0.4-0.3,0.6-0.3
									c0.2,0,0.4,0.1,0.5,0.2c0.2,0.2,0.3,0.4,0.3,0.6C81.9,531.4,81.9,531.6,81.7,531.9L81.7,531.9z"/>
							</g>
						</g>
					</g>
				</g>
			</g>
		</g>
	</g>
</g>
</svg>
