<svg width="43" height="43" viewBox="0 0 43 43" fill="none" xmlns="http://www.w3.org/2000/svg">
<g clip-path="url(#clip0_260_9263)">
<path d="M14.8014 25.019C14.8246 24.9957 14.8429 24.968 14.8552 24.9376C14.8676 24.9072 14.8737 24.8746 14.8734 24.8418L14.8693 21.075C14.8697 21.042 14.8634 21.0093 14.8509 20.9788C14.8384 20.9482 14.82 20.9205 14.7966 20.8972C14.7733 20.8739 14.7456 20.8555 14.715 20.843C14.6845 20.8306 14.6518 20.8243 14.6188 20.8247L11.6972 20.8269C11.6301 20.8263 11.5684 20.8537 11.5211 20.8992C11.4748 20.9468 11.4475 21.0103 11.4491 21.0763L11.4532 24.8432C11.4528 24.8823 11.4626 24.9193 11.4791 24.9529C11.4912 24.9776 11.5077 25.0001 11.5266 25.0215C11.5743 25.0678 11.6378 25.0952 11.7037 25.0935L14.6275 25.0902C14.6901 25.0929 14.7552 25.0667 14.8014 25.019ZM10.865 24.8471L10.861 21.0803C10.8613 21.0473 10.855 21.0146 10.8426 20.9841C10.8301 20.9536 10.8116 20.9258 10.7883 20.9025C10.765 20.8792 10.7372 20.8608 10.7067 20.8483C10.6761 20.8359 10.6434 20.8296 10.6104 20.83L7.68664 20.8333C7.61956 20.8327 7.55784 20.8601 7.5105 20.9056C7.46425 20.9533 7.43688 21.0168 7.43856 21.0828L7.44257 24.8496C7.44282 24.9159 7.46931 24.9795 7.51625 25.0264C7.5632 25.0733 7.62679 25.0997 7.69315 25.0999L10.6169 25.0966C10.6497 25.0969 10.6822 25.0907 10.7126 25.0782C10.7429 25.0658 10.7704 25.0474 10.7936 25.0242C10.8167 25.0009 10.8349 24.9733 10.8472 24.9429C10.8595 24.9125 10.8655 24.8799 10.865 24.8471Z" fill="white"/>
<path d="M35.6375 22.8L35.6313 18.4942C35.6303 17.6847 35.4524 16.9118 35.1006 16.1932C34.4071 14.7764 33.0964 13.7535 31.5928 13.4568C31.5493 13.4475 31.5013 13.4404 31.4566 13.4344L31.3237 13.4132C31.2634 13.4037 31.2054 13.3932 31.144 13.387C30.9741 13.37 30.8054 13.3607 30.6466 13.3605C30.4856 13.3614 30.3201 13.37 30.1511 13.3887C30.0906 13.396 30.0313 13.4056 29.972 13.4152L29.8399 13.4353C29.7929 13.4416 29.7469 13.4502 29.7033 13.4576C27.3659 13.9254 25.672 16.0489 25.6759 18.5075L25.6764 18.9749L6.30221 19.0005C6.23513 18.9999 6.1734 19.0273 6.12606 19.0728C6.07982 19.1205 6.05245 19.184 6.05413 19.2499L6.05899 22.1201C6.05924 22.1864 6.08572 22.25 6.13267 22.2969C6.17961 22.3438 6.24321 22.3702 6.30957 22.3704L25.6838 22.3448L25.6843 22.8122C25.6853 23.6217 25.8633 24.3947 26.215 25.1132C26.9085 26.5301 28.2192 27.553 29.7228 27.8496C29.7663 27.859 29.8143 27.8661 29.859 27.872L29.9941 27.8922C30.0522 27.9027 30.1125 27.9122 30.1706 27.9171C30.5006 27.9533 30.8336 27.9528 31.1634 27.9155C31.2239 27.9081 31.281 27.8997 31.3403 27.8901L31.4769 27.8678C31.5217 27.8626 31.5676 27.854 31.6101 27.8443C33.9464 27.3799 35.6403 25.2564 35.6375 22.8ZM29.5983 20.4704L28.9481 19.8757C28.4189 19.3916 28.1237 18.7261 28.1219 18.0116C28.1197 16.8186 28.967 15.7748 30.1308 15.5308C30.1509 15.5265 30.1689 15.5233 30.1901 15.5212L30.2472 15.5128C30.2886 15.5064 30.329 15.4978 30.3715 15.4937C30.4644 15.4844 30.5561 15.4785 30.6511 15.4793C30.7462 15.4801 30.84 15.4842 30.9283 15.4939C30.9719 15.4976 31.0143 15.5047 31.079 15.5175L31.1125 15.5234C31.1304 15.5258 31.1516 15.5293 31.1672 15.5328C31.9284 15.6891 32.586 16.2022 32.93 16.905C33.0993 17.2508 33.1867 17.6228 33.1868 18.0096C33.1886 18.7241 32.8957 19.388 32.365 19.8732L31.7159 20.4693C31.6641 20.5169 31.6356 20.5838 31.6361 20.6531C31.6367 20.7224 31.6663 20.7886 31.7173 20.836L32.3675 21.4307C32.8967 21.9148 33.1919 22.5803 33.1937 23.2948C33.1959 24.4878 32.3486 25.5317 31.1848 25.7756C31.1647 25.7799 31.1434 25.782 31.1232 25.7863L31.0796 25.7938C31.0359 25.8012 30.99 25.8098 30.9452 25.815C30.8523 25.8243 30.7606 25.8302 30.6656 25.8294C30.5706 25.8286 30.4767 25.8245 30.3884 25.8148C30.3471 25.8099 30.308 25.804 30.2689 25.7981L30.1506 25.7781C29.3894 25.6219 28.7318 25.1087 28.3878 24.4059C28.2185 24.0623 28.1307 23.6843 28.131 23.3013C28.1292 22.5868 28.4221 21.9229 28.9528 21.4377L29.6019 20.8417C29.6273 20.8183 29.6475 20.7899 29.6613 20.7582C29.675 20.7266 29.682 20.6924 29.6817 20.6578C29.6817 20.6197 29.6729 20.5821 29.6558 20.5481C29.6404 20.5166 29.6205 20.493 29.5983 20.4704Z" fill="white"/>
<path d="M24.6999 23.0016L24.6936 18.3146C24.6942 18.2475 24.6667 18.1858 24.6213 18.1384C24.5736 18.0922 24.5101 18.0648 24.4441 18.0665L23.07 18.0683C23.0371 18.0683 23.0045 18.0747 22.9741 18.0873C22.9437 18.0999 22.9161 18.1184 22.8928 18.1416C22.8696 18.1649 22.8511 18.1926 22.8386 18.223C22.826 18.2534 22.8196 18.286 22.8197 18.3189L22.826 23.0059C22.8257 23.0451 22.8354 23.082 22.8519 23.1157C22.864 23.1404 22.8806 23.1629 22.8994 23.1843C22.9471 23.2306 23.0106 23.2579 23.0766 23.2563L24.4507 23.2544C24.5882 23.2511 24.701 23.1403 24.6999 23.0016ZM21.4675 23.0057L21.4612 18.3186C21.4618 18.2516 21.4344 18.1898 21.3889 18.1425C21.3412 18.0962 21.2777 18.0689 21.2117 18.0706L19.8376 18.0724C19.8047 18.0723 19.7721 18.0788 19.7417 18.0914C19.7113 18.104 19.6837 18.1224 19.6604 18.1457C19.6372 18.169 19.6187 18.1966 19.6062 18.227C19.5936 18.2575 19.5872 18.2901 19.5873 18.323L19.5936 23.01C19.5939 23.0763 19.6203 23.1399 19.6673 23.1868C19.7142 23.2337 19.7778 23.2601 19.8442 23.2603L21.2183 23.2585C21.2854 23.259 21.3471 23.2316 21.3945 23.1862C21.4418 23.1351 21.4692 23.0716 21.4675 23.0057Z" fill="white"/>
</g>
<defs>
<clipPath id="clip0_260_9263">
<rect width="32" height="32" fill="white" transform="translate(28.7412) rotate(63.9181)"/>
</clipPath>
</defs>
</svg>
